<svg id="Layer_1" data-name="Layer 1" xmlns="http://www.w3.org/2000/svg" viewBox="0 0 250 250">
<path fill="currentColor" id="Icon_ionic-md-people" data-name="Icon ionic-md-people" d="M160.2,128.89a25.68,25.68,0,1,0-24.78-26.55c0,.29,0,.59,0,.88A25.32,25.32,0,0,0,160.2,128.89ZM98.69,134.4a31.19,31.19,0,0,0,0-62.35,31.19,31.19,0,0,0,0,62.35Zm0,10.25c-18.09,0-53.88,9.16-53.88,27.87V194H153.66V172.52C153.66,153.81,116.77,144.65,98.69,144.65ZM160.26,149a39.4,39.4,0,0,0-6.6.4,24,24,0,0,1,12.1,23.1V194h48.4V172.52c0-18.71-35.82-23.5-53.9-23.5Z"/>
</svg>