<svg
  id="Layer_1"
  data-name="Layer 1"
  xmlns="http://www.w3.org/2000/svg"
  viewBox="0 0 250 250"
>
  <path
    d="M201.81,65.11,189.15,40.66a5,5,0,0,0-4.44-2.7H181l-7.29-12.89a5.16,5.16,0,0,0-.61-.91l-.27-.29a3.8,3.8,0,0,0-.37-.33,3.47,3.47,0,0,0-.38-.29,2.39,2.39,0,0,0-.34-.21l-.27-.14a2.86,2.86,0,0,0-.48-.2,2.13,2.13,0,0,0-.49-.15,2.71,2.71,0,0,0-.41-.09l-.3,0a4.07,4.07,0,0,0-.5,0H80.78a4.07,4.07,0,0,0-.5,0l-.3,0a2.71,2.71,0,0,0-.41.09,2.13,2.13,0,0,0-.49.15,2.86,2.86,0,0,0-.48.2l-.26.13,0,0a4.88,4.88,0,0,0-.7.49l-.35.32c-.11.11-.22.23-.32.35a2.19,2.19,0,0,0-.29.39,2.66,2.66,0,0,0-.21.33s0,.09-.08.14L69.06,38H65.31a5,5,0,0,0-4.44,2.7L48.22,65.11a5,5,0,0,0,4.44,7.3H63.29l3.59,25.1A4.08,4.08,0,0,0,64,101.92l9.86,79a4.09,4.09,0,0,0,4,3.58h1.43l4.89,34.1a5,5,0,0,0,5,4.29h71.65a5,5,0,0,0,4.94-4.29l4.89-34.1h1.43a4.07,4.07,0,0,0,4.05-3.58l9.87-79a4.08,4.08,0,0,0-2.88-4.41l3.6-25.1h10.63a5,5,0,0,0,4.44-7.3ZM156.5,212.86h-63l-4.07-28.37,35.56.07,35.56-.07ZM173.07,97.33H77L73.38,72.41H176.64ZM60.88,62.41,68.36,48H125a5,5,0,0,0,0-10H80.55l3.16-5.57h82.61L169.48,38h-4.41a5,5,0,0,0,0,10h16.6l7.48,14.45Z"
    fill="currentColor"
  />
</svg>
