<?xml version="1.0" encoding="UTF-8"?>
<svg version="1.1" xmlns="http://www.w3.org/2000/svg" xmlns:xlink="http://www.w3.org/1999/xlink" viewBox="0, 0, 250, 250">
  <g id="Layer_1">
    <path d="M124.906,21.237 C67.625,21.295 21.228,67.761 21.257,125.042 C21.286,182.323 67.729,228.743 125.01,228.743 C182.291,228.743 228.734,182.323 228.763,125.042 C228.792,67.761 182.395,21.295 125.114,21.237 z M196.803,83.487 L166.2,83.487 C162.952,70.637 158.142,58.233 151.879,46.552 C170.806,53.063 186.755,66.175 196.803,83.487 z M124.998,42.412 C133.714,54.987 140.406,68.851 144.828,83.498 L105.18,83.498 C109.595,68.85 116.282,54.985 124.998,42.412 z M44.635,145.748 C41.052,132.161 41.052,117.877 44.635,104.29 L79.772,104.29 C78.858,111.158 78.359,118.074 78.277,125.002 C78.362,131.941 78.861,138.868 79.772,145.748 z M53.101,166.505 L83.808,166.505 C87.056,179.355 91.866,191.759 98.13,203.44 C79.181,196.965 63.221,183.844 53.205,166.505 z M83.75,83.452 L53.205,83.452 C63.23,66.128 79.188,53.02 98.13,46.552 C91.866,58.233 87.056,70.637 83.808,83.487 z M124.952,207.533 C116.236,194.96 109.548,181.096 105.134,166.447 L144.782,166.447 C140.403,181.101 133.751,194.977 125.068,207.568 z M149.235,145.69 L100.727,145.69 C99.708,138.839 99.154,131.927 99.069,125.002 C99.145,118.083 99.699,111.179 100.727,104.337 L149.281,104.337 C150.311,111.178 150.865,118.083 150.94,125.002 C150.857,131.935 150.303,138.855 149.281,145.713 z M151.832,203.382 C158.096,191.701 162.906,179.297 166.154,166.447 L196.757,166.447 C186.711,183.763 170.762,196.879 151.832,203.393 z M170.224,145.701 C171.115,138.836 171.591,131.924 171.651,125.002 C171.595,118.048 171.119,111.105 170.224,104.209 L205.315,104.209 C208.909,117.806 208.909,132.104 205.315,145.701 z" fill="currentColor" id="Icon_material-language"/>
  </g>
</svg>
