<svg id="Layer_1" data-name="Layer 1" xmlns="http://www.w3.org/2000/svg" viewBox="0 0 250 250">
  <path
    fill="currentColor"
    d="M166.62,62.46A52,52,0,0,0,74.16,95.07v13.06H63.44a15,15,0,0,0-15,15v28.08a15,15,0,0,0,15,15h1.72a75.93,75.93,0,0,0,7.41,15.15c7.38,11.46,16.89,18.12,27.66,19.47A13.91,13.91,0,0,0,113.29,210h20.88a13.9,13.9,0,0,0,0-27.8H113.29a13.92,13.92,0,0,0-12.83,8.56c-13.31-2.34-21-16.21-24.56-24.54h3.26a5,5,0,0,0,5-5V95.07a42,42,0,0,1,74.68-26.33,5,5,0,0,0,7.78-6.28ZM113.29,192.19h20.88a3.9,3.9,0,0,1,0,7.8H113.29a3.9,3.9,0,0,1,0-7.8Z"
  />
  <path
    fill="currentColor"
    d="M203.84,123.13v28.08a15,15,0,0,1-15,15H173.12a5,5,0,0,1-5-5V95.07a41.79,41.79,0,0,0-2.33-13.83A5,5,0,1,1,175.23,78a51.73,51.73,0,0,1,2.89,17.12v13.06h10.72A15,15,0,0,1,203.84,123.13Z"
  />
</svg>
