<svg id="Layer_1" data-name="Layer 1" xmlns="http://www.w3.org/2000/svg" viewBox="0 0 250 250"><path id="Icon_ionic-md-hand" data-name="Icon ionic-md-hand" d="M198.72,127.18a12.73,12.73,0,0,0-18-1c-.19.17-.38.34-.55.52L164.92,142a7.57,7.57,0,0,1-10.58,1.54,8,8,0,0,1-1-.86c-1.85-2.19-1.12-8.92-.61-13.19l7.65-62.89a10.26,10.26,0,1,0-20.28-3.08c0,.2,0,.41-.07.61l-8.44,49.39c-.44,1.24-1.39,1.45-1.52-.21l-2.87-64.2a10.25,10.25,0,1,0-20.5,0l-.21,64.68c.06.75-.59,1-.7.1l-9.09-50.5a10.26,10.26,0,1,0-20.27,3.14,4,4,0,0,0,.09.5l8.12,59.09c0,1.05-.35,1.65-.84.31L71.74,94a10.42,10.42,0,0,0-13.09-6.55,10.59,10.59,0,0,0-6.23,13.41l21.24,69.39c.11.39.23.76.35,1.14l0,.15h0a45.2,45.2,0,0,0,43,31.19,61.2,61.2,0,0,0,36.36-12.32h0c11-6.6,46.1-44.4,46.1-44.4a13.11,13.11,0,0,0-.45-18.53Z"/></svg>