<svg id="Layer_1" data-name="Layer 1" xmlns="http://www.w3.org/2000/svg" viewBox="0 0 250 250"><path id="Path_840" data-name="Path 840" d="M134.85,172.64V194.4h24.77a9.84,9.84,0,0,1,10.44,8.78,9.72,9.72,0,0,1-8.81,10.56,10.26,10.26,0,0,1-1.36,0c-2.77.06-5.56,0-8.34,0H90.83a9.89,9.89,0,0,1-8.14-3.16,9.24,9.24,0,0,1-2-10.24,9.87,9.87,0,0,1,9.7-6h24.91v-21.7h-2.39c-26.4,0-52.8-.1-79.2,0a14.54,14.54,0,0,1-15.17-13.88q0-.62,0-1.23c.06-17.22,0-34.43,0-51.64V53a17.81,17.81,0,0,1,2.6-10.36A13.77,13.77,0,0,1,32.4,36.28c1.08-.06,2.17-.06,3.26-.06h180A15.19,15.19,0,0,1,228,41.44a13.6,13.6,0,0,1,3.33,8.61c.09,3.2.09,6.4.09,9.6v97.67a14.47,14.47,0,0,1-11.52,15,28.53,28.53,0,0,1-4.89.25H137.27Zm.45-66.45a19.11,19.11,0,0,0,3.87-28.55,18.74,18.74,0,0,0-26.43-1.82l-.45.4a18.36,18.36,0,0,0-6,13.16,18.58,18.58,0,0,0,8.59,16.69c-.17.14-.2.2-.25.22-.78.33-1.57.63-2.33,1a31.67,31.67,0,0,0-19.48,28.6c-.17,2.64.62,3.39,3.25,3.39h58.17c2.55,0,3.31-.71,3.22-3.21a32.56,32.56,0,0,0-10.38-22.8,33.71,33.71,0,0,0-11.77-7.1Z"/></svg>