<svg id="Layer_1" data-name="Layer 1" xmlns="http://www.w3.org/2000/svg" viewBox="0 0 250 250"><g id="uWX0cA"><g id="Group_373" data-name="Group 373"><path id="Path_834" data-name="Path 834" d="M240.41,98.7a16.38,16.38,0,0,0-2.1-8.07,18.35,18.35,0,0,0-17-10.06H67.16c-13,0-26-.06-39,0A18.49,18.49,0,0,0,9.62,98.84q-.13,26.16,0,52.33a17.72,17.72,0,0,0,6.21,13.49,19.16,19.16,0,0,0,13.44,4.78q95.7,0,191.41,0h1.78a18.57,18.57,0,0,0,17.94-18.16C240.48,133.75,240.43,116.21,240.41,98.7ZM64.28,148.45a5,5,0,0,1-5.61.39A11.1,11.1,0,0,1,56,146c-2-3.1-3.86-6.3-5.78-9.45-.5-.82-1-1.62-1.53-2.45a11.13,11.13,0,0,0-13-5.39v13.79A17.34,17.34,0,0,1,35.4,146a4.6,4.6,0,0,1-8.87.21,11.27,11.27,0,0,1-.34-2.84q0-17.85,0-35.71a15.21,15.21,0,0,1,.28-2.85,4,4,0,0,1,3.44-3.3,10.17,10.17,0,0,1,2-.28c6.87.07,13.75,0,20.62.3A12.7,12.7,0,0,1,65,114.37a12.38,12.38,0,0,1-.5,3.37,11.82,11.82,0,0,1-8.29,8.5c-1,.35-1.93.67-3.17,1.07a33.92,33.92,0,0,1,10.06,11.9,38.11,38.11,0,0,1,2,4.42A3.7,3.7,0,0,1,64.28,148.45Zm43.77,0a9,9,0,0,1-2.19.28H80.15a10.39,10.39,0,0,1-1.76-.17c-2.64-.45-3.81-1.48-4.07-4.18s-.21-5.32-.22-8V108.26c0-5.67,1.38-7.05,7.08-7.07H104a16.81,16.81,0,0,1,3.09.25,3.16,3.16,0,0,1,2.82,3.41,3.34,3.34,0,0,1-2.78,3.49,11.55,11.55,0,0,1-2.42.17H86.32c-.79,0-1.58.06-2.57.11v11.62c.85.05,1.62.13,2.4.13h16.19a16.73,16.73,0,0,1,3.08.2,3.14,3.14,0,0,1,2.68,3.1,3.17,3.17,0,0,1-2.44,3.49,16.75,16.75,0,0,1-3.74.34H83.84v13.55c.84,0,1.63.12,2.41.12h19.07a14,14,0,0,1,2.42.17,3.61,3.61,0,0,1,.31,7.06Zm48.72-7.56a20.18,20.18,0,0,1-17.54,8.93,68.11,68.11,0,0,1-8.62-1.72,19,19,0,0,1-12-12.48,29,29,0,0,1,1-23.46,20.52,20.52,0,0,1,17.67-11.61,22.07,22.07,0,0,1,15.7,4.18,14.75,14.75,0,0,1,5.93,8.81A4.08,4.08,0,0,1,154,118.7a6.07,6.07,0,0,1-2.73-2,18.51,18.51,0,0,1-1.79-3,11.82,11.82,0,0,0-20.59.55,24,24,0,0,0-.16,21.8,10.8,10.8,0,0,0,11,6,11,11,0,0,0,10.23-6.57c.53-1,.88-2.2,1.38-3.27A3.75,3.75,0,0,1,156,129.8a4.07,4.07,0,0,1,3.11,4.28,13.07,13.07,0,0,1-2.31,6.85Zm44.36,9.25A25.18,25.18,0,1,1,226.31,125h0a25.19,25.19,0,0,1-25.16,25.21h0Z"/><path id="Path_835" data-name="Path 835" d="M35.84,121.57V108.75c.11-.1.23-.26.34-.26,4.29,0,8.58-.13,12.84.14a6.12,6.12,0,0,1,5.88,8.19,7.51,7.51,0,0,1-2.07,3A5,5,0,0,1,50.47,121,73.09,73.09,0,0,1,35.84,121.57Z"/></g></g></svg>