<svg id="Layer_1" data-name="Layer 1" xmlns="http://www.w3.org/2000/svg" viewBox="0 0 250 250">
  <path
    fill="currentColor"
    d="M233.56,111.33v27.15a10,10,0,0,1-10,10H118.94v14.15h66.38a10,10,0,0,1,10,10v27.14a10,10,0,0,1-10,10H172.66a5,5,0,0,1-5-5h0a5,5,0,0,1,5-5h12.66V172.63H38.57v27.14H148.15a5,5,0,0,1,5,5h0a5,5,0,0,1-5,5H118.94v19.69a5,5,0,0,1-10,0V209.77H38.57a10,10,0,0,1-10-10V172.63a10,10,0,0,1,10-10h70.37V148.48H86.78a10,10,0,0,1-10-10V111.33a10,10,0,0,1,10-10h22.16V87.18H47.56a10,10,0,0,1-10-10V50a10,10,0,0,1,10-10H63.13a5,5,0,0,1,0,10H47.56V77.18H150.17V50H81.86a5,5,0,0,1,0-10h27.08V9.44a5,5,0,1,1,10,0V40h31.23a10,10,0,0,1,10,10V77.18a10,10,0,0,1-10,10H118.94v14.15H223.56A10,10,0,0,1,233.56,111.33Z"
  />
</svg>
