<svg xmlns="http://www.w3.org/2000/svg" width="160" height="28" viewBox="0 0 160 28">
  <g fill="none">
    <path fill="#272729" d="M7.20094678,22.5343001 L8.41186832,18.0524261 L15.3867764,18.0524261 L16.597698,22.5343001 L23.7986447,22.5343001 L16.1940574,0 L7.60458729,0 L0,22.5343001 L7.20094678,22.5343001 Z M14.127418,13.3831567 L9.67122673,13.3831567 L11.8347399,5.37200223 L11.9639049,5.37200223 L14.127418,13.3831567 Z M31.8318014,28 L31.8318014,19.5515895 L31.9609663,19.5515895 C32.784393,21.6441718 34.7218675,22.9090909 37.3051668,22.9090909 C41.7452124,22.9090909 44.2154924,19.6609035 44.2154924,13.9141104 L44.2154924,13.8984941 C44.2154924,8.12046849 41.7129212,4.91912995 37.2244387,4.91912995 C34.7057218,4.91912995 32.8166842,6.21528165 31.977112,8.40156163 L31.8318014,8.40156163 L31.8318014,5.2939208 L25.2120969,5.2939208 L25.2120969,28 L31.8318014,28 Z M34.657285,17.7557167 C32.913558,17.7557167 31.7995101,16.3346347 31.7995101,13.9297267 L31.7995101,13.9141104 C31.7995101,11.4935862 32.9297036,10.0725042 34.657285,10.0725042 C36.3687208,10.0725042 37.4989142,11.4935862 37.4989142,13.8984941 L37.4989142,13.9141104 C37.4989142,16.2877858 36.3848664,17.7557167 34.657285,17.7557167 Z M52.587707,28 L52.587707,19.5515895 L52.716872,19.5515895 C53.5402987,21.6441718 55.4777731,22.9090909 58.0610724,22.9090909 C62.5011181,22.9090909 64.971398,19.6609035 64.971398,13.9141104 L64.971398,13.8984941 C64.971398,8.12046849 62.4688268,4.91912995 57.9803443,4.91912995 C55.4616275,4.91912995 53.5725899,6.21528165 52.7330176,8.40156163 L52.587707,8.40156163 L52.587707,5.2939208 L45.9680026,5.2939208 L45.9680026,28 L52.587707,28 Z M55.4131906,17.7557167 C53.6694636,17.7557167 52.5554158,16.3346347 52.5554158,13.9297267 L52.5554158,13.9141104 C52.5554158,11.4935862 53.6856092,10.0725042 55.4131906,10.0725042 C57.1246264,10.0725042 58.2548199,11.4935862 58.2548199,13.8984941 L58.2548199,13.9141104 C58.2548199,16.2877858 57.1407721,17.7557167 55.4131906,17.7557167 Z"/>
    <path fill="#5724F0" d="M78.9299974,22.5343001 C83.9189942,22.5343001 87.1481183,19.9576129 87.1481183,16.0379253 L87.1481183,16.0066927 C87.1481183,13.070831 84.5002365,10.8220859 81.3679861,10.7440045 L81.3679861,10.6190742 C84.0804504,10.2911322 86.1632355,8.3234802 86.1632355,5.71556051 L86.1632355,5.68432794 C86.1632355,2.12381484 83.3538975,0 78.5425025,0 L67.0952575,0 L67.0952575,22.5343001 L78.9299974,22.5343001 Z M76.395135,9.11991076 L73.9410007,9.11991076 L73.9410007,4.52872281 L76.6857562,4.52872281 C78.4294832,4.52872281 79.5112398,5.37200223 79.5112398,6.73061907 L79.5112398,6.76185165 C79.5112398,8.22978249 78.4456288,9.11991076 76.395135,9.11991076 Z M76.863358,18.0055772 L73.9410007,18.0055772 L73.9410007,13.1020636 L76.7180474,13.1020636 C78.9784343,13.1020636 80.1732102,13.9765756 80.1732102,15.5225878 L80.1732102,15.5538204 C80.1732102,17.1310653 78.9622887,18.0055772 76.863358,18.0055772 Z M95.3427312,22.5343001 L95.3427312,13.8204127 C95.3427312,11.4155047 96.6182352,10.1974345 99.1046608,10.1974345 C99.7827768,10.1974345 100.460893,10.3223648 101.02599,10.556609 L101.02599,5.16899052 C100.525475,4.99721138 99.9926699,4.91912995 99.4275732,4.91912995 C97.2963513,4.91912995 95.9239735,6.13720022 95.4718961,8.38594534 L95.3427312,8.38594534 L95.3427312,5.2939208 L88.7230267,5.2939208 L88.7230267,22.5343001 L95.3427312,22.5343001 Z M107.186254,22.7529281 C109.478932,22.7529281 111.141931,21.8315672 112.14296,20.1918572 L112.272125,20.1918572 L112.272125,22.5343001 L118.891829,22.5343001 L118.891829,10.8064696 C118.891829,7.30842164 115.581977,4.91912995 110.625271,4.91912995 C105.426382,4.91912995 102.342568,7.21472393 102.068093,10.7283882 L102.051947,10.9313999 L107.961244,10.9313999 L107.993535,10.775237 C108.138846,10.0725042 108.89769,9.49470162 110.253922,9.49470162 C111.610154,9.49470162 112.272125,10.119353 112.272125,11.1187953 L112.272125,11.8215282 L108.526341,12.0557724 C103.779528,12.3680982 101.131647,14.1952036 101.131647,17.5214724 L101.131647,17.5370887 C101.131647,20.5041829 103.585781,22.7529281 107.186254,22.7529281 Z M109.608097,18.4584495 C108.38103,18.4584495 107.589895,17.9743447 107.589895,17.0686001 L107.589895,17.0529838 C107.589895,16.1940881 108.219574,15.6631344 109.624243,15.5694367 L112.272125,15.3820413 L112.272125,16.4751813 C112.272125,17.6151701 111.190368,18.4584495 109.608097,18.4584495 Z M127.68383,22.5343001 L127.68383,12.852203 C127.68383,11.2437256 128.636422,10.0725042 130.202547,10.0725042 C131.865546,10.0725042 132.705118,11.1344116 132.705118,12.8678193 L132.705118,22.5343001 L139.324822,22.5343001 L139.324822,11.4623536 C139.324822,7.32403793 137.129018,4.91912995 133.205632,4.91912995 C130.509314,4.91912995 128.684858,6.16843279 127.812995,8.49525934 L127.68383,8.49525934 L127.68383,5.2939208 L121.064126,5.2939208 L121.064126,22.5343001 L127.68383,22.5343001 Z M147.923076,22.9090909 C150.506375,22.9090909 152.44385,21.6597881 153.251131,19.5828221 L153.380296,19.5828221 L153.380296,22.5343001 L160,22.5343001 L160,0 L153.380296,0 L153.380296,8.40156163 L153.251131,8.40156163 C152.411558,6.21528165 150.506375,4.91912995 147.955367,4.91912995 C143.466885,4.91912995 140.964313,8.12046849 140.964313,13.8984941 L140.964313,13.9141104 C140.964313,19.6609035 143.499176,22.9090909 147.923076,22.9090909 Z M150.522521,17.7557167 C148.794939,17.7557167 147.680891,16.2877858 147.680891,13.9141104 L147.680891,13.8984941 C147.680891,11.4935862 148.811085,10.0725042 150.522521,10.0725042 C152.250102,10.0725042 153.380296,11.4935862 153.380296,13.9141104 L153.380296,13.9297267 C153.380296,16.3346347 152.266248,17.7557167 150.522521,17.7557167 Z"/>
  </g>
</svg>
