<svg id="Layer_1" data-name="Layer 1" xmlns="http://www.w3.org/2000/svg" viewBox="0 0 250 250"><defs><style>.cls-1{fill:none;stroke:#000;stroke-linecap:round;stroke-width:6px;}</style></defs><g id="Group_249" data-name="Group 249"><g id="Icon_ionic-ios-calendar" data-name="Icon ionic-ios-calendar"><path id="Path_321" data-name="Path 321" d="M185.7,74.48H172.54v7.89A2.64,2.64,0,0,1,169.91,85h-5.26A2.65,2.65,0,0,1,162,82.37V74.48H98.89v7.89A2.65,2.65,0,0,1,96.25,85H91a2.65,2.65,0,0,1-2.64-2.64V74.48H75.18A13.19,13.19,0,0,0,62,87.63v89.48a13.19,13.19,0,0,0,13.16,13.15H185.7a13.19,13.19,0,0,0,13.16-13.15V87.63A13.19,13.19,0,0,0,185.7,74.48Zm2.64,98.68a6.6,6.6,0,0,1-6.58,6.6H79.13a6.6,6.6,0,0,1-6.58-6.6V114a2.63,2.63,0,0,1,2.63-2.63H185.7a2.64,2.64,0,0,1,2.64,2.63Z"/><path id="Path_322" data-name="Path 322" d="M98.87,66.58A2.64,2.64,0,0,0,96.23,64H91a2.63,2.63,0,0,0-2.63,2.63v7.9H98.87Z"/><path id="Path_323" data-name="Path 323" d="M172.55,66.58A2.64,2.64,0,0,0,169.91,64h-5.26A2.63,2.63,0,0,0,162,66.58v7.9h10.53Z"/></g><path id="Path_324" data-name="Path 324" class="cls-1" d="M130.44,127.11V165"/><path id="Path_325" data-name="Path 325" class="cls-1" d="M149.38,146H111.51"/></g></svg>