<svg id="Layer_1" data-name="Layer 1" xmlns="http://www.w3.org/2000/svg" viewBox="0 0 250 250"><defs><style>.cls-1,.cls-2,.cls-3{stroke:currentColor;stroke-linecap:round;stroke-linejoin:round;stroke-width:10px;}.cls-2{fill:#fff;}.cls-3{fill:none;}</style></defs><polyline class="cls-1" points="168.82 108.7 168.82 79.78 197.39 104.36 197.39 184.47 168.82 184.47"/><polyline class="cls-2" points="125 108.7 186.23 108.7 186.23 184.47 125 184.47"/><polyline class="cls-3" points="186.23 94.19 209.71 65.53 235.85 106.19 210.54 184.47"/><line class="cls-3" x1="180.44" y1="184.47" x2="235.85" y2="184.47"/><polyline class="cls-1" points="81.18 108.7 81.18 79.78 52.61 104.36 52.61 184.47 81.18 184.47"/><polyline class="cls-3" points="63.77 94.19 40.3 65.53 14.14 106.19 39.46 184.47"/><line class="cls-3" x1="69.56" y1="184.47" x2="14.15" y2="184.47"/><polyline class="cls-2" points="125 108.7 63.77 108.7 63.77 184.47 125 184.47"/><polygon points="97.61 140.99 97.61 127.62 109.06 127.62 109.06 140.99 109.06 141 122.43 141 122.43 152.45 109.06 152.45 109.06 152.45 109.06 165.82 97.61 165.82 97.61 152.45 97.61 152.46 84.24 152.46 84.24 141 97.61 141 97.61 140.99"/><path d="M140.16,146.52a16.14,16.14,0,0,1,21.76-15.11,19.34,19.34,0,1,0,.33,30.09,16.13,16.13,0,0,1-22.09-15"/></svg>
