<svg id="Layer_1" data-name="Layer 1" xmlns="http://www.w3.org/2000/svg" viewBox="0 0 250 250"><defs><style>.cls-1{fill:none;stroke:currentColor;stroke-linecap:round;stroke-linejoin:round;stroke-width:10px;}</style></defs><polyline class="cls-1" points="125 217.85 89.19 217.85 67.62 67.41"/><polyline class="cls-1" points="125 67.41 52.66 67.41 65.32 42.96 71.98 42.96 125.02 42.96"/><path class="cls-1" d="M80.79,27.39,72,43Z"/><path class="cls-1" d="M125,27.39h0Z"/><polyline class="cls-1" points="125.03 217.85 160.84 217.85 182.41 67.41"/><polyline class="cls-1" points="125.03 67.41 197.37 67.41 184.71 42.96 178.05 42.96 165.08 42.96"/><path class="cls-1" d="M169.24,27.39,178.05,43Z"/><line class="cls-1" x1="125.01" y1="27.39" x2="169.24" y2="27.39"/><path d="M186,101.92l-9.87,79a4.08,4.08,0,0,1-4.05,3.58l-47.09.09-47.09-.09a4.11,4.11,0,0,1-4-3.58l-9.86-79a4.09,4.09,0,0,1,4.06-4.6H182A4.09,4.09,0,0,1,186,101.92Z"/></svg>
