<svg id="Layer_1" data-name="Layer 1" xmlns="http://www.w3.org/2000/svg" viewBox="0 0 250 250"><defs><style>.cls-1{fill:none;}.cls-1,.cls-2,.cls-3{stroke:#000;}.cls-1,.cls-2{stroke-linecap:round;stroke-linejoin:round;stroke-width:10px;}.cls-3{stroke-miterlimit:10;}</style></defs><path class="cls-1" d="M170.51,79.59a47,47,0,0,1,2.61,15.48v66.14h15.73a10,10,0,0,0,10-10V123.13a10,10,0,0,0-10-10H173.12"/><path class="cls-1" d="M126.14,48.09A46.88,46.88,0,0,1,162.73,65.6"/><path class="cls-1" d="M126.14,48.09a47,47,0,0,0-47,47v66.14H63.44a10,10,0,0,1-10-10V123.13a10,10,0,0,1,10-10H79.16"/><path class="cls-1" d="M68.8,161.21s9.39,34.87,35.59,34.87"/><rect class="cls-1" x="104.39" y="187.19" width="38.68" height="17.8" rx="8.9"/><path class="cls-2" d="M170.51,79.59a47,47,0,0,1,2.61,15.48v66.14h15.73a10,10,0,0,0,10-10V123.13a10,10,0,0,0-10-10H173.12"/><path class="cls-3" d="M79.16,95.07v66.14H63.44a10,10,0,0,1-10-10V123.13a10,10,0,0,1,10-10H79.16"/></svg>