<svg id="Layer_1" data-name="Layer 1" xmlns="http://www.w3.org/2000/svg" viewBox="0 0 250 250"><defs><style>.cls-1{fill:none;stroke-width:8px;stroke-dasharray:15 20;}.cls-1,.cls-2,.cls-3{stroke:#000;stroke-linecap:round;stroke-linejoin:round;}.cls-2{fill:#fff;}.cls-2,.cls-3{stroke-width:10px;}</style></defs><path d="M141.87,35.06l-9.55,8.53a5,5,0,0,1-6.66,0l-9.55-8.53a5,5,0,0,1-1.67-3.73V9.47a5,5,0,0,1,5-5h19.1a5,5,0,0,1,5,5V31.33A5,5,0,0,1,141.87,35.06Z"/><line class="cls-1" x1="128.99" y1="53.57" x2="128.99" y2="245.25"/><path class="cls-2" d="M77.25,60.87h68.31a5,5,0,0,1,5,5V93a5,5,0,0,1-5,5H43a5,5,0,0,1-5-5V65.87a5,5,0,0,1,5-5H58.52"/><rect class="cls-3" x="77.17" y="122.17" width="146.78" height="37.15" rx="5"/><path class="cls-2" d="M143.54,220.61H34a5,5,0,0,1-5-5V188.46a5,5,0,0,1,5-5H180.7a5,5,0,0,1,5,5v27.15a5,5,0,0,1-5,5H168.05"/></svg>
