<svg id="Layer_1" data-name="Layer 1" xmlns="http://www.w3.org/2000/svg" viewBox="0 0 250 250"><defs><style>.cls-1{fill:#fff;}.cls-1,.cls-2{stroke:#000;stroke-linecap:round;stroke-linejoin:round;stroke-width:10px;}</style></defs><polyline class="cls-1" points="113.95 9.43 113.95 39.76 113.95 229.45"/><path class="cls-1" d="M81.87,45h68.3a5,5,0,0,1,5,5V77.18a5,5,0,0,1-5,5H47.56a5,5,0,0,1-5-5V50a5,5,0,0,1,5-5H63.13"/><rect class="cls-2" x="81.78" y="106.32" width="146.78" height="37.15" rx="5"/><path class="cls-1" d="M148.15,204.77H38.58a5,5,0,0,1-5-5V172.62a5,5,0,0,1,5-5H185.32a5,5,0,0,1,5,5v27.15a5,5,0,0,1-5,5H172.66"/></svg>