<svg id="Layer_1" data-name="Layer 1" xmlns="http://www.w3.org/2000/svg" viewBox="0 0 250 250"><defs><style>.cls-1{fill:#fff;stroke:#000;stroke-linecap:round;stroke-linejoin:round;stroke-width:10px;}</style></defs><path class="cls-1" d="M71.62,43h58.24c2.3,0,4.16,2.24,4.16,5V75.13c0,2.76-1.86,5-4.16,5H36c-2.3,0-4.17-2.24-4.17-5V48c0-2.76,1.87-5,4.17-5H52"/><rect class="cls-1" x="82.89" y="114.28" width="132.38" height="37.15" rx="5"/><path class="cls-1" d="M107.21,222.73H44.73c-2.11,0-3.82-2.24-3.82-5V190.58c0-2.77,1.71-5,3.82-5h96.89c2.11,0,3.82,2.23,3.82,5v27.15c0,2.76-1.71,5-3.82,5H125.94"/><line class="cls-1" x1="88.09" y1="146.43" x2="119.36" y2="115.16"/><line class="cls-1" x1="112.81" y1="151.43" x2="149.08" y2="115.16"/><line class="cls-1" x1="144.08" y1="151.43" x2="180.34" y2="115.16"/><line class="cls-1" x1="175.34" y1="151.43" x2="211.61" y2="115.16"/></svg>