<svg id="Layer_1" data-name="Layer 1" xmlns="http://www.w3.org/2000/svg" viewBox="0 0 250 250"><path d="M60.7,162.48c-8,0-15.93.62-23.63-1.77-2-.62-4.06-.89-6.06-1.43-.43-.12-1.05-.71-1.05-1.08-.06-5.22,0-10.43,0-15.65a2.17,2.17,0,0,1,.17-.52H47.89c6.69-23,20.25-40.47,41.4-51.75a79.8,79.8,0,0,1,46.13-9,82.1,82.1,0,0,1,71.4,60.65h18c0,.49.13.88.13,1.26,0,4.86,0,9.72,0,14.58,0,1-.25,1.39-1.28,1.6-4.35.91-8.67,2-13,2.86a32.21,32.21,0,0,1-5.74.27c-3.49,0-7,0-10.57,0-.31-23.36-9.33-42.29-28.3-56-12.95-9.4-27.65-13.29-43.55-12.1A64.63,64.63,0,0,0,78,116.12C66.17,129.19,60.63,144.72,60.7,162.48Z"/><path d="M95.21,143.64c1.14-14.61,14.28-29.37,32.91-28.92,19.66.47,31,16.89,31.38,28.92Z"/><path d="M180.49,150.88c-3.46-1.2-6.61-2.27-9.73-3.43a1.7,1.7,0,0,1-.8-1.22c-2.26-19.55-16.26-34.68-35.57-37.85a42.6,42.6,0,0,0-49,34.35,3.48,3.48,0,0,0-.2,1c.27,2.89-1.22,4.16-3.9,4.78a64.6,64.6,0,0,0-6.74,2.32c1.72-18.15,9.78-32.37,25.15-41.67,18.23-11,37.13-11.08,55.41-.15C170.62,118.33,178.75,132.62,180.49,150.88Z"/><path d="M183.33,159H71.41c.75-.39,1.16-.63,1.6-.83,6.33-2.92,12.66-5.86,19-8.74a6.17,6.17,0,0,1,2.47-.54q33,0,65.92,0a4.75,4.75,0,0,1,1.91.33q10.14,4.62,20.25,9.32C182.73,158.56,182.87,158.68,183.33,159Z"/><path d="M187.22,162.78c-.06-.17,0-.13,0-.08.21,5,.21,5-4.7,6.06a225,225,0,0,1-33.41,4.16,338.73,338.73,0,0,1-36.75.34c-14.41-.67-28.78-1.86-42.89-5.11-1.32-.3-1.93-.76-1.78-2.16a31.57,31.57,0,0,0,0-3.21A307.1,307.1,0,0,0,187.22,162.78Z"/></svg>