<svg id="Layer_1" data-name="Layer 1" xmlns="http://www.w3.org/2000/svg" viewBox="0 0 250 250">
  <path
    fill="currentColor"
    d="M235.85,179.48H217.41l23.2-71.74a5,5,0,0,0-.55-4.25L213.91,62.83a5,5,0,0,0-8.08-.47l-20.5,25L172.08,76a5,5,0,0,0-8.26,3.79V103.7H86.18V79.79A5,5,0,0,0,77.92,76L64.66,87.4l-20.5-25a5,5,0,0,0-8.07.47L9.94,103.49a5,5,0,0,0-.55,4.25l23.2,71.74H14.14a5,5,0,0,0,0,10H235.85a5,5,0,0,0,0-10ZM49.34,100.57a5,5,0,0,0-1.74,3.79v75.12H43.09L19.63,106.91,40.78,74l16.3,19.9Zm131.89,78.91H68.77V113.7H181.23Zm21.16,0V104.36a5,5,0,0,0-1.74-3.79l-7.73-6.65L209.22,74l21.15,32.89L206.9,179.48Z"
  />
  <polygon
    points="122.43 141 122.43 152.46 109.06 152.46 109.06 165.81 97.6 165.81 97.6 152.46 84.23 152.46 84.23 141 97.6 141 97.6 127.61 109.06 127.61 109.06 141 122.43 141"
    fill="currentColor"
  />
  <path
    d="M162.25,161.51a19.34,19.34,0,1,1-.33-30.1,16.13,16.13,0,1,0,.33,30.1Z"
    fill="currentColor"
  />
</svg>
