<svg xmlns="http://www.w3.org/2000/svg" viewBox="0 0 17.868 17.868">
  <path id="Icon_material-language" data-name="Icon material-language" d="M11.925,3a8.934,8.934,0,1,0,8.943,8.934A8.93,8.93,0,0,0,11.925,3Zm6.191,5.36H15.481A13.981,13.981,0,0,0,14.248,5.18,7.174,7.174,0,0,1,18.116,8.36ZM11.934,4.823A12.585,12.585,0,0,1,13.64,8.36H10.228A12.585,12.585,0,0,1,11.934,4.823Zm-6.915,8.9a6.988,6.988,0,0,1,0-3.574h3.02a14.755,14.755,0,0,0-.125,1.787,14.755,14.755,0,0,0,.125,1.787Zm.733,1.787H8.387A13.981,13.981,0,0,0,9.62,18.688,7.135,7.135,0,0,1,5.752,15.508ZM8.387,8.36H5.752A7.135,7.135,0,0,1,9.62,5.18,13.981,13.981,0,0,0,8.387,8.36Zm3.547,10.685a12.585,12.585,0,0,1-1.706-3.538H13.64A12.585,12.585,0,0,1,11.934,19.046Zm2.091-5.325H9.843A13.144,13.144,0,0,1,9.7,11.934a13.03,13.03,0,0,1,.143-1.787h4.181a13.03,13.03,0,0,1,.143,1.787A13.144,13.144,0,0,1,14.025,13.721Zm.223,4.967a13.981,13.981,0,0,0,1.233-3.181h2.636a7.174,7.174,0,0,1-3.868,3.181Zm1.581-4.967a14.755,14.755,0,0,0,.125-1.787,14.756,14.756,0,0,0-.125-1.787h3.02a6.989,6.989,0,0,1,0,3.574Z" transform="translate(-3 -3)" fill="#757a8a"/>
</svg>
