<svg id="Layer_1" data-name="Layer 1" xmlns="http://www.w3.org/2000/svg" viewBox="0 0 250 250">
<path fill="currentColor" id="Icon_material-language" data-name="Icon material-language" d="M124.92,35.52a89.47,89.47,0,1,0,.18,0Zm62,53.68H160.53a140,140,0,0,0-12.35-31.85A71.8,71.8,0,0,1,186.92,89.2ZM125,53.78A126.26,126.26,0,0,1,142.1,89.21H107.91A126,126,0,0,1,125,53.78ZM55.7,142.89a70.09,70.09,0,0,1,0-35.75H86A148.67,148.67,0,0,0,84.71,125,150.25,150.25,0,0,0,86,142.89ZM63,160.79H89.48a140,140,0,0,0,12.35,31.85,71.4,71.4,0,0,1-38.74-31.85ZM89.43,89.17H63.09a71.43,71.43,0,0,1,38.74-31.82A140,140,0,0,0,89.48,89.2Zm35.53,107a126,126,0,0,1-17.09-35.43h34.19a126,126,0,0,1-17,35.46Zm20.94-53.33H104.07A132.21,132.21,0,0,1,102.64,125a129.6,129.6,0,0,1,1.43-17.82h41.87A129.06,129.06,0,0,1,147.37,125a131.77,131.77,0,0,1-1.43,17.86Zm2.24,49.75a140,140,0,0,0,12.35-31.85h26.39A71.8,71.8,0,0,1,148.14,192.6ZM164,142.85A148.67,148.67,0,0,0,165.23,125,148.67,148.67,0,0,0,164,107.07h30.26a70,70,0,0,1,0,35.78Z"/>
</svg>
