<svg id="Layer_1" data-name="Layer 1" xmlns="http://www.w3.org/2000/svg" viewBox="0 0 250 250"><g id="qA7LOM.tif"><path d="M130,225h-10a12.92,12.92,0,0,0-1.92-.42,90.2,90.2,0,0,1-36.48-9.85c-33.19-17.36-52.41-44.51-56.21-82a92.84,92.84,0,0,1,6-42.65C45.09,54.06,79,28.2,117.13,25.31a95.23,95.23,0,0,1,38.32,4.56c28.53,9.74,49.07,28.46,61.27,56a94.44,94.44,0,0,1,5.94,59.67c-4.9,22.49-16.37,41.1-33.92,55.89a97.36,97.36,0,0,1-49.68,22.36C136.05,224.22,133,224.6,130,225ZM93.29,38.94a13.74,13.74,0,0,0-1.71.41q-39.9,16.09-53.8,56.83c-.19.54-.28,1.11-.48,1.92a5.91,5.91,0,0,0,.93-.53C46.93,90,57.07,85,67.84,81.14a4.11,4.11,0,0,0,2.82-2.92c4.73-14.29,11.48-27.43,22.08-38.35a3.89,3.89,0,0,0,.51-1l.11-.07ZM157,210.38a8.52,8.52,0,0,0,2.23-.27q40.37-16.67,53.53-58.32c.57-1.78.95-3.62,1.47-5.61-.49.14-.64.14-.72.22-8.75,8.19-19.16,13.55-30.28,17.66a3.17,3.17,0,0,0-2.25,2.42,113.81,113.81,0,0,1-12.38,29.05c-3.31,5.39-6.9,10.57-11.61,14.88l.09.1Zm-32-130c-3.52,0-7-.12-10.56,0A173.68,173.68,0,0,0,79,85.67a4,4,0,0,0-3.31,3.52A164.89,164.89,0,0,0,72,114.59a156.33,156.33,0,0,0,3,42.62,3.09,3.09,0,0,0,1.8,1.94,147.6,147.6,0,0,0,37.06,5.95c9.09.28,18.21.07,27.29-.36a144.45,144.45,0,0,0,31.93-5.48,2.14,2.14,0,0,0,1.86-2c.89-6.17,2.09-12.31,2.72-18.51a151.72,151.72,0,0,0-3.58-50.46,2.9,2.9,0,0,0-2.41-2.43A168.93,168.93,0,0,0,124.92,80.38Zm-46.86,87.4-.56.42c1.94,4.84,3.67,9.78,5.86,14.5,4.8,10.38,11.1,19.67,20.45,26.57,8.39,6.19,17.74,8.62,28,6.57,7-1.4,12.93-5.06,18.1-9.94,10-9.46,16.29-21.19,20.85-34,.46-1.27.83-2.57,1.35-4.2A186.34,186.34,0,0,1,78.06,167.78ZM79.14,77.5a187.13,187.13,0,0,1,91.37-.08,3.76,3.76,0,0,0,0-.83c-4.72-13.13-11.24-25.11-22.08-34.29-12.46-10.56-28.16-12-41.62-3.72A52.83,52.83,0,0,0,92.14,52.27,91.21,91.21,0,0,0,79.14,77.5ZM67.43,89.34c-2.64,1.13-4.85,2-7,3-8,3.68-15.36,8.2-21.06,15.06-7.95,9.56-8,20.72-.27,30.39A50.15,50.15,0,0,0,54.9,150.4c3.58,1.93,7.32,3.57,11.53,5.59A159.45,159.45,0,0,1,67.43,89.34Zm115.07,0a158.53,158.53,0,0,1,1.17,66c.38,0,.52.11.63.07,9.35-3.7,18.1-8.37,25-15.85,9-9.66,9.68-21.38,1.72-31.46C203.78,98.85,193.63,93.81,182.5,89.39ZM93.62,210.94c-1.49-1.63-2.85-3-4.12-4.53-9.79-11.49-16-24.83-20.19-39.21a4.5,4.5,0,0,0-3.11-3.38c-10.23-3.75-19.83-8.69-28.09-15.94L35.94,146C37.31,169.68,69.9,206.43,93.62,210.94Zm62.65-172,1.83,2c.63.68,1.29,1.34,1.9,2.05,8.91,10.22,14.89,22.08,19.12,34.87a5,5,0,0,0,3.47,3.54C193.11,85.07,203,90,211.49,97.4a6.55,6.55,0,0,0,1,.6C208.73,75.27,177.29,42.2,156.27,38.89Z"/><path d="M135.51,114.09c-2.57,0-4.89,0-7.2,0-.36,0-.92-.67-1-1.1a17,17,0,0,1,0-2.88h-8.68v8.62c2.74,0,5.38,0,8,0a8.79,8.79,0,0,1,8.91,9q0,3.69,0,7.38a8.81,8.81,0,0,1-8.88,8.83c-2.66,0-5.32,0-8,0a8.74,8.74,0,0,1-8.48-8.4q-.12-12.68,0-25.34a8.69,8.69,0,0,1,8.58-8.49q4.09,0,8.18,0a8.85,8.85,0,0,1,8.55,7.92C135.61,111,135.51,112.36,135.51,114.09Zm-8.24,21.49v-3.15c0-6-.6-6.5-6.67-5.33-.19,0-.44,0-.57.12-.53.46-1.42.94-1.46,1.46-.16,2.28-.07,4.57-.07,6.9Z"/><path d="M169.51,122.87c0,2.73,0,5.46,0,8.18a13.16,13.16,0,0,1-12.87,12.85,32.09,32.09,0,0,1-6-.18A13.35,13.35,0,0,1,140,130.78c0-5.46,0-10.91,0-16.37a13.13,13.13,0,0,1,12.76-12.73,29.91,29.91,0,0,1,6.36.25,13.24,13.24,0,0,1,10.34,13C169.52,117.55,169.51,120.21,169.51,122.87Zm-21.21-.15h0c0,3-.05,6,0,9,0,2.61,1.37,3.88,4,3.94,1.72,0,3.46.06,5.18,0,2.29-.09,3.69-1.36,3.71-3.6q.12-9.27,0-18.56a3.4,3.4,0,0,0-3.58-3.52c-1.72-.08-3.46,0-5.19,0-2.82,0-4.1,1.34-4.13,4.2S148.3,119.86,148.3,122.72Z"/><path d="M84.71,126.92v-8.16H97.26V110H80.44c0-2.57,0-4.94,0-7.3a1.54,1.54,0,0,1,1.14-.94c5.59,0,11.18-.17,16.75.05,3.56.14,7.16,4.07,7.21,7.69q.15,13.36,0,26.72c0,3.78-3.88,7.58-7.66,7.69-5.38.15-10.76.08-16.15,0a1.82,1.82,0,0,1-1.29-1.19c-.13-2.24-.06-4.49-.06-6.95H97.23v-8.8Z"/></g></svg>