<?xml version="1.0" encoding="UTF-8"?>
<!DOCTYPE svg PUBLIC "-//W3C//DTD SVG 1.1//EN" "http://www.w3.org/Graphics/SVG/1.1/DTD/svg11.dtd">
<svg version="1.1" xmlns="http://www.w3.org/2000/svg" xmlns:xlink="http://www.w3.org/1999/xlink" viewBox="0, 0, 250, 250">
  <g id="Layer_1">
    <path d="M174.4,69.472 C174.914,62.568 173.771,55.642 171.066,49.269 C169.235,45.068 165.582,41.935 161.15,40.767 C159.364,44.225 155.997,46.588 152.137,47.091 C147.151,47.673 142.396,44.831 140.548,40.164 C138.699,35.497 140.219,30.17 144.251,27.18 C148.284,24.19 153.823,24.284 157.752,27.41 C159.017,28.483 160.067,29.786 160.849,31.249 C161.375,32.484 162.447,33.403 163.747,33.734 C172.176,36.379 178.416,43.519 179.907,52.227 C180.839,57.038 181.48,61.901 181.827,66.789 C181.874,67.636 181.874,68.485 181.827,69.332 L198.841,69.332 C198.68,70.177 198.615,70.79 198.448,71.381 Q191.603,95.429 184.768,119.488 C184.714,120.085 184.413,120.632 183.938,120.997 C183.464,121.362 182.858,121.513 182.268,121.413 C173.954,121.327 165.64,121.376 157.327,121.376 L154.772,121.376 L154.772,195.349 C155.504,195.386 156.273,195.461 157.031,195.461 Q166.033,195.461 175.035,195.461 C175.981,195.461 176.804,195.381 177.127,196.704 C179.358,205.894 181.665,215.057 183.945,224.236 C183.972,224.49 183.972,224.746 183.945,225 L65.823,225 C66.646,221.65 67.437,218.375 68.254,215.111 C69.738,209.158 71.298,203.221 72.696,197.252 C72.73,196.685 73.008,196.161 73.457,195.812 C73.906,195.464 74.483,195.327 75.04,195.435 C80.956,195.499 86.871,195.435 92.824,195.435 L95.265,195.435 L95.265,121.344 L92.829,121.344 C84.446,121.344 76.057,121.344 67.673,121.344 C66.496,121.344 65.727,121.252 65.323,119.816 C60.683,103.35 55.961,86.911 51.267,70.467 C51.204,70.123 51.168,69.774 51.159,69.424 z M139.624,210.201 L139.624,121.51 L110.349,121.51 L110.349,210.196 z" fill="currentColor" id="Path_1090"/>
  </g>
</svg>
