<svg xmlns="http://www.w3.org/2000/svg" viewBox="0 0 121.38 151.93"><g id="Layer_2" data-name="Layer 2"><g id="Layer_1-2" data-name="Layer 1"><path d="M26.06,86c-.33-1.45-.73-3-1.14-4.53a21,21,0,0,1-1.13-13.53C26.32,57.42,37,48.76,49.71,42.64c3.59-3.23,5.52-3.32,4.84-8.08v0a4,4,0,0,1-2.33.74,3.92,3.92,0,0,1-1.7-.38A4,4,0,1,1,49,33.66a4,4,0,0,1-.81-2.41A4,4,0,0,1,56,29.88c.13.25.28.56.43.93C61,44.37,52.82,56.6,47.59,68.48,43.66,76.56,44,85.15,44,93.83v8.08a3.93,3.93,0,0,1-1.26,1.49c-.94-1.24-.83-2.51-1-4V89.29C42,58.21,53.93,53.23,54.16,44.34c-14.71,6.37-27.45,20-27,30.38a27.56,27.56,0,0,0,.56,4.36c.08.22.17.45.24.68.49-2.64,1.75-4.57,3.57-5,3.13-.71,6.73,3.28,8,8.89s-.19,10.79-3.32,11.51c-2.49.57-5.29-1.85-7-5.71.23,5.61.53,11.14,5.61,15.14,8.21,5.88,14.1-8.17,14.25-11.34.48-10.34,2.62-12.9,12.07-21.22,0,3.9,0,5.53,0,8.85-12.51,8.57-6.68,7.17-10.57,20.89-3.24,11.41-13.21,12.54-19.57,3.88-3.91-5.34-4.19-13.5-5-19.69ZM41,58.67c-3.65.37-9.13,8.87-4.12,11,3.62.87,3.84-3.76,3.84-5.85-.52,1.11-3.21,5.07-3.21,1.34.19-2.33,1.7-4.13,3.49-6.47ZM63,99.7c-4.28-4.07-5.16-4.57-8.63-11.87.73-.33,1.57-1.21,2.38-1.61,2.13,3.28,4.36,6.22,7.46,8.24-.85,1.94-.7,4.09-1.21,5.24Zm-11,12.84,4.4-4.91L60.25,111l-4.39,4.91-3.79-3.39Zm-6.85-1.2c.12-.34,1.87-1.55,2.22-1.23,2,4.89,6.32,9.82,11.26,7.37,3-1.46,4.14-5.82,4.46-9.07.37-3.89.26-7.17,1.13-11.18,2.37-11,9.13-13.56,15.82-21.69,1.47-1.79,3.11-3.66,3.86-5.93.26-.78.45-2.71-.23-3.53A55.22,55.22,0,0,0,71.64,76a82.91,82.91,0,0,0-.11-8.87c9.22-8,.57-19.2-8.39-28.31-.11,7.88-1.31,13.78-3.68,19.41-3.83,9.07-6.49,14.2-5.68,19.32-.34.39-1.91,2.51-2.48,3.19-4.37-7.43,7.25-27.85,9-34.71.89-3.45.28-7.14,0-10.69-.21-2.63-1.94-3.15-1.62-7.94s.88-7.31,0-13.44a30.41,30.41,0,0,1,0-6.81A8.58,8.58,0,0,1,64.32,0c-3.47,3.1-3.63,6.34-3.19,10.8.73,7.33,14.9,18.9,22.27,30.27,9.35,14.44,9.06,15,12.25,22.94.85,2.11,1.79,6,2.42,8.43.93,3.57.86,13,0,16.84a37.74,37.74,0,0,1-4,8.43,16.85,16.85,0,0,1-5.7,5.34c-6.34,3.36-12.34,2.22-19.14.86a24.21,24.21,0,0,1,.7-5.54c4.3-.24,8.21.47,12.55-1.56,12.24-5.74,14.28-20,9.32-31.09-4.09-9.17-4.46-10.06-5.73-12.1C77.73,40.21,65.19,25.7,63,22.68,61,20,59.9,29.37,62.59,32c7.71,7.4,18.52,16.57,16.31,28.67a37.89,37.89,0,0,0,5.26-4.12c3.09,6,4.33,14,2.08,19.92a24.07,24.07,0,0,1-4.85,7.29c-3.9,4.22-11.7,9.5-12.81,15.71a73.32,73.32,0,0,0-.89,11.26c0,8.78-4.74,16.67-14.82,11.74-3-1.45-6.71-7.84-7.65-11.08ZM71,108c1.61,2.47,2.46,3.42,3.23,3.84a7.07,7.07,0,0,0,3.34.56c.07,1.37,0,2.31.12,3.62-4.5.17-6.69-3.53-6.69-8Zm7.64-17.27,4.48-4.82,3.72,3.45-4.48,4.83-3.72-3.46Zm-15.72-10,4.4-4.91,3.78,3.39-4.39,4.91-3.79-3.39Zm-.83-13.22c.73-5.8,4.4-8,8.43-12.31.32.49.73,1,1.13,1.62-3.16,3.56-6.32,7.13-9.56,10.69Zm-9.32,35.94,4.4-4.9,3.78,3.39-4.39,4.9-3.79-3.39ZM30.65,86.13c-.35-1,.82-2.34,2.62-3s3.56-.35,3.91.66-.82,2.33-2.62,3-3.55.34-3.91-.66Z" fill="#eda717" fill-rule="evenodd"/><path d="M76.92,137.31h3.71v6.8h22.31c-1.44-2.75-5.09-5.51-8.89-2.07,0-10.29,10.62-1.62,15,2.07h4.16v-11.2h3.28V147.4H101.11l2.81,2.11-3.22,2.42-3.22-2.42,2.81-2.11H80.63c.06,2.56-2.07,3.53-5.87,3.3v-2.62c.72-.12,2.16-.23,2.16-1.24v-9.54ZM2.25,144.65H21.86v-7h2.25v7h6.21v-7h2.25v9.75H23.63l-.6-1.14v-.63H23v.63l-.59,1.14H0v-9.75H2.25v7Zm11-11.25,2,2-2,2L12,136.14l-1.29,1.29-2-2,2-2L12,134.69l1.28-1.29Zm18.06,0,2,2-2,2-2-2,2-2Zm4.23,10.24,2,2-2,2-2-2,2-2Zm7.75-9.19,2-1.51,2.59,2-2.59,2-2-1.51-2,1.51-2.59-2,2.59-2,2,1.51ZM48,147.14H38.49v-5.36A4.55,4.55,0,0,1,43,137.25h.48A4.55,4.55,0,0,1,48,141.78v5.36Zm-3-3.08h-3.6v-2a1.72,1.72,0,0,1,1.71-1.71h.18A1.72,1.72,0,0,1,45.06,142v2Zm4.73-6.75H53.5v6.8H70.93V137.3h3.36v6.81h0v3.29H53.5c.06,2.56-2.08,3.53-5.88,3.3,0-1,0-1.64,0-2.62.72-.12,2.16-.23,2.16-1.24v-9.54Zm13,12.06,2-1.51,2.59,2-2.59,2-2-1.51-2,1.51-2.59-2,2.59-2,2,1.51Zm13.5-15.16,2.59-2,2.6,2-2.6,2-2.59-2Zm41.83-1.3h3.28V147.4H118.1V132.91Z" fill="#005ca7" fill-rule="evenodd"/></g></g></svg>