<svg version="1.1" xmlns="http://www.w3.org/2000/svg" xmlns:xlink="http://www.w3.org/1999/xlink" x="0" y="0" width="560" height="190" viewBox="0, 0, 560, 190"><g id="Layer_1"><g><path d="M50.003,189.344 C44.31,187.461 38.907,182.133 35.082,174.628 C34.197,172.892 33.473,171.344 33.473,171.189 C33.473,170.748 36.138,169.275 36.263,169.648 C36.322,169.824 37.075,171.101 37.938,172.488 C44.416,182.89 53.282,184.033 57.483,175.009 C58.661,172.477 59.224,170.142 59.901,164.975 C60.87,157.575 62.366,148.51 63.036,145.974 C64.914,138.869 68.938,133.263 79.012,123.708 C87.779,115.393 92.004,108.923 92.498,103.055 C92.598,101.873 92.585,100.906 92.47,100.906 C92.355,100.906 91.404,101.663 90.357,102.587 C89.31,103.513 86.864,105.463 84.923,106.921 C79.947,110.659 77.795,112.586 76.322,114.62 C75.619,115.591 74.951,116.386 74.838,116.386 C74.724,116.386 74.086,114.741 73.42,112.73 C72.465,109.852 72.205,108.65 72.2,107.069 C72.189,104.698 72.609,103.756 75.012,100.762 C78.13,96.876 79.731,92.553 79.734,88.006 C79.737,83.167 77.619,78.952 71.434,71.49 C68.678,68.165 60.696,59.627 60.343,59.627 C60.228,59.627 60.166,61.529 60.206,63.855 C60.372,73.516 58.523,80.891 53.278,91.497 C49.929,98.269 49.223,99.9 47.885,103.976 C46.476,108.274 46.032,110.641 45.844,114.86 L45.675,118.638 L44.436,119.859 C43.754,120.53 43.122,121.006 43.032,120.916 C42.635,120.516 42.283,114.75 42.432,111.082 C42.707,104.331 44.295,98.289 48.195,89.153 C55.576,71.863 57.491,65.443 57.096,59.31 C56.931,56.769 56.703,55.976 54.174,49.163 C52.019,43.354 52.628,37.684 55.975,32.399 C56.823,31.06 56.926,30.723 56.672,30.107 C56.508,29.709 55.854,28.201 55.218,26.755 C53.266,22.318 52.782,20.006 52.767,15.05 C52.753,10.453 53.094,8.517 54.445,5.556 C55.617,2.985 58.873,0 60.503,0 C61.657,0 61.483,0.49 59.901,1.688 C56.539,4.236 55.336,8.659 56.487,14.248 C57.68,20.047 60.056,24.152 67.927,34.012 C86.523,57.306 95.875,70.966 103.209,85.544 C107.873,94.816 109.754,99.662 111.689,107.402 C113.682,115.368 114.319,121.977 113.744,128.712 C112.493,143.366 106.642,153.588 96.594,158.673 C89.688,162.168 80.627,162.757 72.505,160.238 C69.562,159.327 69.654,159.53 70.34,155.426 C71.021,151.353 71.512,149.764 72.067,149.825 C72.283,149.85 73.681,150.091 75.173,150.36 C81.775,151.556 88.901,150.079 94.309,146.394 C96.056,145.203 99.242,142.11 100.78,140.113 C103.421,136.684 105.526,132.147 106.762,127.221 C107.673,123.591 108.019,116.18 107.458,112.326 C107.027,109.369 105.523,104.339 103.831,100.189 C97.899,85.647 87.56,70.069 65.212,41.996 C64.207,40.735 62.359,38.317 61.102,36.621 C59.846,34.926 58.723,33.54 58.607,33.54 C58.223,33.54 56.931,35.754 56.444,37.247 C56.099,38.306 56.001,39.344 56.092,40.938 C56.34,45.227 58.139,47.904 67.158,57.394 C72.662,63.186 75.774,66.953 78.519,71.149 C83.62,78.949 85.462,86.752 83.728,93.217 C83.558,93.852 83.473,94.427 83.541,94.495 C83.928,94.882 89.427,89.875 91.083,87.628 C91.645,86.866 92.21,86.357 92.345,86.493 C92.691,86.84 94.484,94.119 95.151,97.881 C96.077,103.113 96.398,106.854 96.22,110.399 C96.031,114.207 95.507,116.076 93.573,119.826 C91.604,123.649 88.991,126.858 81.42,134.753 C73.933,142.56 71.292,145.799 70.347,148.334 C69.405,150.865 68.277,157.155 67.622,163.542 C66.661,172.923 65.743,179.426 65.051,181.772 C64.018,185.272 62.196,187.654 59.55,188.961 C57.87,189.791 57.339,189.908 54.917,189.981 C52.619,190.051 51.833,189.948 50.003,189.344 z M78.677,177.418 C76.515,176.344 74.953,173.991 73.308,169.332 C72.73,167.699 72.603,167.01 72.833,166.779 C73.326,166.283 73.878,166.92 74.565,168.778 C75.425,171.108 76.351,172.633 77.193,173.108 C77.817,173.459 78.035,173.46 78.76,173.114 C79.434,172.79 79.618,172.501 79.688,171.639 C79.856,169.615 80.964,170.669 81.855,173.699 C82.482,175.83 82.44,176.215 81.478,177.18 C80.484,178.179 80.249,178.199 78.677,177.418 z M55.876,169.712 L49.537,164.509 L43.472,171.953 L49.811,177.157 z M38.168,47.926 C38.168,51.047 40.743,53.696 43.916,53.696 C45.341,53.696 46.642,53.17 47.647,52.307 L48.397,51.77 L48.281,53.767 C48.133,56.392 47.151,58.397 44.72,61.032 C42.092,63.881 39.533,65.727 31.189,70.788 C19.788,77.703 15.916,80.424 11.811,84.405 C6.535,89.52 2.856,95.719 1.244,102.214 C-0.958,111.082 -0.252,119.609 3.484,129.428 C4.552,132.237 4.572,132.396 4.734,137.169 C5.162,149.854 8.332,158.581 14.89,165.127 C18.221,168.453 21.268,170.036 25.244,170.53 C26.238,170.653 27.69,170.703 28.475,170.637 C37.998,169.83 42.16,161.922 44.202,140.752 C44.467,137.993 44.829,135.326 45.005,134.822 C45.222,134.204 47.102,132.282 50.788,128.901 C56.59,123.58 57.749,122.067 57.751,119.844 C57.751,118.47 56.584,110.273 56.349,110.008 C56.246,109.891 55.586,110.59 54.886,111.557 C53.713,113.173 49.975,116.821 45.085,121.116 C41.879,123.932 41.281,125.411 40.194,133.173 C38.299,146.702 35.894,153.834 31.858,157.889 C28.129,161.636 22.062,162.582 17.292,160.156 C12.444,157.69 8.855,150.298 8.419,141.899 L8.25,138.602 L10.454,140.672 C13.389,143.423 15.775,144.622 18.327,144.622 C20.732,144.623 21.523,144.387 22.772,143.287 C24.609,141.669 25.476,139.076 25.476,135.189 C25.476,127.425 21.325,118.117 16.792,115.732 C14.963,114.77 12.526,114.863 10.776,115.956 C9.086,117.012 7.418,119.328 6.554,121.832 C6.2,122.859 5.783,123.762 5.626,123.838 C5.099,124.098 4.6,120.576 4.59,116.529 C4.583,113.555 4.738,111.76 5.18,109.596 C6.83,101.505 10.018,95.737 16.319,89.431 C20.58,85.164 24.981,81.803 34.839,75.286 C42.46,70.247 45.716,67.526 47.521,64.697 C48.318,63.448 48.48,63.318 48.557,63.855 C48.829,65.768 46.527,71.694 41.238,82.703 C36.904,91.723 35.547,94.874 33.366,100.924 C30.616,108.555 28.91,115.365 27.913,122.692 C27.274,127.383 27.048,137.055 27.44,143.215 C27.788,148.7 28.997,157.293 29.483,157.782 C29.679,157.978 30.08,157.755 30.733,157.084 L31.706,156.089 L31.189,152.936 C29.276,141.309 30.001,128.897 33.339,116.162 C35.699,107.156 38.532,99.977 45.255,85.999 C51.178,73.686 52.24,69.522 51.958,59.627 C51.723,51.417 50.639,46.624 48.459,44.192 C47.268,42.862 46.007,42.167 44.344,42.167 C40.303,42.167 38.168,44.801 38.168,47.926 z M57.315,156.758 L50.977,151.555 L44.911,158.999 L51.25,164.203 z M57.724,150.894 C54.098,147.401 50.484,142.293 47.864,136.956 L46.774,134.737 L48.038,133.444 C48.733,132.734 49.445,132.152 49.622,132.152 C49.8,132.152 50.446,132.894 51.061,133.8 C52.437,135.83 57.195,140.805 59.831,142.969 C61.568,144.396 61.765,144.657 61.592,145.316 C61.486,145.722 61.098,147.522 60.731,149.314 C60.363,151.107 59.997,152.64 59.916,152.72 C59.836,152.8 58.849,151.979 57.724,150.894 z M96.344,135.7 L88.97,132.121 L84.849,140.677 L92.222,144.254 z M16.782,125.309 C17.335,125.323 17.863,125.462 18.362,125.72 C19.395,126.256 20.91,128.534 20.907,129.554 C20.904,129.957 20.522,130.948 20.058,131.759 C19.401,132.908 18.888,133.395 17.72,133.979 C15.734,134.974 13.361,135.007 11.338,134.061 C9.15,133.037 9.075,132.847 10.044,130.79 C11.655,127.37 14.388,125.243 16.782,125.309 z M72.171,120.182 L64.799,116.604 L60.678,125.158 L68.05,128.736 z M19.08,106.098 C18.045,105.013 17.763,103.635 18.072,101.163 C18.25,99.746 18.635,98.552 19.373,97.147 C21.256,93.548 27.19,88.315 27.19,90.252 C27.19,90.365 25.984,91.702 24.51,93.223 C20.528,97.332 19.222,100.347 20.641,102.157 C21.633,103.423 23.477,103.059 23.477,101.597 C23.477,100.786 24.424,99.604 24.859,99.874 C25.302,100.149 25.277,101.099 24.784,102.746 C23.685,106.408 20.924,108.03 19.08,106.098 z M58.623,102.124 C57.896,99.502 58.118,99.143 65.143,91.539 C68.03,88.413 70.759,85.356 71.207,84.744 C72.08,83.553 72.12,83.579 72.559,85.615 C72.756,86.529 72.708,87.044 72.352,87.83 C72.097,88.392 69.51,91.453 66.604,94.633 C63.698,97.811 60.87,101.032 60.321,101.79 C59.771,102.547 59.231,103.175 59.12,103.183 C59.01,103.192 58.786,102.716 58.623,102.124 z M42.209,57.749 C42.209,60.913 39.614,63.518 36.461,63.518 C33.307,63.518 30.713,60.913 30.713,57.749 C30.713,54.585 33.307,51.98 36.461,51.98 C39.614,51.98 42.209,54.585 42.209,57.749 z" fill="#D4A10F"/><path d="M245.581,99.046 L245.581,154.14 C245.581,154.14 246.461,162.631 240.657,169.003 C232.597,177.854 218.224,170.397 218.224,170.397 L221.284,159.197 C221.284,159.197 223.084,160.462 225.604,160.462 C228.961,160.462 232.262,156.768 232.262,152.514 L232.083,99.046 z M366.138,99.177 L400.346,99.177 L400.346,110.451 L379.285,110.451 L379.285,120.956 L397.027,120.956 L397.027,131.845 L379.157,131.845 L379.157,141.965 L402.005,141.965 L402.005,152.983 L366.138,152.983 z M413.875,99.177 L448.083,99.177 L448.083,110.451 L427.023,110.451 L427.023,120.956 L444.765,120.956 L444.765,131.845 L426.895,131.845 L426.895,141.965 L449.743,141.965 L449.743,152.983 L413.875,152.983 z M353.247,112.756 L333.846,141.325 L353.757,141.325 L353.757,152.983 L315.847,152.983 L315.847,139.403 L335.633,110.451 L316.614,110.451 L316.614,99.177 L353.247,99.177 z M145.974,99.124 L161.095,99.124 L179.488,152.724 L164.875,152.724 L162.186,143.125 L144.325,143.125 L141.079,152.724 L127.252,152.724 z M486.893,99.176 C495.128,99.176 499.908,106.514 499.908,113.944 C499.908,121.374 496.203,123.645 496.203,123.645 C496.203,123.645 493.691,125.709 491.637,127.134 C493.559,127.134 495.316,131.462 495.316,131.462 L503.612,152.724 L489.81,152.699 C489.81,152.699 483.397,135.982 481.769,134.035 C480.387,132.382 478.162,132.735 475.02,132.735 L475.02,152.724 L461.625,152.724 L461.625,99.176 z M272.962,99.124 L288.082,99.124 L306.476,152.724 L291.863,152.724 L289.174,143.125 L271.313,143.125 L268.066,152.724 L254.24,152.724 z M526.487,99.124 L541.607,99.124 L560,152.724 L545.387,152.724 L542.698,143.125 L524.838,143.125 L521.59,152.724 L507.764,152.724 z M188.973,99.177 L202.121,99.177 L202.121,141.325 L219.224,141.325 L219.224,152.599 L188.846,152.599 z M158.355,130.698 L153.307,114.81 L148.233,130.698 z M285.343,130.698 L280.295,114.81 L275.22,130.698 z M538.868,130.698 L533.818,114.81 L528.744,130.698 z M481.413,110.608 L474.944,110.608 L474.944,121.175 L481.515,121.175 C483.974,121.175 486.284,118.717 486.284,115.93 C486.284,113.142 483.827,110.609 481.413,110.608 z" fill="#00529C"/></g></g></svg>
