<svg id="Layer_1" data-name="Layer 1" xmlns="http://www.w3.org/2000/svg" viewBox="0 0 834.45 240.25"><defs><style>.cls-1{fill:#f5333f;}.cls-2{fill:none;stroke:#6e7c7c;stroke-miterlimit:10;stroke-width:1.4px;}.cls-3{fill:#6e7c7c;}</style></defs><polygon class="cls-1" points="63.48 146.36 0 146.36 0 95.13 63.48 95.13 63.48 95.1 63.48 35.34 117.89 35.34 117.89 95.1 117.89 95.13 181.38 95.13 181.38 146.35 117.89 146.35 117.89 206.12 63.48 206.12 63.48 146.35 63.48 146.36"/><path class="cls-1" d="M265.58,119.81c0-39.8,34.28-72.06,76.56-72.06a80.45,80.45,0,0,1,26.75,4.53,95.08,95.08,0,0,0-57-18.63c-50.73,0-91.88,38.7-91.88,86.48s41.15,86.47,91.88,86.47a95.14,95.14,0,0,0,58.53-19.8,80.9,80.9,0,0,1-28.32,5.08c-42.28,0-76.56-32.27-76.56-72.07"/><line class="cls-2" x1="442.15" x2="442.15" y2="240.25"/><path class="cls-1" d="M570.44,54.37c-1.89-8.95-9.51-13.48-18.83-13.48-16,0-22.79,12.41-22.79,25.62C528.82,81,535.6,93,551.7,93c11.77,0,18.55-7.8,19.4-18.26H580C578.35,90.53,567.9,100.1,551,100.1c-20.91,0-31.08-14.53-31.08-33S531,33.8,551.7,33.8c14,0,25.61,7.09,27.68,20.57Z"/><path class="cls-1" d="M590.3,35.31h8V98.6h-8Z"/><path class="cls-1" d="M619.2,44.53h-8V35.31h8Zm-8,8.24h8V98.6h-8Z"/><path class="cls-1" d="M631.62,52.77h7.53v6.74h.19c3.58-5.14,9-7.8,15.73-7.8,5.93,0,11.39,2.21,13.37,7.8a18.3,18.3,0,0,1,15.25-7.8c9.7,0,16.2,3.81,16.2,13.29V98.6h-8v-30c0-5.67-1.6-10.19-9.42-10.19S669.76,63,669.76,70.06V98.6h-8v-30c0-5.94-2-10.19-9.13-10.19a12.74,12.74,0,0,0-13,11.7V98.6h-8Z"/><path class="cls-1" d="M755.05,98.42a11.3,11.3,0,0,1-5.74,1.24c-4.14,0-6.78-2.13-6.78-7.09-4.43,4.88-10.36,7.09-17.14,7.09-8.85,0-16.1-3.72-16.1-12.85,0-10.37,8.19-12.59,16.48-14.09,8.85-1.6,16.38-1.07,16.38-6.74,0-6.56-5.74-7.62-10.83-7.62-6.78,0-11.77,2-12.14,8.68h-8c.47-11.34,9.8-15.33,20.62-15.33,8.76,0,18.27,1.86,18.27,12.59V87.87c0,3.55,0,5.14,2.54,5.14a7.33,7.33,0,0,0,2.45-.44Zm-13-23.49c-3.11,2.13-9.13,2.22-14.5,3.1s-9.79,2.66-9.79,8.25c0,5,4.51,6.73,9.41,6.73,10.55,0,14.88-6.2,14.88-10.37Z"/><path class="cls-1" d="M773.59,52.77h9.7v6.65h-9.7V87.87c0,3.46,1,4.08,6,4.08h3.67V98.6h-6.12c-8.28,0-11.58-1.6-11.58-10V59.42H757.3V52.77h8.29V39h8Z"/><path class="cls-1" d="M833.66,84.06c-2.16,10.11-9.88,15.6-20.81,15.6-15.54,0-22.88-10.1-23.35-24.11,0-13.74,9.6-23.84,22.88-23.84,17.23,0,22.51,15.15,22,26.24H798c-.29,8,4.52,15.06,15.16,15.06,6.59,0,11.2-3,12.61-9ZM825.94,71.3a13.63,13.63,0,0,0-14-12.94c-8.38,0-13.37,5.94-13.93,12.94Z"/><path class="cls-3" d="M570.44,160.71c-1.89-9-9.51-13.47-18.83-13.47-16,0-22.79,12.41-22.79,25.62,0,14.45,6.78,26.5,22.88,26.5,11.77,0,18.55-7.8,19.4-18.26H580c-1.69,15.78-12.14,25.35-29.09,25.35-20.91,0-31.08-14.54-31.08-33S531,140.15,551.7,140.15c14,0,25.61,7.09,27.68,20.56Z"/><path class="cls-3" d="M631.35,190.41c-2.17,10.1-9.89,15.6-20.81,15.6-15.54,0-22.88-10.11-23.35-24.11,0-13.74,9.6-23.85,22.88-23.85,17.23,0,22.5,15.16,22,26.24H595.66c-.28,8,4.52,15.07,15.16,15.07,6.59,0,11.21-3,12.62-9Zm-7.72-12.77a13.64,13.64,0,0,0-14-12.94c-8.38,0-13.37,5.94-13.94,12.94Z"/><path class="cls-3" d="M640.38,159.12h7.53v7.27h.19c3.39-5.68,8.85-8.34,15.82-8.34,12.8,0,16.76,6.92,16.76,16.76v30.13h-8v-31c0-5.58-3.77-9.22-9.89-9.22-9.7,0-14.41,6.12-14.41,14.36v25.88h-8Z"/><path class="cls-3" d="M703.83,159.12h9.7v6.65h-9.7v28.45c0,3.46,1,4.08,6,4.08h3.67v6.64h-6.12c-8.28,0-11.58-1.59-11.58-10V165.77h-8.29v-6.65h8.29V145.38h8Z"/><path class="cls-3" d="M792.59,190.41c-2.17,10.1-9.89,15.6-20.81,15.6-15.54,0-22.88-10.11-23.35-24.11,0-13.74,9.6-23.85,22.88-23.85,17.23,0,22.5,15.16,22,26.24H756.9c-.28,8,4.52,15.07,15.16,15.07,6.59,0,11.21-3,12.62-9Zm-7.72-12.77a13.64,13.64,0,0,0-14-12.94c-8.38,0-13.37,5.94-13.94,12.94Z"/><path class="cls-3" d="M722.17,159.12h7.54v9.66h.18c3.86-7.36,9.23-11,17.9-10.73v8c-12.91,0-17.61,6.92-17.61,18.53v20.38h-8Z"/></svg>