<svg xmlns="http://www.w3.org/2000/svg" viewBox="0 0 120.29 112.33"><g id="Layer_2" data-name="Layer 2"><g id="Layer_1-2" data-name="Layer 1"><polygon points="60.37 0.51 62.73 0.57 65.05 0.74 67.33 1.03 69.58 1.44 71.8 1.95 73.97 2.57 76.09 3.29 78.17 4.1 80.19 5.02 82.16 6.03 84.08 7.13 85.93 8.31 87.72 9.6 89.45 10.95 91.11 12.39 92.7 13.9 94.21 15.49 95.65 17.15 97 18.88 98.28 20.66 99.47 22.52 100.57 24.44 101.58 26.41 102.49 28.43 103.31 30.51 104.03 32.63 104.65 34.8 105.16 37.01 105.56 39.27 105.85 41.55 106.03 43.87 106.09 46.23 106.03 48.58 105.85 50.9 105.56 53.19 105.16 55.44 104.65 57.65 104.03 59.82 103.31 61.94 102.49 64.02 101.58 66.04 100.57 68.02 99.47 69.93 98.28 71.79 97 73.58 95.65 75.3 94.21 76.97 92.7 78.55 91.11 80.07 89.45 81.5 87.72 82.86 85.93 84.14 84.08 85.33 82.16 86.42 80.19 87.43 78.17 88.35 76.09 89.17 73.97 89.89 71.8 90.5 69.58 91.01 67.33 91.42 65.05 91.71 62.73 91.89 60.37 91.94 58.02 91.89 55.7 91.71 53.41 91.42 51.16 91.01 48.95 90.5 46.78 89.89 44.66 89.17 42.58 88.35 40.55 87.43 38.58 86.42 36.67 85.33 34.81 84.14 33.02 82.86 31.3 81.5 29.63 80.07 28.04 78.55 26.53 76.97 25.09 75.3 23.74 73.58 22.46 71.79 21.27 69.93 20.18 68.02 19.16 66.04 18.25 64.02 17.43 61.94 16.71 59.82 16.09 57.65 15.59 55.44 15.18 53.19 14.89 50.9 14.71 48.58 14.65 46.23 14.71 43.87 14.89 41.55 15.18 39.27 15.59 37.01 16.09 34.8 16.71 32.63 17.43 30.51 18.25 28.43 19.16 26.41 20.18 24.44 21.27 22.52 22.46 20.66 23.74 18.88 25.09 17.15 26.53 15.49 28.04 13.9 29.63 12.39 31.3 10.95 33.02 9.6 34.81 8.31 36.67 7.13 38.58 6.03 40.55 5.02 42.58 4.1 44.66 3.29 46.78 2.57 48.95 1.95 51.16 1.44 53.41 1.03 55.7 0.74 58.02 0.57 60.37 0.51" fill="#fdfdfd" fill-rule="evenodd"/><polygon points="60.37 0.51 62.73 0.57 65.05 0.74 67.33 1.03 69.58 1.44 71.8 1.95 73.97 2.57 76.09 3.29 78.17 4.1 80.19 5.02 82.16 6.03 84.08 7.13 85.93 8.31 87.72 9.6 89.45 10.95 91.11 12.39 92.7 13.9 94.21 15.49 95.65 17.15 97 18.88 98.28 20.66 99.47 22.52 100.57 24.44 101.58 26.41 102.49 28.43 103.31 30.51 104.03 32.63 104.65 34.8 105.16 37.01 105.56 39.27 105.85 41.55 106.03 43.87 106.09 46.23 106.03 48.58 105.85 50.9 105.56 53.19 105.16 55.44 104.65 57.65 104.03 59.82 103.31 61.94 102.49 64.02 101.58 66.04 100.57 68.02 99.47 69.93 98.28 71.79 97 73.58 95.65 75.3 94.21 76.97 92.7 78.55 91.11 80.07 89.45 81.5 87.72 82.86 85.93 84.14 84.08 85.33 82.16 86.42 80.19 87.43 78.17 88.35 76.09 89.17 73.97 89.89 71.8 90.5 69.58 91.01 67.33 91.42 65.05 91.71 62.73 91.89 60.37 91.94 58.02 91.89 55.7 91.71 53.41 91.42 51.16 91.01 48.95 90.5 46.78 89.89 44.66 89.17 42.58 88.35 40.55 87.43 38.58 86.42 36.67 85.33 34.81 84.14 33.02 82.86 31.3 81.5 29.63 80.07 28.04 78.55 26.53 76.97 25.09 75.3 23.74 73.58 22.46 71.79 21.27 69.93 20.18 68.02 19.16 66.04 18.25 64.02 17.43 61.94 16.71 59.82 16.09 57.65 15.59 55.44 15.18 53.19 14.89 50.9 14.71 48.58 14.65 46.23 14.71 43.87 14.89 41.55 15.18 39.27 15.59 37.01 16.09 34.8 16.71 32.63 17.43 30.51 18.25 28.43 19.16 26.41 20.18 24.44 21.27 22.52 22.46 20.66 23.74 18.88 25.09 17.15 26.53 15.49 28.04 13.9 29.63 12.39 31.3 10.95 33.02 9.6 34.81 8.31 36.67 7.13 38.58 6.03 40.55 5.02 42.58 4.1 44.66 3.29 46.78 2.57 48.95 1.95 51.16 1.44 53.41 1.03 55.7 0.74 58.02 0.57 60.37 0.51" fill="none" stroke="#ed0000" stroke-miterlimit="22.93" stroke-width="1.02"/><polygon points="60.37 16.29 61.91 16.33 63.44 16.44 64.93 16.63 66.41 16.9 67.85 17.23 69.28 17.64 70.66 18.1 72.02 18.64 73.35 19.24 74.64 19.9 75.89 20.62 77.11 21.4 78.28 22.24 79.41 23.13 80.5 24.07 81.54 25.06 82.53 26.1 83.47 27.18 84.36 28.32 85.2 29.49 85.97 30.7 86.69 31.96 87.36 33.25 87.96 34.57 88.49 35.93 88.96 37.32 89.37 38.75 89.7 40.19 89.97 41.67 90.16 43.16 90.27 44.68 90.31 46.23 90.27 47.77 90.16 49.29 89.97 50.79 89.7 52.26 89.37 53.71 88.96 55.13 88.49 56.52 87.96 57.88 87.36 59.2 86.69 60.49 85.97 61.75 85.2 62.96 84.36 64.14 83.47 65.27 82.53 66.35 81.54 67.39 80.5 68.39 79.41 69.32 78.28 70.22 77.11 71.05 75.89 71.83 74.64 72.55 73.35 73.21 72.02 73.81 70.66 74.35 69.28 74.82 67.85 75.22 66.41 75.55 64.93 75.82 63.44 76.01 61.91 76.13 60.37 76.17 58.83 76.13 57.31 76.01 55.81 75.82 54.34 75.55 52.89 75.22 51.47 74.82 50.08 74.35 48.72 73.81 47.39 73.21 46.1 72.55 44.85 71.83 43.63 71.05 42.46 70.22 41.33 69.32 40.24 68.39 39.2 67.39 38.21 66.35 37.27 65.27 36.38 64.14 35.55 62.96 34.77 61.75 34.04 60.49 33.39 59.2 32.79 57.88 32.25 56.52 31.78 55.13 31.38 53.71 31.04 52.26 30.78 50.79 30.59 49.29 30.47 47.77 30.43 46.23 30.47 44.68 30.59 43.16 30.78 41.67 31.04 40.19 31.38 38.75 31.78 37.32 32.25 35.93 32.79 34.57 33.39 33.25 34.04 31.96 34.77 30.7 35.55 29.49 36.38 28.32 37.27 27.18 38.21 26.1 39.2 25.06 40.24 24.07 41.33 23.13 42.46 22.24 43.63 21.4 44.85 20.62 46.1 19.9 47.39 19.24 48.72 18.64 50.08 18.1 51.47 17.64 52.89 17.23 54.34 16.9 55.81 16.63 57.31 16.44 58.83 16.33 60.37 16.29" fill="#fdfdfd" fill-rule="evenodd"/><polygon points="60.37 16.29 61.91 16.33 63.44 16.44 64.93 16.63 66.41 16.9 67.85 17.23 69.28 17.64 70.66 18.1 72.02 18.64 73.35 19.24 74.64 19.9 75.89 20.62 77.11 21.4 78.28 22.24 79.41 23.13 80.5 24.07 81.54 25.06 82.53 26.1 83.47 27.18 84.36 28.32 85.2 29.49 85.97 30.7 86.69 31.96 87.36 33.25 87.96 34.57 88.49 35.93 88.96 37.32 89.37 38.75 89.7 40.19 89.97 41.67 90.16 43.16 90.27 44.68 90.31 46.23 90.27 47.77 90.16 49.29 89.97 50.79 89.7 52.26 89.37 53.71 88.96 55.13 88.49 56.52 87.96 57.88 87.36 59.2 86.69 60.49 85.97 61.75 85.2 62.96 84.36 64.14 83.47 65.27 82.53 66.35 81.54 67.39 80.5 68.39 79.41 69.32 78.28 70.22 77.11 71.05 75.89 71.83 74.64 72.55 73.35 73.21 72.02 73.81 70.66 74.35 69.28 74.82 67.85 75.22 66.41 75.55 64.93 75.82 63.44 76.01 61.91 76.13 60.37 76.17 58.83 76.13 57.31 76.01 55.81 75.82 54.34 75.55 52.89 75.22 51.47 74.82 50.08 74.35 48.72 73.81 47.39 73.21 46.1 72.55 44.85 71.83 43.63 71.05 42.46 70.22 41.33 69.32 40.24 68.39 39.2 67.39 38.21 66.35 37.27 65.27 36.38 64.14 35.55 62.96 34.77 61.75 34.04 60.49 33.39 59.2 32.79 57.88 32.25 56.52 31.78 55.13 31.38 53.71 31.04 52.26 30.78 50.79 30.59 49.29 30.47 47.77 30.43 46.23 30.47 44.68 30.59 43.16 30.78 41.67 31.04 40.19 31.38 38.75 31.78 37.32 32.25 35.93 32.79 34.57 33.39 33.25 34.04 31.96 34.77 30.7 35.55 29.49 36.38 28.32 37.27 27.18 38.21 26.1 39.2 25.06 40.24 24.07 41.33 23.13 42.46 22.24 43.63 21.4 44.85 20.62 46.1 19.9 47.39 19.24 48.72 18.64 50.08 18.1 51.47 17.64 52.89 17.23 54.34 16.9 55.81 16.63 57.31 16.44 58.83 16.33 60.37 16.29" fill="none" stroke="#ed0000" stroke-miterlimit="22.93" stroke-width="1.02"/><polygon points="63.85 82.02 61.7 84.27 62.52 87.92 60.37 85.66 58.22 87.92 59.05 84.27 56.9 82.02 59.55 82.02 60.37 78.38 61.19 82.02 63.85 82.02" fill="#ed0000" fill-rule="evenodd"/><path d="M53,80.26a3.44,3.44,0,0,0-1-2.45c-1.5-1.28-3-.3-4.05,1l.1.16a5.33,5.33,0,0,1,1.35-1.16,2,2,0,0,1,2.6,1,6.61,6.61,0,0,1-2.19,6.76,1.63,1.63,0,0,1-1.83.08c-.7-.3-.74-1.09-.88-1.72,0,.15,0-.37,0-.46s0-.47,0-.71L47,82.74l-.71,3,.16.05a1.38,1.38,0,0,1,.37-.49c.24-.16.74.6,1,.75a2.08,2.08,0,0,0,1.21.37,3.2,3.2,0,0,0,2.32-1.15A7.23,7.23,0,0,0,53,80.26Z" fill="#ed0000" fill-rule="evenodd"/><path d="M46.85,77.24a3.08,3.08,0,0,0-.63-1.6,2,2,0,0,0-1.31-.77,3.13,3.13,0,0,0-1.48.21,5.25,5.25,0,0,0-1.5,1c-1.49,1.49-2.7,4.19-1.78,6.27s3.42,1.32,4.72.06a6.67,6.67,0,0,0,2-5.17Zm-.76,0a9.94,9.94,0,0,1-1.22,3.42,4.75,4.75,0,0,1-2.37,2.46,1.51,1.51,0,0,1-1.88-1.73,8.59,8.59,0,0,1,1.07-3.26,5.49,5.49,0,0,1,2.38-2.67,1.48,1.48,0,0,1,1.55.22,2,2,0,0,1,.47,1.56Z" fill="#ed0000" fill-rule="evenodd"/><path d="M36.89,81.07l-1.33-1,1.38-7.83-3.36,4.18-.12.15c-.75,1-.2,1.33-.2,1.33l.16.13-.16.19-1.69-1.36.15-.18.19.13s.54.37,1.25-.5l.11-.14L38.16,70l.14.1-1.47,8.42,3.81-4.77s.15-.17.19-.23a.61.61,0,0,0-.11-.94l-.16-.13.16-.21,1.7,1.36-.16.2-.26-.2c-.4-.32-.86.2-.86.2l-.11.1-4.35,5.43s-.24.89.13,1.31c0,0,0,.07,0,.07l.08.08.1.08Z" fill="#ed0000" fill-rule="evenodd"/><path d="M35.27,66.78l-7.43,3.34-.16,0-.16.08-.14,0-.16,0a.61.61,0,0,1-.18.05h0a.86.86,0,0,1-.24,0h-.16a.56.56,0,0,1-.31-.12l-.1-.06-.2.15,1.22,1.49.2-.15a.75.75,0,0,1-.15-.46h0v0a.64.64,0,0,1,.33-.55l0,0a3.68,3.68,0,0,1,.35-.15h0l.12-.08.16-.08.18-.08L33.55,68l-3.16,4.67-.1.16-.08.13-.08.1a.47.47,0,0,1-.06.09,1.68,1.68,0,0,1-.3.4.7.7,0,0,1-.16.1h0a.64.64,0,0,1-.23,0h-.06a.54.54,0,0,1-.46-.27l0,0h0l-.2.16,1.64,1.95.18-.15,0-.09a.65.65,0,0,1-.11-.53v0l0-.1h0a.62.62,0,0,1,.08-.24,1.07,1.07,0,0,1,.2-.38.61.61,0,0,1,.12-.16l0,0a5.58,5.58,0,0,1,.51-.69l4.15-6.15Z" fill="#ed0000" fill-rule="evenodd"/><path d="M30.94,60l-2.32.68.08.15.21,0,.6-.08a2.69,2.69,0,0,1,1,.05s.3,0,.73.75c.14.22.52.9.52.9s.12.58-.57.93l-.13.08L28.31,65l-.65-1.2-.05-.08h0l-.06-.08h0a.69.69,0,0,1-.05-.13h0a.7.7,0,0,1,0-.14h0v-.14h0a.73.73,0,0,1,.18-.4,1.92,1.92,0,0,1,.46-.37l.15-.09.16-.08-.11-.16-2.87,1.59.08.16.18-.1,0,0,.12-.06a1,1,0,0,1,.52-.17h.08a.56.56,0,0,1,.23,0h0l.16.1,0,0,.07.08.06.07.08.11.05.1.68,1.2L24.6,67l-.83-1.49-.05-.1,0-.1-.05-.08a.55.55,0,0,1,0-.6,1.21,1.21,0,0,1,.18-.31l.47-.42.13-.11.15-.1-.1-.16-1.77,1.07L25,68.82l.22-.13a.73.73,0,0,1-.17-.76h0a.7.7,0,0,1,.19-.29.1.1,0,0,1,.05,0,5.12,5.12,0,0,1,.62-.31l.14-.08,5.34-2.93.13-.08.12-.08s.75-.43,1.14-.11c0,0,.25.37.25.37l.23-.13Z" fill="#ed0000" fill-rule="evenodd"/><path d="M21.73,62.71l-.41-1.26c0-.11-.15-.28-.06-.37l.35-.38,2.24-2.41,2.77-3L21.53,57a2.39,2.39,0,0,0-1,.49.49.49,0,0,0-.12.46l.06.24c0,.09,0,.09,0,.12l-.16.06-.38-1.16-.28-.83c0-.1,0-.08.09-.12s.12,0,.13,0l.06.17c.28.75,1.1.35,1.65.17l5.27-1.74,1.66-.55.35-.11a.66.66,0,0,1,.05.15l-.06.07-2.23,2.41-3.47,3.75,0,0,5.26-1.74a6,6,0,0,0,.95-.37.63.63,0,0,0,.31-.42,1,1,0,0,0-.11-.52,1.29,1.29,0,0,1,.26-.08.92.92,0,0,1,.08.25l.25.76.2.59.12.38c0,.11,0,.09-.1.12s-.1.06-.12,0l-.05-.13a2.1,2.1,0,0,0-.13-.26.52.52,0,0,0-.48-.19,3,3,0,0,0-.93.21L23.16,61l-.63.21c-.06,0-.12.11-.17.16a1.63,1.63,0,0,0-.23.29,1.44,1.44,0,0,0-.21.6.66.66,0,0,0,0,.31c0,.06.05.1,0,.12Z" fill="#ed0000" fill-rule="evenodd"/><path d="M18.58,49.18l9.31,2.92-.18-1.32a11.12,11.12,0,0,0-.18-1.29,1.09,1.09,0,0,0-.7-.87,4.33,4.33,0,0,0-1.18-.23l-.23,0s0-.15,0-.16h1.05l1.43,0s.32,2.44.34,2.62l.23,1.76.07.53c0,.16,0,.12-.17.16s-.34-.08-.48-.12l-1.21-.39L20,50.63l-.7-.23c.1.8.18,1.6.36,2.39a.91.91,0,0,0,.85.59l.58,0h.28c.17,0,.14,0,.17.19l-1.38.1-.82.07c-.07,0-.17.05-.18,0l-.39-3.14Z" fill="#ed0000" fill-rule="evenodd"/><path d="M27.74,44.57h.2c.11,0,.06.14.06.24v1.95c0,.14,0,.29,0,.43s-.26.06-.27,0,0-.38-.1-.55a1,1,0,0,0-.74-.29,18.12,18.12,0,0,0-1.95,0l-4,0h-.92a2.65,2.65,0,0,0-.74.06.68.68,0,0,0-.47.37.83.83,0,0,0,0,.38c0,.12-.07.08-.16.08s-.09-.06-.09-.18V44.69c0-.12,0-.19.1-.18s.16,0,.17.1a.7.7,0,0,0,.1.51.85.85,0,0,0,.52.25,8.54,8.54,0,0,0,1.75.06l3.82,0H26a7.22,7.22,0,0,0,.93,0,1.08,1.08,0,0,0,.67-.24.9.9,0,0,0,.19-.65S27.74,44.83,27.74,44.57Z" fill="#ed0000" fill-rule="evenodd"/><path d="M19.49,40.19c0,1.26,1.06,1.92,2.17,2.27a9.45,9.45,0,0,0,4.41.46c1-.17,2-.83,1.8-2s-2-1.94-3.06-2.19C23.4,38.42,19.9,38,19.49,40.19ZM19.05,40c.23-1.54,2-2.19,3.31-2.34a6.86,6.86,0,0,1,4.38,1c1.18.8,2.18,2.22,1.32,3.63s-2.59,1.57-4,1.57a7,7,0,0,1-3.38-1C19.73,42.38,18.74,41.13,19.05,40Z" fill="#ed0000" fill-rule="evenodd"/><path d="M19.91,35.23l.6-1.59,7.85-1.2-5-1.83a5,5,0,0,0-.66-.2l-.36-.09c-.24-.05-.4.32-.45.39a.79.79,0,0,0-.1.27l-.23-.1.73-2,.24.08c-.16.4-.16.79.27,1a7.35,7.35,0,0,0,.77.32l2.51.92,4.76,1.74,0,.16-8.45,1.3,5.3,1.93a6,6,0,0,0,.85.25.58.58,0,0,0,.51-.06,1.22,1.22,0,0,0,.3-.5l.24.08-.76,2L28.52,38a1.55,1.55,0,0,0,.08-.23.51.51,0,0,0-.22-.71c-.18-.08-.34-.18-.52-.24l-.68-.26L24,35.41c-.79-.29-1.59-.57-2.38-.87a.88.88,0,0,0-.73,0,1.05,1.05,0,0,0-.68.75Z" fill="#ed0000" fill-rule="evenodd"/><path d="M24.53,25.87l3.18,1.93L28.2,27a2.93,2.93,0,0,0,.37-.67.66.66,0,0,0,0-.34.7.7,0,0,0-.19-.33,2.47,2.47,0,0,0-.65-.55l.08-.16,2.82,1.7-.08.15c-.42-.2-1-.58-1.46-.21a2.63,2.63,0,0,0-.44.61l-.53.88L30,29.16l.82.5.26.17a2.87,2.87,0,0,0,.4.18c.17.06.36,0,.42-.06s.21-.31.31-.48a6.89,6.89,0,0,0,.6-1.06,1.22,1.22,0,0,0-.19-1.07,9.68,9.68,0,0,0-.7-1l.11-.15,1.74,1.7L31.23,32,31,31.89a1.16,1.16,0,0,0,.18-.57.79.79,0,0,0-.24-.48,1.37,1.37,0,0,0-.21-.15l-.29-.19-.27-.16-2.56-1.55-2.54-1.52a5,5,0,0,0-.81-.46.63.63,0,0,0-.52,0,1,1,0,0,0-.38.47l-.21-.13L25.65,23l1.8,1-.08.15a5.48,5.48,0,0,0-.88-.33,1.3,1.3,0,0,0-.44,0,.9.9,0,0,0-.23.08c-.08,0-.08.07-.17.17a7.89,7.89,0,0,0-.51.77Z" fill="#ed0000" fill-rule="evenodd"/><path d="M36.24,23.78a2.34,2.34,0,0,0,1-.69,1.91,1.91,0,0,0,.4-1.12,2.47,2.47,0,0,0,0-.61,5.69,5.69,0,0,0-.16-.59,4.11,4.11,0,0,0-.57-1.1,7.65,7.65,0,0,0-.78-1c-.32-.31-.63-.62-1-.9a4.82,4.82,0,0,0-2.19-1,2.3,2.3,0,0,0-1.19.12c-.08,0-.15.09-.23.13a.76.76,0,0,0-.25.18,5.07,5.07,0,0,0-.37.44c0,.05-.29.42-.25.46l.14.15.81.82,4.57,4.65Zm-.81,1.75-.19-.18a1,1,0,0,0,.37-.47.82.82,0,0,0-.15-.53,1.87,1.87,0,0,0-.4-.49l-.21-.22-2.11-2.15-2-2.09c-.07-.07-.13-.15-.21-.22a2,2,0,0,0-.47-.41c-.15-.08-.34-.2-.52-.14A1.33,1.33,0,0,0,29,19l-.16-.19c.62-.61,1.22-1.26,1.87-1.84A3.39,3.39,0,0,1,33,15.83a4.18,4.18,0,0,1,2.33.81,11.08,11.08,0,0,1,1,.8,5.76,5.76,0,0,1,.86.92,12.09,12.09,0,0,1,.71,1.05,5.06,5.06,0,0,1,.46,1.19,5.78,5.78,0,0,1,.08.6,1.84,1.84,0,0,1,0,.62A2.84,2.84,0,0,1,38,23c-.18.21-.33.43-.53.63l-.56.54Z" fill="#ed0000" fill-rule="evenodd"/><path d="M42.47,19.12l.15.2-2.16,1.57-.16-.21c.31-.22.58-.53.38-.93a8.42,8.42,0,0,0-.52-.8l-1.72-2.43L36.73,14.1a5.46,5.46,0,0,0-.56-.71.76.76,0,0,0-1.06,0L35,13.2l2.17-1.54.16.2c-.17.13-.34.21-.4.42a.6.6,0,0,0,.05.54,4.75,4.75,0,0,0,.47.78L39.18,16l1.7,2.38a5.29,5.29,0,0,0,.55.7.62.62,0,0,0,.49.23.44.44,0,0,0,.28-.05A2.53,2.53,0,0,0,42.47,19.12Z" fill="#ed0000" fill-rule="evenodd"/><path d="M46,7.12l1.25,2.56-.13.08c-.14-.16-.26-.33-.4-.49a2.24,2.24,0,0,0-.42-.45,5.08,5.08,0,0,0-.53-.38,2.55,2.55,0,0,0-.55-.19,1.52,1.52,0,0,0-1.08.18l-.26.17a1.18,1.18,0,0,0-.26.24,1.53,1.53,0,0,0-.31.52,4.4,4.4,0,0,0,0,2.54,7.3,7.3,0,0,0,1,2.28A5,5,0,0,0,46.09,16a2.06,2.06,0,0,0,2.31-.29c.15-.14.35-.33.27-.52-.3-.78-.65-1.54-1-2.31a8,8,0,0,0-.38-.78.69.69,0,0,0-.39-.3,1.16,1.16,0,0,0-.54.11l-.11-.24,2.25-.94.1.24c-.78.22-.29,1.11-.08,1.59l1,2.43a2.45,2.45,0,0,1-1.85,1.64,4.16,4.16,0,0,1-1.21.21,3.08,3.08,0,0,1-1.22-.33,2.22,2.22,0,0,1-.52-.34c-.16-.14-.34-.25-.49-.4a6.18,6.18,0,0,1-.84-1,6.62,6.62,0,0,1-.94-2.34,11.24,11.24,0,0,1-.15-1.3,3.35,3.35,0,0,1,0-.63,2.57,2.57,0,0,1,.08-.62A3.2,3.2,0,0,1,43,8.74,2.56,2.56,0,0,1,44,8a2.28,2.28,0,0,1,.86-.18,3.86,3.86,0,0,0,1,0c.07,0,.06-.22,0-.35l-.06-.22C45.85,7.17,46,7.15,46,7.12Z" fill="#ed0000" fill-rule="evenodd"/><path d="M53,14.38l.05.26-2.58.65-.08-.23c.37-.08.78-.31.68-.77,0-.2,0-.41-.1-.61s-.13-.5-.2-.75L50,10c-.24-.94-.46-1.89-.72-2.83-.09-.32-.25-.78-.65-.83a1.73,1.73,0,0,0-.45.08l-.08-.26,2.58-.65.08.23c-.4.1-.67.26-.68.71a5.24,5.24,0,0,0,.28,1.35l.74,2.92c.24.94.49,1.88.73,2.82a2.06,2.06,0,0,0,.29.72A.72.72,0,0,0,53,14.38Z" fill="#ed0000" fill-rule="evenodd"/><path d="M52.17,5.34l1.69-.17,4.57,6.49-.6-5.32a4.36,4.36,0,0,0-.06-.49,1.32,1.32,0,0,0-.13-.47.65.65,0,0,0-.35-.32,1.3,1.3,0,0,0-.48,0l0-.27L59,4.59l0,.23a1,1,0,0,0-.55.18.72.72,0,0,0-.23.53,8.31,8.31,0,0,0,.07.86l.3,2.72.54,5-.15,0L54,7.09l.62,5.6a6.36,6.36,0,0,0,.16.89.68.68,0,0,0,.33.44.66.66,0,0,0,.25,0l.31,0,0,.26-2.16.24,0-.27.3,0a.58.58,0,0,0,.25-.12.94.94,0,0,0,.16-.23c0-.1,0-.19.07-.29a2,2,0,0,0,0-.6c0-.09,0-.19,0-.28l-.33-3-.34-3.13s0-.14,0-.18a3.57,3.57,0,0,0-.38-.49,1.32,1.32,0,0,0-.48-.29.86.86,0,0,0-.27,0h-.17s0-.12-.05-.15Z" fill="#ed0000" fill-rule="evenodd"/><path d="M62.62,5.27,62.34,9l.94.07a3.4,3.4,0,0,0,.78,0c.57-.07.67-.82.73-1.28h.15l-.23,3.29-.18,0c0-.14,0-.29,0-.44a2.32,2.32,0,0,0,0-.38,1.15,1.15,0,0,0-.15-.37A1.2,1.2,0,0,0,64,9.68a.89.89,0,0,0-.35-.08l-.37,0-1-.08-.23,2.93c0,.12,0,.25,0,.38a1.75,1.75,0,0,0,0,.56.55.55,0,0,0,.1.22c.07.08.14.07.25.09s.43.05.64.06a8.69,8.69,0,0,0,.88.07,1.4,1.4,0,0,0,.69-.24,1.33,1.33,0,0,0,.28-.3c.08-.12.16-.26.23-.39s.15-.25.21-.4.12-.26.18-.39l.18,0-.73,2.3L60.15,14l0-.26a.83.83,0,0,0,.56-.06.49.49,0,0,0,.22-.18.66.66,0,0,0,.12-.27,4.33,4.33,0,0,0,.1-.89l.24-3,.24-3c0-.3,0-.6,0-.91a.65.65,0,0,0-.22-.5,1.1,1.1,0,0,0-.59-.14l0-.26L65.7,5l-.1,2.06-.18,0c0-.55,0-1.42-.7-1.57A14.64,14.64,0,0,0,62.62,5.27Z" fill="#ed0000" fill-rule="evenodd"/><path d="M74.38,7l-.07.26a1.24,1.24,0,0,0-1,.62c-.14.19-.24.41-.36.61L71.45,11l-2.54,4.28-.18-.06L68.62,9.4l-.05-2.31a.66.66,0,0,0,0-.14c0-.22,0-.39,0-.59a1.66,1.66,0,0,0-.18-.53.89.89,0,0,0-.44-.3L68,5.29,70.45,6l-.06.24a.86.86,0,0,0-.55,0,.65.65,0,0,0-.29.43,3.36,3.36,0,0,0-.07,1l.07,2.84.06,2.78L72.42,8.6l.18-.33a1.74,1.74,0,0,1,.1-.19,2.67,2.67,0,0,0,.12-.24,1.47,1.47,0,0,0,.11-.46A.64.64,0,0,0,72.77,7c-.07-.06-.25-.14-.31-.2l.05-.24Z" fill="#ed0000" fill-rule="evenodd"/><path d="M75.69,12.62a2,2,0,0,0,1.16.34A1.68,1.68,0,0,0,78,12.42a3.35,3.35,0,0,0,.67-1.1,2.16,2.16,0,0,0,.14-1.23,1.18,1.18,0,0,0-.28-.53c-.07-.05-.14-.15-.23-.18L78,9.24l-.28-.07-.26,0-.15.3-1.53,3ZM77.49,19,76,18.2l.1-4.9a1.88,1.88,0,0,1-.3-.12A.78.78,0,0,1,75.5,13L74.28,15.4c-.06.12-.1.25-.16.37a4.93,4.93,0,0,0-.22.53,1,1,0,0,0,.06.5c.05.16.34.27.47.33l-.12.24-2.38-1.2.11-.24a1.06,1.06,0,0,0,.54.16.76.76,0,0,0,.48-.29,2.41,2.41,0,0,0,.32-.54l.13-.27,1.35-2.68,1.32-2.62c.14-.28.25-.55.37-.84s-.13-.72-.5-.89l.11-.24,2.36,1.21a2.61,2.61,0,0,1,1,.75,3.11,3.11,0,0,1,.22.53,1.9,1.9,0,0,1,.06.63A3,3,0,0,1,79,12.79l-.41.38a2.15,2.15,0,0,1-1.59.39l0,2.89a7.77,7.77,0,0,0,0,1.08,1.68,1.68,0,0,0,.48,1,1.57,1.57,0,0,1,.19.15S77.51,18.91,77.49,19Z" fill="#ed0000" fill-rule="evenodd"/><path d="M83.86,19.09l1.44-3.6-3.16,2.3Zm-.2.47L81.87,18.2c-.19-.14-.16-.09-.38.06-.38.27-.77.52-1.12.82s-.72.55-.56.94a4.24,4.24,0,0,0,.29.4l-.14.21-1.53-1.19s0-.07,0-.09.08-.13.25-.08a.66.66,0,0,0,.46,0,2.34,2.34,0,0,0,.55-.27c.71-.48,1.4-1,2.09-1.51l4.44-3.26c.06,0,.42-.35.46-.32s.11.12,0,.3l-.54,1.35-1,2.59L84,21.1c-.19.47-.9,1.78-.21,2.16l-.15.21L81.7,22l.13-.15c.07-.09.26.08.35.11.27.12.54-.18.64-.38C83.14,20.89,83.39,20.22,83.66,19.56Z" fill="#ed0000" fill-rule="evenodd"/><path d="M89.71,27.76l-1.7.67-2.16-3a.79.79,0,0,1,.58-.15h1c.62,0,1.26,0,1.88-.09a7.2,7.2,0,0,0,3.3-1c.63-.43,1.41-1.14,1.2-2a1.06,1.06,0,0,0-1-.72,2,2,0,0,0-.81.12,2.44,2.44,0,0,0-.34.14s-.1-.11-.12-.14c.84-.44,2.25-1.13,3-.22A2,2,0,0,1,94,24.13a5.58,5.58,0,0,1-3,1.25c-.62.09-1.26.11-1.89.16a14.7,14.7,0,0,1-1.88.09c.38.52.75,1,1.11,1.56a1,1,0,0,0,.66.47,1.7,1.7,0,0,0,.45,0C89.61,27.62,89.62,27.67,89.71,27.76Z" fill="#ed0000" fill-rule="evenodd"/><path d="M92,32l-1.77.44-1.72-3.27c.12-.07.19-.13.32-.1.31.06.63.11.94.15.59.08,1.19.09,1.78.16A7.89,7.89,0,0,0,95,29c.77-.29,2-1,1.78-2a1.1,1.1,0,0,0-.92-.84,2.51,2.51,0,0,0-.82,0l-.36.08s0-.13-.07-.17c.93-.35,2.46-.76,3.1.3s-.23,2.13-1.07,2.66c-2,1.25-4.61.57-6.79.46.3.57.59,1.14.91,1.69a1,1,0,0,0,.62.56,1.39,1.39,0,0,0,.41,0C91.91,31.81,91.9,31.85,92,32Z" fill="#ed0000" fill-rule="evenodd"/><path d="M96,38.53l3.36-1.93-3.89-.15Zm-.45.25-.6-2.35-1.79-.06a1.4,1.4,0,0,0-.41,0,.43.43,0,0,0-.19,0l-.19.1c-.2.13-.17.51-.12.71l-.24.07-.49-1.91.25-.07c0,.08.1.16.15.24a1.21,1.21,0,0,0,.2.19,1.06,1.06,0,0,0,.56.11c.31,0,.63.06,1,.08l2.59.1,5.24.21,0,.15-5.12,2.94-1.78,1c-.51.29-1.39.7-1.23,1.42l-.23.07-.6-2.41.23-.06a.65.65,0,0,0,.5.51c.09,0,.27,0,.36-.08a3,3,0,0,0,.37-.16,6.24,6.24,0,0,0,.66-.38Z" fill="#ed0000" fill-rule="evenodd"/><path d="M102.71,47.09l-2.83.29v-.15a4.61,4.61,0,0,0,1.59-.73,1.75,1.75,0,0,0,.69-1.54,1.87,1.87,0,0,0-.8-1.35,4.28,4.28,0,0,0-1.58-.6,8,8,0,0,0-3.6.13,5.82,5.82,0,0,0-1.59.71,2,2,0,0,0-.91,1.39,2.23,2.23,0,0,0,.54,1.49l2.59-.11a2.68,2.68,0,0,0,.9-.1.63.63,0,0,0,.34-.32,2.2,2.2,0,0,0,0-.44l.26,0,.1,2.41-.27,0c.09-.7-.7-.64-1.15-.66-.65,0-1.31,0-2,.06l-1,0c-.17,0-.3-.34-.41-.52a4.54,4.54,0,0,1-.37-.77,3.17,3.17,0,0,1-.15-.87,3.11,3.11,0,0,1,.37-1.61,3.51,3.51,0,0,1,.54-.68,4.24,4.24,0,0,1,.69-.51,6.44,6.44,0,0,1,3.44-.82,3.65,3.65,0,0,1,.87.12,4.88,4.88,0,0,1,.86.19,5.65,5.65,0,0,1,1.62.83,2.83,2.83,0,0,1,1,1.38,2.56,2.56,0,0,1,.1.87,3.37,3.37,0,0,1-.21.77c-.06.17-.42.64-.27.81a.39.39,0,0,0,.29.13.59.59,0,0,1,.19,0C102.74,47,102.71,47,102.71,47.09Z" fill="#ed0000" fill-rule="evenodd"/><path d="M101.65,53c.1-2.1-3.23-2.65-4.79-2.72a4.66,4.66,0,0,0-3,.49,1.46,1.46,0,0,0,0,2.29c1.07,1.09,2.82,1.17,4.22,1.39a5.49,5.49,0,0,0,2.21-.12A1.81,1.81,0,0,0,101.65,53Zm.46.18c-.62,2.17-3.15,2.47-5.09,2.22s-4.57-1.66-4.18-3.93S96.28,49,98,49.36c1.91.35,4.24,1.47,4.14,3.73Z" fill="#ed0000" fill-rule="evenodd"/><path d="M99.64,62.07l-2.93-1,.06-.16c.86.29,2.24.42,2.84-.42s-.24-1.88-1.19-1.92-1.94.76-2.7,1.25a3.09,3.09,0,0,1-3,.24,2.12,2.12,0,0,1-1.34-2.78,7.15,7.15,0,0,1,.82-1c.25-.33.08-.47-.26-.63l.06-.18,2.93,1-.06.16c-1-.17-2.09-.42-2.81.47s.07,2,1.09,2.17,2-.6,2.68-1.07a3.1,3.1,0,0,1,3-.39,2.38,2.38,0,0,1,1.6,1.78,1.76,1.76,0,0,1-.37,1.17c-.18.29-.6.42-.72.74C99.34,61.73,99.77,61.89,99.64,62.07Z" fill="#ed0000" fill-rule="evenodd"/><path d="M96.17,68.93l-2-1,.08-.15a2,2,0,0,0,1.5.25c.46-.2.68-.84.89-1.24l-4.85-2.7c-.55-.31-1.09-.65-1.66-.91s-1-.47-1.42.22l-.21-.12,1.28-2.31.23.11c-.12.25-.29.47-.13.74a1.64,1.64,0,0,0,.61.56c.55.29,1.1.59,1.64.9L97.11,66c.22-.38.7-1,.56-1.46a2.26,2.26,0,0,0-1-1.06l.08-.15,1.69,1c.14.08.22.07.14.21l-.41.74Z" fill="#ed0000" fill-rule="evenodd"/><path d="M92.7,72.68c1.93-2.08-3.76-6.2-5.65-5.87-1.44.25-1.34,1.81-.75,2.79a8.8,8.8,0,0,0,4.33,3.46C91.31,73.28,92.26,73.38,92.7,72.68Zm.32.39c-.85,1.27-3,.82-4.13.25a6.49,6.49,0,0,1-3.51-4.16,2.39,2.39,0,0,1,1.93-3c1.79-.29,3.7,1,4.86,2.21C93.18,69.47,94.33,71.76,93,73.07Z" fill="#ed0000" fill-rule="evenodd"/><path d="M86.72,77.16l-.27,1a2,2,0,0,1-.33.91L82.4,74.45,81.22,73a8.29,8.29,0,0,0-.62-.71c-.28-.28-.6-.06-.87.13l-.16-.19,1.83-1.48.16.18a1.07,1.07,0,0,0-.37.42.6.6,0,0,0,.12.53c.18.25.36.49.55.73l2.07,2.53.83,1a5.79,5.79,0,0,0,.43.55,4.89,4.89,0,0,0,.74.77c.37.23.5-.14.61-.44Z" fill="#ed0000" fill-rule="evenodd"/><path d="M79.39,77.74a4.77,4.77,0,0,0-.06-1.25,3.29,3.29,0,0,0-.47-1.11,2.47,2.47,0,0,0-.86-.9,1,1,0,0,0-1.1-.06.82.82,0,0,0-.37.43,1,1,0,0,0-.08.57,2.47,2.47,0,0,0,.5,1.09,2.37,2.37,0,0,0,1,.66c.39.17.79.31,1.19.46Zm.06,1.09a4.07,4.07,0,0,0-.06.61,2.58,2.58,0,0,0,0,.62,2.33,2.33,0,0,0,.17.57,3.55,3.55,0,0,0,.3.58c.24.3.57.72,1,.72a1.51,1.51,0,0,0,.3,0,1,1,0,0,0,.27-.14.91.91,0,0,0,.38-.46,1.33,1.33,0,0,0,0-.88,1.73,1.73,0,0,0-.54-.79,2.77,2.77,0,0,0-.76-.45Zm.25-1c.21.06.39.15.58.21a2.24,2.24,0,0,1,.57.25l.28.16c.07,0,.16.15.23.2a2,2,0,0,1,.45.47,2.54,2.54,0,0,1,.54,1.09,2.38,2.38,0,0,1-.09,1.27,1.87,1.87,0,0,1-.93.8.63.63,0,0,1-.27.06,3,3,0,0,1-.31,0,1.45,1.45,0,0,1-.3-.05,1.24,1.24,0,0,0-.32-.12,2.21,2.21,0,0,1-.48-.34,2.12,2.12,0,0,1-.41-.48,2.2,2.2,0,0,1-.37-1.14,5.35,5.35,0,0,1,.26-1.54,5,5,0,0,1-2.22-1.12A2.77,2.77,0,0,1,76,75.32a1.79,1.79,0,0,1,.55-1.11,1.54,1.54,0,0,1,1.07-.39,2.47,2.47,0,0,1,1.92,1.39A3.72,3.72,0,0,1,79.7,77.84Z" fill="#ed0000" fill-rule="evenodd"/><path d="M75.53,80.08c-.14-.37-.26-.75-.4-1.12a5.55,5.55,0,0,0-.58-1.17,5.83,5.83,0,0,0-.76-1,1.5,1.5,0,0,0-.46-.33.75.75,0,0,0-.26,0,.66.66,0,0,0-.28.05c-.37.14-.46.6-.46,1a3.06,3.06,0,0,0,.25,1.19c.09.21.17.41.28.61a3.74,3.74,0,0,0,.28.52,3.81,3.81,0,0,0,.79,1l.31.2a.65.65,0,0,0,.35.1.58.58,0,0,0,.19,0,.45.45,0,0,0,.14-.07,1.1,1.1,0,0,0,.25-.23C75.29,80.51,75.42,80.3,75.53,80.08ZM74.7,85.5l-.08-.2c.14-.14.33-.23.47-.37a2,2,0,0,0,.36-.47,3.19,3.19,0,0,0,.36-1.17c0-.21.06-.41.08-.61s0-.42,0-.62a7.34,7.34,0,0,0-.18-1.33l0-.18a2.11,2.11,0,0,1-.71,1,1.09,1.09,0,0,1-.57.25,1.68,1.68,0,0,1-.59-.12,1.7,1.7,0,0,1-.54-.34,4.57,4.57,0,0,1-.45-.43,4.39,4.39,0,0,1-.62-1.07,4.75,4.75,0,0,1-.29-2.5,1.7,1.7,0,0,1,.51-1A1.33,1.33,0,0,1,73.52,76a2.55,2.55,0,0,1,1,.61,4.79,4.79,0,0,1,.81.93,7.61,7.61,0,0,1,1.22,4.87,4.45,4.45,0,0,1-.82,2.32A2.42,2.42,0,0,1,74.7,85.5Z" fill="#ed0000" fill-rule="evenodd"/><path d="M68.94,81l1.19,4.43.92-5Zm-1.55.41-.25-.93.8-.24-.62-2.35.73-.18L68.7,80l2.56-.68.17.71a.5.5,0,0,1,0,.21l-.2,1L70.58,85l-.34,1.83-.47.14-1.5-5.59-.06-.23Z" fill="#ed0000" fill-rule="evenodd"/><polygon points="53.01 24.12 53.01 38.86 38.27 38.86 38.27 53.59 53.01 53.59 53.01 68.33 67.74 68.33 67.74 53.59 82.47 53.59 82.47 38.86 67.74 38.86 67.74 24.12 53.01 24.12" fill="#ed0000" fill-rule="evenodd"/><text transform="translate(0 107.73)" font-size="12.23" fill="#ed0000" font-family="Arial-BoldMT, Arial" font-weight="700">Croce Rossa Italiana</text></g></g></svg>