<?xml version="1.0" encoding="utf-8"?>
<!-- Generator: Adobe Illustrator 24.1.0, SVG Export Plug-In . SVG Version: 6.00 Build 0)  -->
<svg version="1.1" id="Livello_1" xmlns="http://www.w3.org/2000/svg" xmlns:xlink="http://www.w3.org/1999/xlink" x="0px" y="0px"
	 viewBox="0 0 3509.6 463.5" style="enable-background:new 0 0 3509.6 463.5;" xml:space="preserve">
<style type="text/css">
	.st0{fill:#CC0000;}
	.st1{fill-rule:evenodd;clip-rule:evenodd;fill:#FEFEFE;}
	.st2{fill:none;stroke:#CC0000;stroke-width:5.1025;stroke-miterlimit:22.9256;}
	.st3{fill-rule:evenodd;clip-rule:evenodd;fill:#CC0000;}
</style>
<g>
	<path class="st0" d="M717.8,260l42.2,13.4c-6.5,23.5-17.2,41-32.3,52.4c-15,11.4-34.1,17.1-57.3,17.1c-28.6,0-52.1-9.8-70.6-29.3
		c-18.4-19.6-27.6-46.3-27.6-80.2c0-35.9,9.3-63.7,27.8-83.6S643,120,673.2,120c26.4,0,47.8,7.8,64.2,23.4
		c9.8,9.2,17.1,22.4,22.1,39.7l-43.1,10.3c-2.5-11.2-7.9-20-16-26.5c-8.1-6.5-17.9-9.7-29.5-9.7c-16,0-28.9,5.7-38.9,17.2
		c-9.9,11.5-14.9,30-14.9,55.7c0,27.2,4.9,46.7,14.7,58.2c9.8,11.6,22.5,17.3,38.2,17.3c11.6,0,21.5-3.7,29.8-11
		C708.2,287.3,714.2,275.8,717.8,260z"/>
	<path class="st0" d="M836.6,339.2h-41.3V183.1h38.4v22.2c6.6-10.5,12.5-17.4,17.7-20.7c5.2-3.3,11.2-5,17.9-5
		c9.4,0,18.5,2.6,27.2,7.8l-12.8,36c-7-4.5-13.4-6.8-19.4-6.8c-5.8,0-10.7,1.6-14.7,4.8c-4,3.2-7.2,8.9-9.5,17.3
		c-2.3,8.3-3.5,25.8-3.5,52.3V339.2z"/>
	<path class="st0" d="M904.7,259c0-13.7,3.4-27,10.1-39.8c6.8-12.8,16.3-22.6,28.7-29.4c12.4-6.8,26.2-10.1,41.5-10.1
		c23.6,0,43,7.7,58.1,23c15.1,15.3,22.6,34.7,22.6,58.1c0,23.6-7.6,43.2-22.9,58.7c-15.2,15.5-34.4,23.3-57.6,23.3
		c-14.3,0-28-3.2-40.9-9.7c-13-6.5-22.9-16-29.6-28.4C908.1,292.1,904.7,276.9,904.7,259z M947,261.2c0,15.5,3.7,27.3,11,35.6
		c7.4,8.2,16.4,12.3,27.2,12.3c10.8,0,19.8-4.1,27.1-12.3c7.3-8.2,11-20.2,11-35.9c0-15.3-3.7-27-11-35.3
		c-7.3-8.2-16.3-12.3-27.1-12.3c-10.8,0-19.8,4.1-27.2,12.3C950.7,233.8,947,245.7,947,261.2z"/>
	<path class="st0" d="M1234.3,229.3l-40.7,7.4c-1.4-8.1-4.5-14.3-9.3-18.4s-11.1-6.2-18.9-6.2c-10.3,0-18.5,3.6-24.6,10.7
		c-6.1,7.1-9.2,19-9.2,35.6c0,18.5,3.1,31.6,9.3,39.2c6.2,7.6,14.6,11.5,25.1,11.5c7.8,0,14.3-2.2,19.3-6.7c5-4.5,8.5-12.1,10.6-23
		l40.6,6.9c-4.2,18.6-12.3,32.7-24.3,42.2c-12,9.5-28,14.3-48.1,14.3c-22.8,0-41-7.2-54.6-21.6c-13.6-14.4-20.4-34.3-20.4-59.8
		c0-25.8,6.8-45.8,20.4-60.2c13.6-14.4,32-21.5,55.3-21.5c19,0,34.1,4.1,45.4,12.3C1221.3,200,1229.4,212.5,1234.3,229.3z"/>
	<path class="st0" d="M1356,289.5l41.2,6.9c-5.3,15.1-13.6,26.6-25.1,34.5c-11.4,7.9-25.7,11.8-42.9,11.8
		c-27.1,0-47.2-8.9-60.3-26.6c-10.3-14.2-15.4-32.1-15.4-53.8c0-25.9,6.8-46.1,20.3-60.8c13.5-14.7,30.6-22,51.3-22
		c23.2,0,41.6,7.7,55,23c13.4,15.3,19.8,38.8,19.3,70.5h-103.5c0.3,12.3,3.6,21.8,10,28.6c6.4,6.8,14.3,10.2,23.8,10.2
		c6.5,0,11.9-1.8,16.3-5.3C1350.4,303.1,1353.7,297.4,1356,289.5z M1358.3,247.8c-0.3-12-3.4-21-9.3-27.3c-5.9-6.2-13-9.3-21.5-9.3
		c-9,0-16.5,3.3-22.3,9.8c-5.9,6.6-8.8,15.5-8.7,26.8H1358.3z"/>
	<path class="st0" d="M1517.1,339.2V123.7h91.6c23,0,39.8,1.9,50.2,5.8c10.4,3.9,18.8,10.8,25.1,20.7c6.3,9.9,9.4,21.2,9.4,34
		c0,16.2-4.8,29.5-14.3,40.1c-9.5,10.5-23.7,17.2-42.6,19.9c9.4,5.5,17.2,11.5,23.3,18.1c6.1,6.6,14.4,18.2,24.8,35l26.3,42h-52
		l-31.5-46.9c-11.2-16.8-18.8-27.3-22.9-31.7c-4.1-4.4-8.5-7.4-13.1-9c-4.6-1.6-11.9-2.4-21.9-2.4h-8.8v90H1517.1z M1560.6,214.9
		h32.2c20.9,0,33.9-0.9,39.1-2.6c5.2-1.8,9.3-4.8,12.2-9.1c2.9-4.3,4.4-9.7,4.4-16.2c0-7.3-1.9-13.1-5.8-17.6
		c-3.9-4.5-9.3-7.3-16.4-8.5c-3.5-0.5-14.1-0.7-31.8-0.7h-34V214.9z"/>
	<path class="st0" d="M1724.5,259c0-13.7,3.4-27,10.1-39.8c6.8-12.8,16.3-22.6,28.7-29.4c12.4-6.8,26.2-10.1,41.5-10.1
		c23.6,0,43,7.7,58.1,23c15.1,15.3,22.6,34.7,22.6,58.1c0,23.6-7.6,43.2-22.9,58.7c-15.2,15.5-34.4,23.3-57.6,23.3
		c-14.3,0-28-3.2-40.9-9.7c-13-6.5-22.9-16-29.6-28.4C1727.9,292.1,1724.5,276.9,1724.5,259z M1766.9,261.2c0,15.5,3.7,27.3,11,35.6
		c7.4,8.2,16.4,12.3,27.2,12.3c10.8,0,19.8-4.1,27.1-12.3c7.3-8.2,11-20.2,11-35.9c0-15.3-3.7-27-11-35.3
		c-7.3-8.2-16.3-12.3-27.1-12.3c-10.8,0-19.8,4.1-27.2,12.3C1770.5,233.8,1766.9,245.7,1766.9,261.2z"/>
	<path class="st0" d="M1903.4,294.7l41.5-6.3c1.8,8,5.3,14.1,10.7,18.3c5.4,4.2,12.9,6.2,22.6,6.2c10.7,0,18.7-2,24.1-5.9
		c3.6-2.7,5.4-6.4,5.4-11c0-3.1-1-5.7-2.9-7.8c-2.1-2-6.7-3.8-13.8-5.4c-33.3-7.3-54.4-14.1-63.4-20.1
		c-12.3-8.4-18.5-20.1-18.5-35.1c0-13.5,5.3-24.9,16-34.1c10.7-9.2,27.2-13.8,49.7-13.8c21.4,0,37.2,3.5,47.6,10.4
		c10.4,7,17.5,17.2,21.5,30.9l-39,7.2c-1.7-6.1-4.8-10.7-9.5-14c-4.7-3.2-11.3-4.9-19.9-4.9c-10.9,0-18.7,1.5-23.4,4.6
		c-3.1,2.2-4.7,5-4.7,8.4c0,2.9,1.4,5.4,4.1,7.5c3.7,2.7,16.6,6.6,38.6,11.6c22,5,37.4,11.1,46.1,18.4c8.6,7.3,12.9,17.6,12.9,30.7
		c0,14.3-6,26.6-17.9,36.9c-12,10.3-29.6,15.4-53.1,15.4c-21.3,0-38.1-4.3-50.5-12.9C1915.4,321.2,1907.3,309.5,1903.4,294.7z"/>
	<path class="st0" d="M2070.9,294.7l41.5-6.3c1.8,8,5.3,14.1,10.7,18.3c5.4,4.2,12.9,6.2,22.6,6.2c10.7,0,18.7-2,24.1-5.9
		c3.6-2.7,5.4-6.4,5.4-11c0-3.1-1-5.7-2.9-7.8c-2.1-2-6.7-3.8-13.8-5.4c-33.3-7.3-54.4-14.1-63.4-20.1
		c-12.3-8.4-18.5-20.1-18.5-35.1c0-13.5,5.3-24.9,16-34.1c10.7-9.2,27.2-13.8,49.7-13.8c21.4,0,37.2,3.5,47.6,10.4
		c10.4,7,17.5,17.2,21.5,30.9l-39,7.2c-1.7-6.1-4.8-10.7-9.5-14c-4.7-3.2-11.3-4.9-19.9-4.9c-10.9,0-18.7,1.5-23.4,4.6
		c-3.1,2.2-4.7,5-4.7,8.4c0,2.9,1.4,5.4,4.1,7.5c3.7,2.7,16.6,6.6,38.6,11.6c22,5,37.4,11.1,46.1,18.4c8.6,7.3,12.9,17.6,12.9,30.7
		c0,14.3-6,26.6-17.9,36.9c-12,10.3-29.6,15.4-53.1,15.4c-21.3,0-38.1-4.3-50.5-12.9C2082.8,321.2,2074.7,309.5,2070.9,294.7z"/>
	<path class="st0" d="M2283.7,230.7l-37.5-6.8c4.2-15.1,11.5-26.3,21.8-33.5c10.3-7.3,25.6-10.9,45.9-10.9c18.4,0,32.1,2.2,41.2,6.5
		c9,4.4,15.4,9.9,19,16.6c3.7,6.7,5.5,19,5.5,37l-0.4,48.2c0,13.7,0.7,23.8,2,30.4c1.3,6.5,3.8,13.5,7.4,20.9h-40.9
		c-1.1-2.7-2.4-6.8-4-12.2c-0.7-2.4-1.2-4.1-1.5-4.9c-7.1,6.9-14.6,12-22.6,15.4c-8,3.4-16.6,5.1-25.7,5.1c-16.1,0-28.7-4.4-38-13.1
		c-9.3-8.7-13.9-19.7-13.9-33.1c0-8.8,2.1-16.7,6.3-23.6c4.2-6.9,10.1-12.2,17.7-15.9c7.6-3.7,18.5-6.9,32.9-9.6
		c19.3-3.6,32.7-7,40.1-10.1v-4.1c0-7.9-2-13.6-5.9-17c-3.9-3.4-11.3-5.1-22.2-5.1c-7.4,0-13.1,1.4-17.2,4.3
		C2289.6,218.4,2286.3,223.5,2283.7,230.7z M2339,264.2c-5.3,1.8-13.7,3.9-25.1,6.3c-11.5,2.5-19,4.9-22.5,7.2
		c-5.4,3.8-8.1,8.7-8.1,14.6c0,5.8,2.2,10.8,6.5,15c4.3,4.2,9.8,6.3,16.5,6.3c7.4,0,14.6-2.4,21.3-7.3c5-3.7,8.3-8.3,9.8-13.7
		c1.1-3.5,1.6-10.2,1.6-20.1V264.2z"/>
	<path class="st0" d="M2502.9,339.2V123.7h43.5v215.5H2502.9z"/>
	<path class="st0" d="M2659.2,183.1V216H2631v62.9c0,12.7,0.3,20.2,0.8,22.3c0.5,2.1,1.8,3.8,3.7,5.2c1.9,1.4,4.2,2.1,7,2.1
		c3.8,0,9.4-1.3,16.6-4l3.5,32c-9.6,4.1-20.5,6.2-32.6,6.2c-7.4,0-14.2-1.2-20.1-3.7c-6-2.5-10.4-5.7-13.2-9.7s-4.7-9.3-5.8-16.1
		c-0.9-4.8-1.3-14.5-1.3-29.1V216h-19v-32.9h19v-31L2631,128v55.1H2659.2z"/>
	<path class="st0" d="M2718.7,230.7l-37.5-6.8c4.2-15.1,11.5-26.3,21.8-33.5c10.3-7.3,25.6-10.9,45.9-10.9c18.4,0,32.1,2.2,41.2,6.5
		c9,4.4,15.4,9.9,19,16.6c3.7,6.7,5.5,19,5.5,37l-0.4,48.2c0,13.7,0.7,23.8,2,30.4c1.3,6.5,3.8,13.5,7.4,20.9h-40.9
		c-1.1-2.7-2.4-6.8-4-12.2c-0.7-2.4-1.2-4.1-1.5-4.9c-7.1,6.9-14.6,12-22.6,15.4c-8,3.4-16.6,5.1-25.7,5.1c-16.1,0-28.7-4.4-38-13.1
		c-9.3-8.7-13.9-19.7-13.9-33.1c0-8.8,2.1-16.7,6.3-23.6c4.2-6.9,10.1-12.2,17.7-15.9c7.6-3.7,18.5-6.9,32.9-9.6
		c19.3-3.6,32.7-7,40.1-10.1v-4.1c0-7.9-2-13.6-5.9-17c-3.9-3.4-11.3-5.1-22.2-5.1c-7.4,0-13.1,1.4-17.2,4.3
		C2724.6,218.4,2721.3,223.5,2718.7,230.7z M2774,264.2c-5.3,1.8-13.7,3.9-25.1,6.3c-11.5,2.5-19,4.9-22.5,7.2
		c-5.4,3.8-8.1,8.7-8.1,14.6c0,5.8,2.2,10.8,6.5,15c4.3,4.2,9.8,6.3,16.5,6.3c7.4,0,14.6-2.4,21.3-7.3c5-3.7,8.3-8.3,9.8-13.7
		c1.1-3.5,1.6-10.2,1.6-20.1V264.2z"/>
	<path class="st0" d="M2855.3,339.2V123.7h41.3v215.5H2855.3z"/>
	<path class="st0" d="M2938.9,161.9v-38.2h41.3v38.2H2938.9z M2938.9,339.2V183.1h41.3v156.1H2938.9z"/>
	<path class="st0" d="M3053.5,230.7L3016,224c4.2-15.1,11.5-26.3,21.8-33.5c10.3-7.3,25.6-10.9,45.9-10.9c18.4,0,32.1,2.2,41.2,6.5
		c9,4.4,15.4,9.9,19,16.6c3.7,6.7,5.5,19,5.5,37l-0.4,48.2c0,13.7,0.7,23.8,2,30.4c1.3,6.5,3.8,13.5,7.4,20.9h-40.9
		c-1.1-2.7-2.4-6.8-4-12.2c-0.7-2.4-1.2-4.1-1.5-4.9c-7.1,6.9-14.6,12-22.6,15.4c-8,3.4-16.6,5.1-25.7,5.1c-16.1,0-28.7-4.4-38-13.1
		c-9.3-8.7-13.9-19.7-13.9-33.1c0-8.8,2.1-16.7,6.3-23.6c4.2-6.9,10.1-12.2,17.7-15.9c7.6-3.7,18.5-6.9,32.9-9.6
		c19.3-3.6,32.7-7,40.1-10.1v-4.1c0-7.9-2-13.6-5.9-17c-3.9-3.4-11.3-5.1-22.2-5.1c-7.4,0-13.1,1.4-17.2,4.3
		C3059.3,218.4,3056,223.5,3053.5,230.7z M3108.7,264.2c-5.3,1.8-13.7,3.9-25.1,6.3c-11.5,2.5-19,4.9-22.5,7.2
		c-5.4,3.8-8.1,8.7-8.1,14.6c0,5.8,2.2,10.8,6.5,15c4.3,4.2,9.8,6.3,16.5,6.3c7.4,0,14.6-2.4,21.3-7.3c5-3.7,8.3-8.3,9.8-13.7
		c1.1-3.5,1.6-10.2,1.6-20.1V264.2z"/>
	<path class="st0" d="M3332,339.2h-41.3v-79.7c0-16.9-0.9-27.8-2.6-32.7c-1.8-4.9-4.6-8.8-8.6-11.5c-4-2.7-8.7-4.1-14.3-4.1
		c-7.2,0-13.6,2-19.3,5.9c-5.7,3.9-9.6,9.1-11.7,15.6c-2.1,6.5-3.2,18.4-3.2,35.9v70.7h-41.3V183.1h38.4V206
		c13.6-17.6,30.8-26.5,51.5-26.5c9.1,0,17.4,1.6,25,4.9c7.5,3.3,13.3,7.5,17.1,12.6c3.9,5.1,6.6,10.9,8.1,17.3
		c1.5,6.5,2.3,15.7,2.3,27.8V339.2z"/>
	<path class="st0" d="M3404.8,230.7l-37.5-6.8c4.2-15.1,11.5-26.3,21.8-33.5c10.3-7.3,25.6-10.9,45.9-10.9c18.4,0,32.1,2.2,41.2,6.5
		c9,4.4,15.4,9.9,19,16.6c3.7,6.7,5.5,19,5.5,37l-0.4,48.2c0,13.7,0.7,23.8,2,30.4c1.3,6.5,3.8,13.5,7.4,20.9h-40.9
		c-1.1-2.7-2.4-6.8-4-12.2c-0.7-2.4-1.2-4.1-1.5-4.9c-7.1,6.9-14.6,12-22.6,15.4c-8,3.4-16.6,5.1-25.7,5.1c-16.1,0-28.7-4.4-38-13.1
		c-9.3-8.7-13.9-19.7-13.9-33.1c0-8.8,2.1-16.7,6.3-23.6c4.2-6.9,10.1-12.2,17.7-15.9c7.6-3.7,18.5-6.9,32.9-9.6
		c19.3-3.6,32.7-7,40.1-10.1v-4.1c0-7.9-2-13.6-5.9-17c-3.9-3.4-11.3-5.1-22.2-5.1c-7.4,0-13.1,1.4-17.2,4.3
		C3410.7,218.4,3407.3,223.5,3404.8,230.7z M3460.1,264.2c-5.3,1.8-13.7,3.9-25.1,6.3c-11.5,2.5-19,4.9-22.5,7.2
		c-5.4,3.8-8.1,8.7-8.1,14.6c0,5.8,2.2,10.8,6.5,15c4.3,4.2,9.8,6.3,16.5,6.3c7.4,0,14.6-2.4,21.3-7.3c5-3.7,8.3-8.3,9.8-13.7
		c1.1-3.5,1.6-10.2,1.6-20.1V264.2z"/>
</g>
<g>
	<polygon class="st1" points="231.7,2.6 243.5,2.8 255.2,3.7 266.6,5.2 277.9,7.2 289,9.8 299.9,12.9 310.5,16.5 320.9,20.6 
		331.1,25.2 341,30.2 350.6,35.7 359.9,41.7 368.8,48.1 377.5,54.9 385.8,62.1 393.8,69.7 401.4,77.6 408.6,86 415.4,94.6 
		421.8,103.6 427.7,112.9 433.2,122.5 438.3,132.4 442.9,142.5 447,153 450.6,163.6 453.7,174.5 456.2,185.6 458.3,196.8 
		459.7,208.3 460.6,219.9 460.9,231.7 460.6,243.5 459.7,255.2 458.3,266.6 456.2,277.9 453.7,289 450.6,299.9 447,310.5 
		442.9,320.9 438.3,331.1 433.2,341 427.7,350.6 421.8,359.9 415.4,368.8 408.6,377.5 401.4,385.8 393.8,393.8 385.8,401.4 
		377.5,408.6 368.8,415.4 359.9,421.8 350.6,427.7 341,433.2 331.1,438.3 320.9,442.9 310.5,447 299.9,450.6 289,453.7 277.9,456.2 
		266.6,458.3 255.2,459.7 243.5,460.6 231.7,460.9 219.9,460.6 208.3,459.7 196.8,458.3 185.6,456.2 174.5,453.7 163.6,450.6 
		153,447 142.5,442.9 132.4,438.3 122.5,433.2 112.9,427.7 103.6,421.8 94.6,415.4 86,408.6 77.6,401.4 69.7,393.8 62.1,385.8 
		54.9,377.5 48.1,368.8 41.7,359.9 35.7,350.6 30.2,341 25.2,331.1 20.6,320.9 16.5,310.5 12.9,299.9 9.8,289 7.2,277.9 5.2,266.6 
		3.7,255.2 2.8,243.5 2.6,231.7 2.8,219.9 3.7,208.3 5.2,196.8 7.2,185.6 9.8,174.5 12.9,163.6 16.5,153 20.6,142.5 25.2,132.4 
		30.2,122.5 35.7,112.9 41.7,103.6 48.1,94.6 54.9,86 62.1,77.6 69.7,69.7 77.6,62.1 86,54.9 94.6,48.1 103.6,41.7 112.9,35.7 
		122.5,30.2 132.4,25.2 142.5,20.6 153,16.5 163.6,12.9 174.5,9.8 185.6,7.2 196.8,5.2 208.3,3.7 219.9,2.8 	"/>
	<polygon class="st2" points="231.7,2.6 243.5,2.8 255.2,3.7 266.6,5.2 277.9,7.2 289,9.8 299.9,12.9 310.5,16.5 320.9,20.6 
		331.1,25.2 341,30.2 350.6,35.7 359.9,41.7 368.8,48.1 377.5,54.9 385.8,62.1 393.8,69.7 401.4,77.6 408.6,86 415.4,94.6 
		421.8,103.6 427.7,112.9 433.2,122.5 438.3,132.4 442.9,142.5 447,153 450.6,163.6 453.7,174.5 456.2,185.6 458.3,196.8 
		459.7,208.3 460.6,219.9 460.9,231.7 460.6,243.5 459.7,255.2 458.3,266.6 456.2,277.9 453.7,289 450.6,299.9 447,310.5 
		442.9,320.9 438.3,331.1 433.2,341 427.7,350.6 421.8,359.9 415.4,368.8 408.6,377.5 401.4,385.8 393.8,393.8 385.8,401.4 
		377.5,408.6 368.8,415.4 359.9,421.8 350.6,427.7 341,433.2 331.1,438.3 320.9,442.9 310.5,447 299.9,450.6 289,453.7 277.9,456.2 
		266.6,458.3 255.2,459.7 243.5,460.6 231.7,460.9 219.9,460.6 208.3,459.7 196.8,458.3 185.6,456.2 174.5,453.7 163.6,450.6 
		153,447 142.5,442.9 132.4,438.3 122.5,433.2 112.9,427.7 103.6,421.8 94.6,415.4 86,408.6 77.6,401.4 69.7,393.8 62.1,385.8 
		54.9,377.5 48.1,368.8 41.7,359.9 35.7,350.6 30.2,341 25.2,331.1 20.6,320.9 16.5,310.5 12.9,299.9 9.8,289 7.2,277.9 5.2,266.6 
		3.7,255.2 2.8,243.5 2.6,231.7 2.8,219.9 3.7,208.3 5.2,196.8 7.2,185.6 9.8,174.5 12.9,163.6 16.5,153 20.6,142.5 25.2,132.4 
		30.2,122.5 35.7,112.9 41.7,103.6 48.1,94.6 54.9,86 62.1,77.6 69.7,69.7 77.6,62.1 86,54.9 94.6,48.1 103.6,41.7 112.9,35.7 
		122.5,30.2 132.4,25.2 142.5,20.6 153,16.5 163.6,12.9 174.5,9.8 185.6,7.2 196.8,5.2 208.3,3.7 219.9,2.8 	"/>
	<polygon class="st1" points="231.7,81.6 239.5,81.8 247.1,82.4 254.6,83.4 262,84.7 269.2,86.4 276.4,88.4 283.3,90.8 290.1,93.5 
		296.8,96.5 303.3,99.8 309.5,103.4 315.6,107.3 321.5,111.5 327.2,115.9 332.6,120.6 337.8,125.6 342.8,130.8 347.5,136.3 352,142 
		356.2,147.8 360.1,153.9 363.7,160.2 367,166.7 370,173.3 372.7,180.1 375.1,187.1 377.1,194.2 378.8,201.5 380.1,208.9 381,216.4 
		381.6,224 381.8,231.7 381.6,239.5 381,247.1 380.1,254.6 378.8,262 377.1,269.2 375.1,276.4 372.7,283.3 370,290.1 367,296.8 
		363.7,303.3 360.1,309.5 356.2,315.6 352,321.5 347.5,327.2 342.8,332.6 337.8,337.8 332.6,342.8 327.2,347.5 321.5,352 
		315.6,356.2 309.5,360.1 303.3,363.7 296.8,367 290.1,370 283.3,372.7 276.4,375.1 269.2,377.1 262,378.8 254.6,380.1 247.1,381 
		239.5,381.6 231.7,381.8 224,381.6 216.4,381 208.9,380.1 201.5,378.8 194.2,377.1 187.1,375.1 180.1,372.7 173.3,370 166.7,367 
		160.2,363.7 153.9,360.1 147.8,356.2 142,352 136.3,347.5 130.8,342.8 125.6,337.8 120.6,332.6 115.9,327.2 111.5,321.5 
		107.3,315.6 103.4,309.5 99.8,303.3 96.5,296.8 93.5,290.1 90.8,283.3 88.4,276.4 86.4,269.2 84.7,262 83.4,254.6 82.4,247.1 
		81.8,239.5 81.6,231.7 81.8,224 82.4,216.4 83.4,208.9 84.7,201.5 86.4,194.2 88.4,187.1 90.8,180.1 93.5,173.3 96.5,166.7 
		99.8,160.2 103.4,153.9 107.3,147.8 111.5,142 115.9,136.3 120.6,130.8 125.6,125.6 130.8,120.6 136.3,115.9 142,111.5 
		147.8,107.3 153.9,103.4 160.2,99.8 166.7,96.5 173.3,93.5 180.1,90.8 187.1,88.4 194.2,86.4 201.5,84.7 208.9,83.4 216.4,82.4 
		224,81.8 	"/>
	<polygon class="st2" points="231.7,81.6 239.5,81.8 247.1,82.4 254.6,83.4 262,84.7 269.2,86.4 276.4,88.4 283.3,90.8 290.1,93.5 
		296.8,96.5 303.3,99.8 309.5,103.4 315.6,107.3 321.5,111.5 327.2,115.9 332.6,120.6 337.8,125.6 342.8,130.8 347.5,136.3 352,142 
		356.2,147.8 360.1,153.9 363.7,160.2 367,166.7 370,173.3 372.7,180.1 375.1,187.1 377.1,194.2 378.8,201.5 380.1,208.9 381,216.4 
		381.6,224 381.8,231.7 381.6,239.5 381,247.1 380.1,254.6 378.8,262 377.1,269.2 375.1,276.4 372.7,283.3 370,290.1 367,296.8 
		363.7,303.3 360.1,309.5 356.2,315.6 352,321.5 347.5,327.2 342.8,332.6 337.8,337.8 332.6,342.8 327.2,347.5 321.5,352 
		315.6,356.2 309.5,360.1 303.3,363.7 296.8,367 290.1,370 283.3,372.7 276.4,375.1 269.2,377.1 262,378.8 254.6,380.1 247.1,381 
		239.5,381.6 231.7,381.8 224,381.6 216.4,381 208.9,380.1 201.5,378.8 194.2,377.1 187.1,375.1 180.1,372.7 173.3,370 166.7,367 
		160.2,363.7 153.9,360.1 147.8,356.2 142,352 136.3,347.5 130.8,342.8 125.6,337.8 120.6,332.6 115.9,327.2 111.5,321.5 
		107.3,315.6 103.4,309.5 99.8,303.3 96.5,296.8 93.5,290.1 90.8,283.3 88.4,276.4 86.4,269.2 84.7,262 83.4,254.6 82.4,247.1 
		81.8,239.5 81.6,231.7 81.8,224 82.4,216.4 83.4,208.9 84.7,201.5 86.4,194.2 88.4,187.1 90.8,180.1 93.5,173.3 96.5,166.7 
		99.8,160.2 103.4,153.9 107.3,147.8 111.5,142 115.9,136.3 120.6,130.8 125.6,125.6 130.8,120.6 136.3,115.9 142,111.5 
		147.8,107.3 153.9,103.4 160.2,99.8 166.7,96.5 173.3,93.5 180.1,90.8 187.1,88.4 194.2,86.4 201.5,84.7 208.9,83.4 216.4,82.4 
		224,81.8 	"/>
	<g>
		<polygon class="st3" points="249.1,411.2 238.4,422.5 242.5,440.7 231.7,429.4 221,440.7 225.1,422.5 214.3,411.2 227.6,411.2 
			231.7,392.9 235.9,411.2 		"/>
		<path class="st3" d="M194.9,402.4c-0.3-4.4-1.5-9.3-5-12.3c-7.5-6.4-15.2-1.5-20.3,5.1l0.5,0.8c2.1-2.1,4.1-4.5,6.8-5.8
			c4.3-2.1,11.7,0.2,13,5.1c3.4,12.2-1.2,25.9-11,33.9c-2,2.3-6.9,1.8-9.2,0.4c-3.5-1.5-3.7-5.5-4.4-8.6c0.2,0.8-0.1-1.8-0.1-2.3
			c0-1.2,0-2.3,0.1-3.5l-0.8-0.3l-3.6,15l0.8,0.3c0.4-0.9,1.1-1.8,1.8-2.5c1.2-0.8,3.7,3,4.9,3.8c1.8,1.2,3.9,1.8,6.1,1.8
			c4.3,0,8.9-2.4,11.6-5.8C192,420.7,195.6,411.3,194.9,402.4z"/>
		<path class="st3" d="M164,387.2c-0.4-3-1.2-5.7-3.1-8c-1.4-1.7-4.2-3.9-6.6-3.9c-2.6,0-5-0.2-7.4,1.1c-2.8,1.4-5.3,2.8-7.5,5
			c-7.5,7.5-13.5,21-8.9,31.4c4.7,10.7,17.2,6.6,23.7,0.3C160.2,407,165.4,396,164,387.2L164,387.2L164,387.2z M160.1,387.3
			c-0.9,6.2-3.1,11.6-6.1,17.2c-2.5,4.6-6.5,10.8-11.9,12.3c-5.6,1.6-10-3.2-9.4-8.7c0.6-5.8,2.5-11.2,5.4-16.3
			c3-5.4,6.1-10.8,11.9-13.4c2.5-1.1,5.7-0.8,7.8,1.1C160,381.4,160.1,384.6,160.1,387.3L160.1,387.3L160.1,387.3z"/>
		<path class="st3" d="M114,406.4l-6.7-5.2l6.9-39.2l-16.9,20.9c0,0-0.4,0.6-0.6,0.8c-3.8,5-1,6.7-1,6.7l0.8,0.7l-0.8,0.9l-8.5-6.8
			l0.8-0.9l0.9,0.7c0,0,2.7,1.9,6.3-2.5c0.1-0.2,0.6-0.7,0.6-0.7l24.5-30.7l0.7,0.5l-7.3,42.2l19.1-23.9c0,0,0.7-0.8,0.9-1.1
			c0.7-1,1.8-3-0.6-4.7c-0.2-0.2-0.8-0.7-0.8-0.7l0.8-1.1l8.5,6.8l-0.8,1c0,0-1.2-1-1.3-1c-2-1.6-4.3,1-4.3,1l-0.5,0.5L113,397.8
			c0,0-1.2,4.5,0.7,6.6c0.1,0.1,0.3,0.4,0.3,0.4l0.4,0.4l0.5,0.4L114,406.4z"/>
		<path class="st3" d="M105.9,334.8l-37.3,16.7l-0.8,0.3l-0.8,0.4l-0.7,0.2c-0.2,0.1-0.5,0.2-0.8,0.3c-0.3,0.1-0.6,0.2-0.9,0.2l0,0
			c-0.4,0.1-0.8,0.2-1.2,0.2c0,0-0.1,0-0.1,0c0,0-0.1,0-0.1,0c-0.2,0-0.3,0-0.4,0h-0.1l0,0c-0.6-0.1-1.2-0.3-1.6-0.6l-0.5-0.3
			l-1,0.8l6.1,7.4l1-0.7c-0.5-0.7-0.8-1.5-0.7-2.3l0-0.1l0-0.2c0.1-1.1,0.6-2.2,1.7-2.8c0,0,0.1-0.1,0.1-0.1
			c0.6-0.3,1.2-0.5,1.8-0.7c0,0,0.1,0,0.2,0l0.6-0.4l0.8-0.4l0.9-0.4l25.4-11.4l-15.8,23.4l-0.5,0.8l-0.4,0.6l-0.4,0.5
			c-0.1,0.2-0.2,0.3-0.3,0.5c-0.4,0.7-0.9,1.4-1.5,2c-0.2,0.2-0.5,0.4-0.8,0.5c0,0,0,0-0.1,0c-0.4,0.2-0.8,0.3-1.1,0.3
			c-0.1,0-0.1,0-0.2,0c0,0-0.1,0-0.1,0c0,0,0,0,0,0c-1.1,0-1.9-0.6-2.3-1.3c-0.1-0.1-0.1-0.2-0.2-0.3l-0.1,0l-1,0.8l8.2,9.8l0.9-0.8
			l-0.2-0.4c-0.6-0.7-0.8-1.7-0.6-2.7v-0.2l0.1-0.5l0,0c0-0.4,0.2-0.8,0.4-1.2c0.2-0.7,0.5-1.3,1-1.9c0.1-0.3,0.3-0.6,0.6-0.8
			c0.1-0.1,0.1-0.1,0.2-0.2c0.7-1.2,1.6-2.4,2.5-3.5l20.8-30.8L105.9,334.8z"/>
		<path class="st3" d="M84.2,300.9l-11.6,3.4l0.4,0.8l1-0.1c0,0,2.3-0.3,3-0.4c2.6-0.3,4.8,0.3,4.8,0.3s1.5,0.2,3.7,3.8
			c0.7,1.1,2.6,4.5,2.6,4.5c0.3,0.3,0.6,2.9-2.8,4.7c-0.2,0.1-0.7,0.4-0.7,0.4L71,325.6l-3.3-6l-0.2-0.4l0,0
			c-0.1-0.1-0.2-0.3-0.3-0.4l0,0l0,0l0,0c-0.1-0.2-0.2-0.4-0.3-0.7c0,0,0,0,0-0.1c-0.1-0.2-0.1-0.4-0.1-0.7c0,0,0,0,0-0.1
			c0-0.2,0-0.5,0-0.7c0,0,0,0,0,0c0.1-0.7,0.4-1.5,0.9-2c0.3-0.5,1.9-1.7,2.3-1.8c0.2-0.2,0.7-0.5,0.7-0.5l0.8-0.4l-0.5-0.8l-14.4,8
			l0.4,0.8l0.9-0.5l0.2-0.1c0.2-0.1,0.4-0.2,0.6-0.3c0.8-0.5,1.6-0.8,2.6-0.9c0.1,0,0.2,0,0.3,0c0.1,0,0.1,0,0.2,0
			c0.4,0,0.8,0.1,1.2,0.2H63l0.1,0.1c0.3,0.1,0.6,0.3,0.8,0.5l0.2,0.1l0.4,0.4l0.3,0.4l0.4,0.5l0.3,0.5l3.4,6l-16.4,9l-4.2-7.5
			l-0.3-0.5l-0.3-0.5c0.1,0.1,0-0.1-0.2-0.4c-1-1.6,0-3,0-3s0.5-1.2,0.9-1.5c0.1-0.1,2.3-2.1,2.3-2.1l0.7-0.5l0.8-0.5l-0.5-0.8
			l-8.9,5.4L54.4,345l1.1-0.6c-1-1-1.3-2.5-0.8-3.8v0l0,0c0.2-0.6,0.5-1.1,0.9-1.5c0.1-0.1,0.2-0.1,0.2-0.2c0.4-0.4,2.6-1.3,3.1-1.5
			c0.2-0.1,0,0,0.7-0.4l26.8-14.7l0.7-0.4l0.6-0.4c0,0,3.7-2.2,5.7-0.6c0.1,0.1,1.2,1.8,1.2,1.8l1.2-0.7L84.2,300.9z"/>
		<path class="st3" d="M38,314.4c-0.7-2.1-1.4-4.2-2.1-6.3c-0.2-0.5-0.8-1.4-0.3-1.8c0.6-0.6,1.2-1.3,1.8-1.9
			c3.7-4,7.5-8.1,11.2-12.1c4.6-5,9.2-10,13.9-14.9c-8.5,2.8-17,5.6-25.5,8.4c-1.6,0.5-3.7,1.1-4.9,2.4c-0.6,0.6-0.9,1.5-0.6,2.3
			c0.1,0.4,0.2,0.8,0.3,1.2c0.1,0.5,0.2,0.5-0.3,0.6c-0.3,0.1-0.5,0.2-0.8,0.3c-0.6-1.9-1.3-3.9-1.9-5.8c-0.5-1.4-0.9-2.8-1.4-4.1
			c-0.2-0.5-0.1-0.4,0.5-0.6c0.1,0,0.6-0.3,0.6-0.1c0.1,0.3,0.2,0.5,0.3,0.8c1.4,3.8,5.5,1.8,8.3,0.9c8.8-2.9,17.6-5.8,26.4-8.7
			c2.8-0.9,5.5-1.8,8.3-2.7c0.6-0.2,1.2-0.4,1.7-0.6c0,0,0.3,0.7,0.3,0.8c-0.1,0.1-0.2,0.2-0.3,0.3c-3.7,4-7.5,8.1-11.2,12.1
			c-5.8,6.3-11.6,12.5-17.4,18.8c0,0-0.1,0.1-0.1,0.1c8.8-2.9,17.6-5.8,26.4-8.7c1.6-0.5,3.3-1,4.8-1.9c0.8-0.4,1.4-1.2,1.5-2.1
			c0.2-0.9-0.2-1.8-0.5-2.6c0.2-0.1,1.2-0.5,1.3-0.4c0.2,0.1,0.3,1.1,0.4,1.2c0.4,1.3,0.8,2.6,1.3,3.9c0.3,1,0.6,2,1,2.9
			c0.2,0.6,0.4,1.3,0.6,1.9c0.2,0.5,0,0.4-0.5,0.6c-0.3,0.1-0.5,0.3-0.6,0c-0.1-0.2-0.2-0.4-0.2-0.7c-0.2-0.5-0.4-0.9-0.7-1.3
			c-0.5-0.8-1.5-1-2.4-1c-1.6,0-3.1,0.6-4.6,1.1c-9.1,3-18.2,6-27.3,9.1c-1,0.3-2.1,0.7-3.1,1c-0.3,0.1-0.6,0.6-0.8,0.8
			c-0.4,0.4-0.9,1-1.2,1.5c-0.6,0.9-0.8,2-1,3c-0.1,0.5,0,1,0.1,1.5c0.1,0.3,0.3,0.5-0.1,0.6C38.7,314.2,38.4,314.3,38,314.4z"/>
		<path class="st3" d="M22.2,246.5l46.7,14.6c-0.3-2.2-0.6-4.4-0.9-6.6c-0.3-2.1-0.4-4.4-0.9-6.5c-0.5-2.1-1.5-3.5-3.5-4.3
			c-1.9-0.7-3.9-1-5.9-1.1c-0.4,0-0.8-0.1-1.2-0.1c0-0.2,0-0.8,0.2-0.8c0.4,0,0.7,0,1.1,0c1.4,0,2.8,0,4.2,0c2.4,0,4.8,0,7.1-0.1
			c0.3,0,1.6,12.2,1.7,13.1c0.4,3,0.8,5.9,1.2,8.9c0.1,0.9,0.2,1.8,0.3,2.6c0.1,0.8,0,0.6-0.9,0.8c-0.7,0.2-1.7-0.4-2.4-0.6
			c-2-0.6-4-1.3-6.1-1.9c-11.2-3.6-22.5-7.1-33.7-10.7c-1.2-0.4-2.3-0.7-3.5-1.1c0.5,4,0.9,8,1.8,12c0.4,1.7,2.6,3,4.3,3
			c1,0,1.9,0.1,2.9,0.1c0.5,0,0.9,0,1.4,0c0.9,0,0.7,0.1,0.8,0.9c-2.3,0.2-4.6,0.4-6.9,0.5c-1.4,0.1-2.7,0.2-4.1,0.3
			c-0.4,0-0.9,0.3-0.9-0.2c-0.7-5.2-1.3-10.5-2-15.7C22.8,251.2,22.5,248.9,22.2,246.5z"/>
		<path class="st3" d="M68.1,223.4c0.3,0,0.7,0,1,0c0.6,0,0.3,0.7,0.3,1.2c0,1.7,0,3.4,0,5.1c0,1.6,0,3.1,0,4.7c0,0.7,0,1.4,0,2.2
			c0,0.3-1.3,0.3-1.4,0c-0.1-0.9,0.1-1.9-0.5-2.7c-0.8-1.2-2.4-1.4-3.7-1.5c-3.2-0.3-6.6,0-9.8-0.1c-6.6,0-13.2-0.1-19.8-0.1
			c-1.5,0-3.1,0-4.6,0c-1.2,0-2.5-0.1-3.7,0.3c-1,0.3-1.9,0.9-2.4,1.9c-0.3,0.6-0.2,1.3-0.2,1.9c0,0.6-0.4,0.4-0.8,0.4
			c-0.6,0-0.5-0.3-0.5-0.9c0-0.7,0-1.5,0-2.2c0-1.6,0-3.2,0-4.7c0-1.6,0-3.2,0-4.7c0-0.6-0.2-1,0.5-0.9c0.4,0,0.8,0,0.8,0.5
			c0,0.9-0.1,1.8,0.5,2.5c0.6,0.8,1.6,1.1,2.6,1.3c2.8,0.5,5.9,0.3,8.8,0.3c6.4,0,12.7,0,19.1,0.1c1.6,0,3.1,0,4.7,0
			c1.5,0,3.2,0.2,4.7,0c1.2-0.2,2.5-0.3,3.4-1.2C68,225.9,68.1,224.6,68.1,223.4C68.3,223.4,68.1,224.8,68.1,223.4z"/>
		<path class="st3" d="M26.8,201.5c0,6.3,5.3,9.6,10.8,11.4c6.9,2.2,15,3.6,22.1,2.3c4.9-0.9,10.2-4.2,9-9.9
			c-1.3-6.1-10-9.7-15.3-11C46.4,192.6,28.8,190.4,26.8,201.5z M24.6,200.7c1.2-7.7,9.8-10.9,16.6-11.7c7.2-0.8,15.9,1,22,5.1
			c5.9,4,10.9,11.1,6.6,18.2c-4.2,6.9-13,7.9-20.3,7.9c-6,0-11.8-2.2-16.9-5.1C28,212.5,23,206.2,24.6,200.7z"/>
		<path class="st3" d="M28.9,176.6l3-8l39.3-6c-8.4-3.1-16.8-6.1-25.2-9.2c-1.1-0.4-2.2-0.8-3.3-1c-0.6-0.1-1.2-0.3-1.8-0.4
			c-1.2-0.3-2,1.6-2.3,1.9c-0.3,0.4-0.4,0.9-0.5,1.4l-1.2-0.5l3.7-10.2l1.2,0.4c-0.8,2-0.8,4,1.4,5.1c1.3,0.6,2.5,1.1,3.9,1.6
			c4.2,1.5,8.4,3.1,12.6,4.6c8,2.9,15.9,5.8,23.9,8.7l-0.3,0.8l-42.3,6.5c8.9,3.2,17.7,6.4,26.6,9.7c1.4,0.5,2.8,1,4.2,1.3
			c0.8,0.2,1.9,0.3,2.6-0.3c0.8-0.7,1.1-1.6,1.5-2.5l1.2,0.4L73.2,191l-1.2-0.4c0.1-0.4,0.3-0.8,0.4-1.1c0.1-0.4,1.1-2.5-1.1-3.6
			c-0.9-0.4-1.7-0.9-2.6-1.2c-1.2-0.4-2.3-0.9-3.4-1.3c-5.4-2-10.8-3.9-16.1-5.9c-4-1.4-8-2.8-11.9-4.3c-1.7-0.7-2.8-0.2-3.7,0.1
			c-1.6,0.6-3,1.9-3.4,3.8C29.8,176.9,29.3,176.7,28.9,176.6z"/>
		<path class="st3" d="M52.1,129.7l15.9,9.7c0.8-1.4,1.7-2.7,2.5-4.1c0.6-1.1,1.5-2.2,1.8-3.4c0.2-0.6,0.3-1,0.1-1.7
			c-0.1-0.7-0.5-1.1-0.9-1.7c-0.9-1.2-2-2-3.3-2.8l0.4-0.8l14.1,8.5l-0.4,0.8c-2.1-1-5.2-2.9-7.3-1c-0.9,0.9-1.6,2-2.2,3
			c-0.9,1.5-1.8,2.9-2.6,4.4c3,1.8,6.1,3.7,9.1,5.5c1.4,0.8,2.7,1.7,4.1,2.5c0.4,0.3,0.9,0.6,1.3,0.9c0.4,0.3,1.5,0.7,2,0.9
			c0.9,0.3,1.8,0.2,2.1-0.3c0.5-0.8,1.1-1.6,1.5-2.4c1-1.7,2.3-3.5,3-5.3c0.7-1.9,0.1-3.7-0.9-5.4c-1.1-1.7-2.2-3.3-3.5-4.9l0.5-0.8
			l8.7,8.5l-12.5,20.6l-1-0.6c0.5-1,0.9-1.7,0.9-2.9c0-0.8-0.6-1.8-1.2-2.4c-0.3-0.3-0.7-0.5-1-0.8c-0.7-0.4-1-0.6-1.5-0.9
			c-0.4-0.3-0.9-0.6-1.3-0.8c-4.3-2.6-8.6-5.2-12.9-7.7c-4.2-2.5-8.5-5.1-12.7-7.6c-1.3-0.8-2.6-1.7-4.1-2.3c-0.7-0.3-1.9-0.5-2.6,0
			c-0.9,0.6-1.4,1.4-1.9,2.4l-1.1-0.7l12.4-20.7l9,5l-0.4,0.8c-1.4-0.6-2.9-1.3-4.4-1.7c-0.8-0.2-1.5-0.1-2.2,0
			c-0.4,0.1-0.8,0.2-1.1,0.4c-0.4,0.2-0.4,0.4-0.8,0.9c-0.9,1.1-1.8,2.6-2.5,3.8C54.1,126.3,53.1,128,52.1,129.7z"/>
		<path class="st3" d="M110.8,119.2c1.8-0.8,3.8-1.9,4.9-3.5c1.2-1.6,2-3.6,2-5.6c0-1,0.1-2.1-0.1-3.1c-0.2-1-0.5-2-0.8-3
			c-0.6-1.9-1.7-3.9-2.9-5.5c-1.2-1.7-2.4-3.5-3.9-5c-1.6-1.5-3.1-3.1-4.8-4.5c-3.2-2.6-6.9-4.5-11-5.2c-2-0.3-4.1-0.2-6,0.6
			c-0.4,0.2-0.8,0.5-1.2,0.7c-0.4,0.2-0.9,0.6-1.2,0.9c-0.7,0.7-1.2,1.5-1.8,2.2c-0.2,0.2-1.5,2.1-1.3,2.3c0.2,0.2,0.5,0.5,0.7,0.7
			c1.3,1.4,2.7,2.7,4,4.1c7.6,7.8,15.3,15.5,22.9,23.3C110.4,118.9,110.6,119.1,110.8,119.2z M106.7,128l-0.9-0.9
			c0.7-0.6,1.6-1.4,1.8-2.3c0.2-1-0.4-1.8-0.7-2.7c-0.4-0.9-1.3-1.7-2-2.4c-0.4-0.4-0.7-0.7-1.1-1.1c-3.5-3.6-7-7.2-10.6-10.8
			c-3.4-3.5-6.8-7-10.2-10.5c-0.3-0.4-0.7-0.7-1-1.1c-0.7-0.6-1.5-1.7-2.4-2.1c-0.8-0.4-1.7-1-2.6-0.7c-1,0.4-1.6,0.9-2.4,1.6
			l-0.8-0.9c3.1-3.1,6.1-6.3,9.4-9.2c3.3-2.9,6.6-5.5,11.2-5.5c4.2,0,8.3,1.7,11.7,4.1c1.8,1.3,3.4,2.6,5.1,4
			c1.6,1.4,3.1,2.9,4.3,4.6c1.3,1.7,2.5,3.4,3.5,5.3c1,1.8,1.7,3.9,2.3,5.9c0.3,1,0.3,2,0.4,3c0.1,1,0.1,2.2-0.1,3.1
			c-0.4,1.8-1,4.2-2.2,5.6c-0.9,1.1-1.7,2.2-2.7,3.2c-0.9,0.9-1.9,1.8-2.8,2.7C111.5,123.3,109.1,125.6,106.7,128z"/>
		<path class="st3" d="M142,95.8l0.8,1l-10.8,7.8l-0.8-1c1.6-1.1,2.9-2.6,1.9-4.7c-0.7-1.5-1.7-2.7-2.6-4c-2.9-4.1-5.7-8.1-8.6-12.2
			c-2.9-4-5.7-8.1-8.6-12.1c-0.9-1.2-1.8-2.5-2.8-3.6c-1.6-1.6-3.6-1.1-5.3,0.1l-0.7-1l10.9-7.7l0.8,1c-0.8,0.6-1.7,1-2,2.1
			c-0.3,1-0.2,1.7,0.3,2.7c0.7,1.4,1.5,2.7,2.4,3.9c2.9,4.1,5.8,8.2,8.8,12.2c2.8,4,5.7,7.9,8.5,11.9c0.9,1.2,1.7,2.5,2.7,3.5
			c0.8,0.8,1.4,1.2,2.5,1.2c0.6,0,0.9,0,1.4-0.3C141.1,96.5,141.5,96.1,142,95.8z"/>
		<path class="st3" d="M159.8,35.7l6.3,12.8l-0.7,0.4c-0.7-0.8-1.3-1.6-2-2.4c-0.7-0.8-1.3-1.7-2.1-2.3c-0.9-0.6-1.7-1.4-2.7-1.9
			c-0.9-0.4-1.8-0.7-2.8-1c-1.7-0.5-4,0-5.4,0.9c-0.4,0.3-0.9,0.6-1.3,0.8c-0.5,0.3-0.8,0.8-1.3,1.2c-0.7,0.7-1.2,1.7-1.6,2.6
			c-1.5,4.1-0.9,8.5,0.1,12.7c0.9,4,2.6,8,4.9,11.5c2.3,3.5,5,7.2,8.8,9.2c3.7,1.9,8.6,1.4,11.6-1.5c0.8-0.7,1.8-1.7,1.4-2.6
			c-1.5-3.9-3.3-7.7-4.9-11.6c-0.6-1.3-1.2-2.6-1.9-3.9c-0.3-0.6-1.2-1.4-1.9-1.5c-0.9-0.2-1.8,0.3-2.7,0.5l-0.5-1.2l11.3-4.7
			l0.5,1.2c-3.9,1.1-1.5,5.6-0.4,8c1.7,4,5.1,12.1,5.1,12.1c0,2.2-3.6,6.7-9.3,8.3c-2.1,0.6-3.9,1-6.1,1c-2.2,0-4.1-0.8-6.1-1.7
			c-1-0.4-1.8-1-2.6-1.7c-0.8-0.7-1.7-1.2-2.5-2c-1.5-1.5-3-3.1-4.2-5c-2.2-3.5-4-7.6-4.7-11.7c-0.4-2.2-0.6-4.3-0.8-6.5
			c-0.1-1,0.2-2.2,0.3-3.2c0.1-1,0.1-2.1,0.4-3.1c0.6-2,1.3-4.2,2.7-5.8c1.4-1.6,3.1-3,5.1-3.8c1.5-0.6,2.7-0.9,4.3-0.9
			c1.6,0,3.8,0.5,5.1,0c0.4-0.1,0.3-1.1,0.1-1.7c-0.1-0.4-0.2-0.7-0.3-1.1C158.9,35.9,159.5,35.8,159.8,35.7z"/>
		<path class="st3" d="M194.6,72.1l0.3,1.3l-12.9,3.3l-0.4-1.2c1.9-0.4,3.9-1.5,3.4-3.8c-0.2-1-0.2-2.1-0.5-3.1
			c-0.4-1.2-0.7-2.5-1-3.8c-1.3-4.9-2.5-9.8-3.8-14.6c-1.2-4.7-2.3-9.5-3.6-14.2c-0.4-1.6-1.3-3.9-3.2-4.2c-0.3,0-2.3,0.3-2.3,0.4
			c-0.1-0.4-0.3-0.9-0.4-1.3l12.9-3.3l0.4,1.2c-2,0.5-3.4,1.3-3.4,3.5c0,2.3,0.8,4.6,1.4,6.8c1.2,4.9,2.5,9.8,3.7,14.6
			c1.2,4.7,2.5,9.4,3.6,14.2c0.3,1.2,0.7,2.7,1.5,3.6C191.4,72.9,193.2,72.6,194.6,72.1z"/>
		<path class="st3" d="M190.6,26.8l8.5-0.9L222,58.4c-1-8.9-2-17.8-3-26.7c-0.1-0.9-0.1-1.5-0.3-2.5c-0.2-0.8-0.2-1.7-0.6-2.3
			c-0.5-0.8-0.8-1.3-1.8-1.6c-0.7-0.2-1.7,0-2.4,0.1l-0.1-1.3l10.9-1.2l0.1,1.2c-0.9,0.1-2.1,0.2-2.8,0.9c-0.7,0.7-1.1,1.7-1.1,2.7
			c0,1.5,0.2,2.9,0.3,4.3c0.5,4.6,1,9.1,1.5,13.7c0.9,8.3,1.8,16.5,2.7,24.8l-0.8,0.1l-24.7-35c1,9.4,2,18.7,3.1,28.1
			c0.2,1.5,0.5,3,0.8,4.5c0.2,1,0.8,1.6,1.7,2.2c0.2,0.2,0.9,0.2,1.2,0.2c0.5,0,1.1-0.1,1.6-0.1l0.1,1.3l-10.9,1.2l-0.1-1.3
			c0.5-0.1,1-0.1,1.5-0.1c0.3,0,1.1-0.4,1.3-0.6c0.3-0.4,0.7-0.7,0.8-1.2c0.1-0.5,0.2-1,0.3-1.5c0.2-0.8,0-2.1-0.1-3
			c-0.1-0.5-0.1-0.9-0.2-1.4c-0.6-5-1.1-10-1.7-15c-0.6-5.2-1.2-10.5-1.7-15.7c0-0.3,0-0.7-0.1-0.9c-0.6-0.8-1.2-1.8-1.9-2.4
			c-0.7-0.7-1.5-1.1-2.4-1.4c-0.5-0.2-0.8-0.2-1.3-0.2c-0.3,0-0.6,0-0.9,0c-0.2,0-0.2-0.6-0.2-0.8C190.7,27.1,190.7,26.9,190.6,26.8
			z"/>
		<path class="st3" d="M243,26.4l-1.4,18.7c1.6,0.1,3.2,0.3,4.7,0.4c1.2,0.1,2.6,0.3,3.9,0.2c2.9-0.4,3.4-4.1,3.7-6.4h0.8l-1.2,16.5
			l-0.9-0.1c0-0.7,0.1-1.5,0-2.2c-0.1-0.6,0-1.3-0.2-1.9c-0.2-0.6-0.2-1.2-0.8-1.8c-0.4-0.5-0.9-0.7-1.5-1.1
			c-0.5-0.3-1.2-0.4-1.8-0.4c-0.6,0-1.2-0.1-1.8-0.1c-1.7-0.1-3.4-0.3-5.1-0.4c-0.4,4.9-0.7,9.8-1.1,14.7c0,0.6-0.2,1.3-0.2,1.9
			c0,0.8-0.2,2.1,0,2.8c0.1,0.3,0.3,0.8,0.5,1.1c0.4,0.4,0.7,0.3,1.2,0.4c1.1,0.2,2.2,0.2,3.2,0.3c1.4,0.1,3,0.4,4.4,0.3
			c1.3-0.1,2.4-0.5,3.5-1.2c0.5-0.3,1-1,1.4-1.5c0.4-0.6,0.8-1.3,1.2-2c0.3-0.7,0.8-1.3,1-2c0.3-0.7,0.6-1.3,0.9-2l0.9,0.1
			l-3.7,11.5l-24-1.8l0.1-1.3c1.1,0.1,1.8,0.2,2.8-0.3c0.4-0.2,0.8-0.5,1.1-0.9c0.3-0.4,0.4-0.9,0.6-1.4c0.4-1.4,0.4-3,0.5-4.5
			c0.4-4.9,0.8-9.9,1.2-14.8c0.4-5,0.8-9.9,1.2-14.9c0.1-1.5,0.2-3,0.2-4.6c0-1-0.3-1.8-1.1-2.5c-0.8-0.7-2-0.6-2.9-0.7l0.1-1.3
			l24.1,1.9l-0.5,10.3l-0.9-0.1c0-2.8-0.2-7.1-3.5-7.9C250.1,26.7,246.5,26.7,243,26.4z"/>
		<path class="st3" d="M302,35.2l-0.4,1.3c-2.4,0-3.6,1.4-5,3.2c-0.7,0.9-1.2,2-1.8,3c-2.5,4.2-5,8.4-7.5,12.7
			c-4.2,7.1-8.5,14.3-12.7,21.4l-0.9-0.3c-0.2-9.8-0.4-19.6-0.5-29.4c-0.1-3.9-0.1-7.7-0.2-11.6c0-0.2,0-0.5,0-0.7
			c-0.1-1.1,0-2-0.1-3c-0.1-1-0.5-1.8-0.9-2.7c-0.4-0.7-1.5-1.2-2.2-1.5l0.4-1.2l12.3,3.4l-0.3,1.2c-0.8-0.2-2.1-0.3-2.8,0.1
			c-0.8,0.5-1.2,1.3-1.4,2.2c-0.5,1.7-0.4,3.5-0.3,5.2c0.1,4.7,0.2,9.5,0.3,14.2c0.1,4.6,0.2,9.3,0.3,13.9
			c4.7-7.9,9.4-15.8,14.1-23.7c0.3-0.5,0.6-1.1,0.9-1.6c0.2-0.3,0.3-0.7,0.5-1c0.2-0.4,0.5-0.8,0.6-1.2c0.2-0.9,0.5-1.4,0.5-2.3
			c0-0.4,0-0.7-0.2-1.1c-0.2-0.4-0.3-0.6-0.6-1c-0.3-0.3-1.2-0.7-1.5-1c0.1-0.4,0.2-0.8,0.3-1.2C295.7,33.5,298.8,34.4,302,35.2z"/>
		<path class="st3" d="M308.5,63.3c1.7,1.2,3.8,1.7,5.9,1.7c2.2,0,4-1.3,5.5-2.7c1.6-1.5,2.5-3.5,3.4-5.5c0.7-1.7,1.2-4.4,0.7-6.2
			c-0.2-0.8-0.7-2.1-1.4-2.6c-0.4-0.3-0.7-0.8-1.1-0.9c-0.5-0.2-0.9-0.5-1.3-0.7c-0.4-0.2-0.9-0.3-1.4-0.4c-0.1,0-1.3-0.2-1.3-0.2
			c-0.3,0.5-0.5,1-0.8,1.5c-2.5,5-5.1,10-7.6,15C308.8,62.6,308.7,63,308.5,63.3z M317.5,95l-7.6-3.8l0.5-24.6
			c-0.5-0.1-1-0.3-1.5-0.6c-0.6-0.3-1-0.4-1.4-0.9c-2,4-4.1,8-6.1,12c-0.3,0.6-0.5,1.2-0.8,1.9c-0.4,0.9-0.9,1.7-1.1,2.6
			c-0.2,0.9,0,1.7,0.3,2.5c0.2,0.8,1.7,1.4,2.4,1.7l-0.6,1.2l-11.9-6l0.5-1.2c0.9,0.5,1.7,0.8,2.7,0.8c1,0,1.7-0.8,2.4-1.4
			c0.7-0.7,1.2-1.8,1.6-2.7c0.2-0.4,0.4-0.9,0.7-1.3c2.3-4.5,4.5-9,6.8-13.5c2.2-4.4,4.4-8.8,6.6-13.1c0.7-1.4,1.3-2.8,1.8-4.2
			c0.9-2.2-0.6-3.6-2.5-4.5l0.5-1.2c3.9,2,7.9,4.1,11.8,6.1c1.8,0.9,3.6,2.1,4.8,3.7c0.5,0.7,0.8,1.9,1.1,2.7
			c0.4,0.9,0.3,2.1,0.3,3.1c0,3.4-1.6,7.3-4,9.8c-0.7,0.7-1.3,1.3-2.1,1.9c-0.7,0.6-1.5,0.9-2.3,1.3c-1.7,0.8-3.8,0.9-5.6,0.7
			c-0.1,4.8-0.2,9.7-0.2,14.5c0,1.8-0.2,3.6,0.1,5.4c0.3,2.1,0.9,3.7,2.4,5.2c0.1,0.1,0.9,0.7,0.9,0.8
			C318.1,94.1,317.6,94.8,317.5,95z"/>
		<path class="st3" d="M349.5,95.7c2.4-6,4.8-12,7.2-18c-5.3,3.8-10.5,7.7-15.8,11.5C343.8,91.3,346.6,93.5,349.5,95.7z M348.5,98
			c-3-2.3-6-4.5-9-6.8c-0.9-0.7-0.8-0.5-1.9,0.3c-1.9,1.3-3.9,2.6-5.6,4.1c-1.3,1.1-3.6,2.8-2.8,4.8c0.1,0.3,1.5,2,1.5,2
			c-0.2,0.3-0.5,0.7-0.7,1c-2.5-2-5.1-4-7.6-6c-0.2-0.1,0.1-0.3,0.2-0.5c0.4-0.7,0.4-0.6,1.3-0.4c0.9,0.3,1.4,0.3,2.3,0.1
			c1-0.3,1.9-0.8,2.8-1.3c3.6-2.4,7-5,10.5-7.6c7.4-5.4,14.8-10.9,22.3-16.3c0.3-0.2,2.1-1.7,2.3-1.6c0.7,0.6,0.5,0.6,0.2,1.5
			c-0.9,2.3-1.8,4.5-2.7,6.8c-1.7,4.3-3.5,8.7-5.2,13c-2,4.9-3.9,9.8-5.9,14.7c-0.9,2.4-4.5,8.9-1,10.8c-0.3,0.3-0.5,0.7-0.8,1
			c-3.3-2.5-6.5-5-9.8-7.6c0.2-0.2,0.4-0.5,0.6-0.7c0.4-0.5,1.3,0.4,1.8,0.6c1.3,0.6,2.7-0.9,3.2-1.9
			C345.9,104.7,347.1,101.4,348.5,98z"/>
		<path class="st3" d="M378.8,139.2l-8.5,3.4l-10.8-14.9c1-0.7,1.6-0.8,2.9-0.8c1.6,0,3.2,0,4.9,0c3.1-0.1,6.3-0.1,9.4-0.5
			c5.8-0.6,11.6-1.6,16.5-4.9c3.2-2.1,7.1-5.7,6-10.1c-0.6-2.3-2.9-3.5-5.2-3.6c-1.4-0.1-2.8,0.2-4.1,0.6c-0.6,0.2-1.2,0.4-1.7,0.7
			c-0.2,0-0.5-0.5-0.6-0.7c4.2-2.2,11.3-5.6,15.3-1.1c3.8,4.3,1.2,10.4-2.5,13.8c-4.1,3.7-9.6,5.5-15,6.3c-3.1,0.4-6.3,0.5-9.4,0.8
			c-3.1,0.2-6.3,0.6-9.4,0.5c1.9,2.6,3.7,5.2,5.5,7.8c0.8,1.1,1.9,2.1,3.3,2.3c0.8,0.1,1.5,0,2.3-0.1
			C378.3,138.5,378.4,138.7,378.8,139.2z"/>
		<path class="st3" d="M390,160.3l-8.9,2.2l-8.6-16.4c0.6-0.3,0.9-0.6,1.6-0.5c1.6,0.3,3.1,0.6,4.7,0.8c3,0.4,6,0.5,8.9,0.8
			c5.6,0.6,12.1,0.4,17.4-1.6c3.9-1.4,9.8-5.1,8.9-10c-0.4-2.3-2.4-3.8-4.6-4.2c-1.3-0.2-2.7-0.1-4.1,0.1c-0.6,0.1-1.2,0.2-1.8,0.4
			c-0.1-0.1-0.3-0.7-0.4-0.8c4.6-1.8,12.3-3.8,15.5,1.5c3,5-1.1,10.7-5.4,13.3c-10,6.3-23.1,2.9-34,2.3c1.5,2.9,3,5.7,4.6,8.5
			c0.8,1.3,1.5,2.4,3.1,2.8c0.7,0.2,1.4,0.2,2.1,0.2C389.8,159.5,389.8,159.7,390,160.3z"/>
		<path class="st3" d="M410.1,193.2l16.8-9.7c-6.5-0.3-13-0.5-19.5-0.8C408.3,186.2,409.2,189.7,410.1,193.2z M407.8,194.4l-3-11.8
			c-3-0.1-6-0.2-9-0.3c-0.7,0-1.4-0.1-2.1,0.1c-0.4,0.1-0.6,0-0.9,0.2c-0.3,0.2-0.6,0.3-0.9,0.5c-1,0.6-0.8,2.6-0.6,3.5l-1.2,0.3
			l-2.5-9.5l1.2-0.3c0.2,0.4,0.5,0.8,0.8,1.2c0.2,0.4,0.6,0.6,1,1c0.6,0.6,2,0.5,2.8,0.6c1.6,0.2,3.2,0.3,4.8,0.4
			c4.3,0.2,8.7,0.3,13,0.5c8.8,0.3,17.5,0.7,26.3,1l0.2,0.8c-8.6,4.9-17.1,9.8-25.7,14.7c-3,1.7-5.9,3.4-8.9,5.1
			c-2.5,1.4-7,3.5-6.1,7.1l-1.2,0.3l-3-12.1l1.2-0.3c0.3,1.4,1.1,2.2,2.5,2.6c0.5,0.1,1.4-0.3,1.8-0.4c0.6-0.2,1.3-0.6,1.8-0.8
			c1.1-0.5,2.2-1.3,3.3-1.9C404.9,196,406.3,195.2,407.8,194.4z"/>
		<path class="st3" d="M444,236.1l-14.2,1.4l0-0.8c2.6-1,5.8-1.6,7.9-3.6c2.2-2.1,3.9-4.5,3.5-7.8c-0.4-2.8-1.7-5.1-4-6.7
			c-2.3-1.6-5.2-2.5-7.9-3c-5.8-1.1-12.3-1-18,0.6c-2.9,0.8-5.5,2-8,3.6c-2.2,1.4-4.4,4.2-4.5,7c-0.1,3,0.9,5.1,2.7,7.5
			c4.3-0.2,8.7-0.4,13-0.6c1.4-0.1,3.3,0.1,4.6-0.5c0.7-0.3,1.4-0.9,1.7-1.6c0.3-0.8,0.1-1.4,0.2-2.2l1.3-0.1l0.5,12.1l-1.3,0.1
			c0.4-3.5-3.5-3.2-5.8-3.3c-3.3-0.2-6.6,0.2-9.8,0.3c-1.6,0.1-3.2,0.1-4.8,0.2c-0.9,0-1.5-1.7-2.1-2.6c-0.7-1.1-1.4-2.6-1.9-3.8
			c-0.5-1.3-0.7-3-0.7-4.4c-0.1-2.7,0.4-5.8,1.8-8.1c0.8-1.3,1.6-2.4,2.7-3.4c1.1-1,2.2-1.7,3.5-2.6c5.2-3.4,11.2-4,17.2-4.1
			c1.4,0,2.9,0.3,4.4,0.6c1.5,0.3,2.9,0.5,4.3,1c2.8,1.1,5.8,2.2,8.1,4.1c2.3,1.9,3.9,4.1,4.8,6.9c0.4,1.3,0.5,3,0.5,4.4
			c-0.1,1.4-0.6,2.6-1.1,3.8c-0.3,0.9-2.1,3.2-1.3,4.1c0.4,0.5,0.8,0.6,1.5,0.7c0.3,0,0.7,0,0.9,0C444.1,235.5,444,235.4,444,236.1z
			"/>
		<path class="st3" d="M438.7,265.8c0.5-10.5-16.2-13.3-24-13.7c-5-0.2-10.8-0.6-15.1,2.5c-4.2,3-3.4,8.2-0.1,11.5
			c5.3,5.5,14.1,5.9,21.2,7c3.5,0.5,7.7,0.4,11-0.6C435.5,271.4,437.4,269.5,438.7,265.8z M441,266.7c-3.1,10.9-15.8,12.4-25.5,11.1
			c-9.6-1.2-22.9-8.3-21-19.7c1.9-10.9,17.3-12.3,25.8-10.7c9.6,1.8,21.3,7.4,20.7,18.7C441,266.3,441,266.5,441,266.7z"/>
		<path class="st3" d="M428.6,311.1l-14.7-5.3l0.3-0.8c4.3,1.4,11.2,2.1,14.2-2.2c3.2-4.5-1.2-9.4-6-9.6c-4.7-0.2-9.7,3.8-13.5,6.3
			c-4.8,3.1-9.8,3.3-15,1.2c-5.3-2.1-9.6-8.4-6.7-13.9c1.1-2,2.7-3.2,4.1-5c1.2-1.6,0.4-2.3-1.3-3.1l0.3-0.9l14.7,5.3l-0.3,0.8
			c-4.9-0.8-10.5-2.1-14.1,2.3c-4,4.9,0.4,9.9,5.5,10.9c4.5,0.9,9.8-3,13.4-5.4c4.5-2.9,9.8-4.1,14.8-1.9c3.6,1.6,7.7,4.6,8,8.9
			c0.2,2.3-0.7,4-1.9,5.9c-0.9,1.4-3,2.1-3.6,3.7C427.1,309.5,429.2,310.3,428.6,311.1z"/>
		<path class="st3" d="M411.2,345.6l-9.8-5.2l0.4-0.8c2.2,1,5.1,2.3,7.5,1.3c2.3-1,3.4-4.2,4.5-6.2c-8.1-4.5-16.2-9-24.3-13.5
			c-2.7-1.5-5.5-3.2-8.3-4.5c-3.2-1.5-5.1-2.4-7.1,1.1l-1-0.6l6.4-11.6l1.1,0.6c-0.6,1.2-1.5,2.3-0.7,3.7c0.7,1.2,1.8,2.1,3.1,2.8
			c2.8,1.5,5.5,3,8.2,4.5c8.2,4.6,16.5,9.2,24.7,13.8c1.1-1.9,3.5-4.9,2.8-7.3c-0.7-2.3-3.1-4.1-5-5.3l0.4-0.8
			c2.8,1.7,5.6,3.4,8.5,5.1c0.7,0.4,1.1,0.4,0.7,1.1c-0.7,1.2-1.4,2.5-2,3.7C417.9,333.4,414.5,339.5,411.2,345.6z"/>
		<path class="st3" d="M393.8,364.4c9.6-10.5-18.9-31.1-28.4-29.4c-7.2,1.3-6.7,9.1-3.8,14c4.4,7.4,13.6,14.7,21.7,17.3
			C386.8,367.4,391.6,367.9,393.8,364.4z M395.4,366.3c-4.3,6.4-15.1,4.1-20.7,1.3c-7.9-4.1-15.9-11.8-17.6-20.9
			c-1.3-7,2.2-13.8,9.7-15c9-1.5,18.6,4.8,24.4,11.1C396.2,348.3,402,359.7,395.4,366.3z"/>
		<path class="st3" d="M363.8,386.8c-0.5,1.7-0.9,3.3-1.4,5c-0.4,1.5-0.5,3.5-1.6,4.6c-6.2-7.7-12.4-15.4-18.6-23.1
			c-2-2.4-3.9-4.9-5.9-7.3c-1-1.2-2-2.4-3.1-3.5c-1.4-1.4-3-0.3-4.4,0.6l-0.8-0.9l9.2-7.4l0.8,0.9c-0.6,0.6-1.6,1.3-1.8,2.1
			c-0.3,0.9,0.1,1.9,0.6,2.7c0.9,1.2,1.8,2.5,2.8,3.7c3.5,4.2,6.9,8.5,10.4,12.7c1.4,1.7,2.7,3.4,4.1,5c0.7,0.9,1.4,2,2.2,2.8
			c1.3,1.3,2.2,2.9,3.7,3.8c1.9,1.2,2.5-0.7,3.1-2.2C363.2,386.4,363.5,386.6,363.8,386.8z"/>
		<path class="st3" d="M327.1,389.7c0.2-2.2,0.1-4.1-0.3-6.2c-0.4-2-1.3-3.8-2.3-5.6c-1.1-1.8-2.5-3.4-4.3-4.5
			c-1.6-1-3.9-1.6-5.5-0.3c-0.4,0.3-0.8,0.5-1.1,0.9c-0.3,0.4-0.5,0.8-0.7,1.2c-0.4,0.8-0.6,1.9-0.4,2.9c0.4,2.2,1.2,3.7,2.5,5.5
			c1.1,1.5,3.3,2.6,4.9,3.3c2,0.9,4,1.5,6,2.3C326.2,389.3,326.6,389.5,327.1,389.7z M327.4,395.2c-0.1,1-0.3,2.1-0.3,3.1
			c0,1-0.1,2.1,0.1,3.1c0.2,0.9,0.4,2,0.8,2.9c0.5,0.9,0.9,2.1,1.5,2.9c1.2,1.5,2.8,3.6,5,3.6c0.5,0,1,0.1,1.5-0.1
			c0.5-0.1,0.9-0.5,1.4-0.7c1-0.5,1.4-1.4,1.9-2.3c0.7-1.4,0.2-3.1-0.1-4.4c-0.4-1.4-1.6-3-2.7-3.9c-1.2-0.9-2.3-1.7-3.8-2.2
			C330.9,396.4,329.1,395.8,327.4,395.2z M328.6,390.2c1,0.3,1.9,0.7,2.9,1c0.9,0.3,2,0.7,2.8,1.2c0.5,0.3,0.9,0.6,1.4,0.8
			c0.4,0.2,0.8,0.8,1.1,1c0.9,0.7,1.6,1.5,2.3,2.4c1.2,1.5,2.4,3.6,2.7,5.5c0.3,2.1,0.5,4.4-0.4,6.3c-0.9,2-2.8,3.1-4.7,4
			c-0.4,0.2-0.9,0.3-1.3,0.3c-0.5,0-1,0.2-1.5,0.1c-0.4-0.1-1.1,0-1.5-0.2c-0.5-0.3-1-0.5-1.6-0.6c-0.8-0.2-1.7-1.2-2.4-1.7
			c-0.8-0.7-1.5-1.5-2.1-2.4c-1.1-1.6-1.9-3.8-1.9-5.7c0-2.6,0.6-5.2,1.3-7.7c-4-1-8.1-2.7-11.1-5.6c-2.9-2.8-5-7.2-4.4-11.3
			c0.3-2.3,1.1-3.9,2.8-5.5c1.4-1.4,3.5-1.9,5.4-1.9c4.2,0,7.7,3.6,9.6,7C330.2,381,329.6,386,328.6,390.2z"/>
		<path class="st3" d="M307.7,401.4c-0.7-1.8-1.3-3.8-2-5.6c-0.7-2.1-1.7-4-2.9-5.8c-1.2-1.7-2.3-3.4-3.8-4.8
			c-0.6-0.6-1.5-1.3-2.3-1.6c-0.5-0.2-0.8-0.2-1.3-0.2c-0.6,0-0.9,0.1-1.4,0.3c-1.9,0.7-2.3,3-2.3,4.9c0,2,0.5,4.2,1.3,6
			c0.4,1,0.8,2.1,1.4,3c0.5,0.9,0.8,1.8,1.4,2.6c1.3,1.6,2.2,3.6,4,4.8c0.5,0.3,1,0.7,1.6,1c0.5,0.4,1,0.4,1.8,0.5
			c0.3,0,0.6,0,0.9-0.1c0.3-0.1,0.3-0.1,0.7-0.4c0.4-0.2,1.1-0.8,1.3-1.1C306.5,403.6,307.2,402.6,307.7,401.4z M303.6,428.6l-0.4-1
			c0.7-0.7,1.7-1.1,2.4-1.9c0.7-0.7,1.3-1.4,1.8-2.3c1.1-1.8,1.5-3.9,1.8-5.9c0.2-1,0.3-2,0.4-3c0.1-1.1-0.1-2.1-0.1-3.1
			c-0.1-2.2-0.4-4.5-0.9-6.6c-0.1-0.3-0.2-0.6-0.2-0.9c-0.7,2-1.8,3.6-3.5,4.9c-0.8,0.6-1.8,1.1-2.9,1.2c-1,0.1-2-0.3-3-0.6
			c-0.9-0.3-1.9-1.1-2.7-1.7c-0.8-0.7-1.6-1.4-2.3-2.2c-1.3-1.5-2.4-3.5-3.1-5.4c-1.6-4-2.2-8.2-1.5-12.5c0.3-1.8,1-3.8,2.5-5
			c1.7-1.4,3.6-1.8,5.7-1.4c1.8,0.3,3.9,1.9,5.3,3.1c1.6,1.3,2.9,3,4.1,4.7c2.4,3.5,4,7.5,5.1,11.6c1.1,4.2,1.4,8.5,1,12.8
			c-0.4,4-1.6,8.4-4.1,11.6C307.6,426.8,305.6,427.8,303.6,428.6z"/>
		<path class="st3" d="M274.7,405.9l6,22.2c1.5-8.4,3.1-16.7,4.6-25.1C281.7,404,278.2,404.9,274.7,405.9z M266.9,408l-1.3-4.7
			l4-1.2l-3.1-11.8l3.6-0.9l3.3,11.8l12.8-3.4c0.3,1.2,0.6,2.4,0.9,3.6c0.1,0.4,0.2,0.6,0.1,1c-0.3,1.8-0.6,3.5-1,5.3
			c-1.1,6.2-2.3,12.3-3.4,18.5c-0.6,3.1-1.1,6.1-1.7,9.2l-2.3,0.7c-2.5-9.3-5-18.7-7.5-28c-0.1-0.4-0.2-0.8-0.3-1.1
			C269.7,407.2,268.3,407.6,266.9,408z"/>
		<polygon class="st3" points="194.8,120.9 194.8,194.8 120.9,194.8 120.9,268.7 194.8,268.7 194.8,342.5 268.7,342.5 268.7,268.7 
			342.5,268.7 342.5,194.8 268.7,194.8 268.7,120.9 		"/>
	</g>
</g>
</svg>
