<svg id="Layer_1" data-name="Layer 1" xmlns="http://www.w3.org/2000/svg" viewBox="0 0 600 155.2"><polygon points="531.2 0 531.2 34.4 496.8 34.4 496.8 68.8 531.2 68.8 531.2 103.2 565.6 103.2 565.6 68.8 600 68.8 600 34.4 565.6 34.4 565.6 0 531.2 0" fill="#df271c"/><path d="M242,123.6c0,5.7-2.7,7.5-8,7.5h-5.6V116.2H234c5.3,0,8,1.7,8,7.4m13.3,30.7-12.6-18.4.1-.4c5.7-2.2,8.6-6.5,8.6-12.1,0-10.1-6.4-13.8-16.3-13.8H219.6v44.6h8.9V137.5h5.3l10.4,16.7h11.1Z" fill-rule="evenodd"/><path d="M277.7,134.5H263.9c0-4.5,1.9-8.5,6.9-8.5,5.9,0,6.9,4.2,6.9,8.5m-4.5,20.6a56.88,56.88,0,0,0,11.6-1.3v-5.7a41.83,41.83,0,0,1-9.4,1.1c-5.5,0-10.9-1.5-11.4-9h23.4c.3-13.4-3.9-19.9-16-19.9-11.2,0-16.7,6.9-16.7,17.8-.1,12.7,8.3,17,18.5,17" fill-rule="evenodd"/><path d="M313.3,148a26.32,26.32,0,0,1-5.6.3c-6.3-.2-8.1-5.8-8.1-10.5,0-6.3,2.2-11.1,8.8-11.1a47.47,47.47,0,0,1,4.9.3v21Zm8.9,5.5c.1-1.7,0-47,0-47h-8.8v14.1c-2.4-.2-4.4-.3-5.5-.3-10.6,0-17.2,6.9-17.2,17.5,0,11.4,8.3,17,18.7,17a74.46,74.46,0,0,0,12.8-1.3" fill-rule="evenodd"/><path d="M366.8,116a62.41,62.41,0,0,1,8.4.7V110a64.61,64.61,0,0,0-11.1-1c-13,0-23.5,7.1-23.5,23.1s10.6,23.1,23.5,23.1a64.61,64.61,0,0,0,11.1-1v-6.7a62.41,62.41,0,0,1-8.4.7c-10.9,0-16.5-4.4-16.5-16,.1-11.8,5.6-16.2,16.5-16.2"/><path d="M399.8,128v-7.4a20.33,20.33,0,0,0-12.7,3.3c-.1,0,0-3.1,0-3.1h-7.8v33.5h8.8V130.2c3.1-2.3,8.4-2.2,11.7-2.2"/><path d="M426.2,137.7c0,7.3-2,11.2-8.1,11.2s-8.2-3.9-8.2-11.2,2-11.3,8.2-11.3,8.1,3.9,8.1,11.3m9.2-.1c0-10.6-6.5-17.5-17.3-17.5-11,0-17.4,6.8-17.4,17.5,0,10.4,6.3,17.5,17.4,17.5,10.1-.1,17.3-7.1,17.3-17.5" fill-rule="evenodd"/><path d="M466.1,143.6c0-7.1-7-8.9-11.1-9.7-3.2-.6-8-1.2-8-4.2s4.4-3.6,7.1-3.6a52.31,52.31,0,0,1,9.7,1.1v-6a65,65,0,0,0-11.4-1c-6,0-14.4,2-14.4,10.3,0,7.8,8.4,9.4,10.2,9.8,5.2,1.2,8.6,1.3,8.6,4.5s-4.6,4-7.9,4a43.62,43.62,0,0,1-10.6-1.6v6.3a57.92,57.92,0,0,0,12,1.3c9.5.2,15.8-4,15.8-11.2"/><path d="M496.9,143.6c0-7.1-7-8.9-11.1-9.7-3.2-.6-8-1.2-8-4.2s4.4-3.6,7.1-3.6a52.31,52.31,0,0,1,9.7,1.1v-6a65,65,0,0,0-11.4-1c-6,0-14.4,2-14.4,10.3,0,7.8,8.4,9.4,10.2,9.8,5.2,1.2,8.6,1.3,8.6,4.5s-4.6,4-7.9,4a44.38,44.38,0,0,1-10.6-1.6v6.3a57.92,57.92,0,0,0,12,1.3c9.5.2,15.8-4,15.8-11.2"/><polygon points="9.4 116.3 9.4 128.8 24.4 128.8 24.4 136 9.4 136 9.4 154.3 0 154.3 0 109.1 30.1 109.1 30.1 116.3 9.4 116.3"/><path d="M32.7,120.4h9.2v33.9H32.7Zm0-14.5h9.2v8.5H32.7Z"/><path d="M70,154.3V132.2c0-1.7-.2-5-4.8-5a28.32,28.32,0,0,0-8.5,1.9v25.1H47.5V120.3h8.3v3c3.8-1.7,8.5-3.5,13-3.5,4.8,0,10.4,2.8,10.4,10.6v23.8H70Z"/><path d="M107.1,154.3V132.2c0-1.7-.2-5-4.8-5a28.32,28.32,0,0,0-8.5,1.9v25.1H84.6V120.3h8.3v3c3.8-1.7,8.5-3.5,13-3.5,4.8,0,10.4,2.8,10.4,10.6v23.8h-9.2Z"/><path d="M121.7,120.4h9.2v33.9h-9.2Zm0-14.5h9.2v8.5h-9.2Z"/><path d="M146.9,154.9a56,56,0,0,1-12.5-1.4v-6.4a47,47,0,0,0,11,1.6c3.4,0,8.2-.8,8.2-4.1s-3.5-3.4-8.9-4.6c-1.9-.5-10.6-2-10.6-9.9,0-8.5,8.8-10.5,15-10.5a70.83,70.83,0,0,1,11.9,1v6.1a57.08,57.08,0,0,0-10.1-1.1c-2.9,0-7.4.5-7.4,3.7s5,3.6,8.3,4.3c4.3.8,11.6,2.6,11.6,9.8s-6.5,11.5-16.5,11.5"/><path d="M189.4,154.3V132.6c0-2.3-.8-5.4-4.8-5.4a31.68,31.68,0,0,0-8.8,1.9v25.1h-9.2V105.8h9.2V123c3.3-1.4,7.8-3.2,11.5-3.2,5.1,0,11.2,2.4,11.2,10.6v23.8h-9.1Z"/></svg>