<svg id="Layer_1" data-name="Layer 1" xmlns="http://www.w3.org/2000/svg" viewBox="0 0 460 539.62"><path id="path103000" d="M230,2.3c84.85,0,154.05,69.22,154.05,154.08s-69.2,154-154,154-154-69.2-154-154S145.15,2.3,230,2.3" fill="#fff"/><path id="path103004" d="M230,2.3c84.85,0,154.05,69.22,154.05,154.08s-69.2,154-154,154-154-69.2-154-154S145.15,2.3,230,2.3Z" fill="none" stroke="#231f20" stroke-miterlimit="2.61" stroke-width="4.61"/><path id="path103008" d="M100.05,195.25a12.9,12.9,0,0,0-5.41,16.86c4.09,9,13.47,11.37,21.66,7.71s13-11.7,9-20.23c-3-6.49-9.5-9.43-16.75-7.16l1.77,4.9c4.35-1.45,9,0,11,4.45,2.74,6.16-2.11,10.75-7.62,13.21s-11.92,1.66-14.65-4.52c-1.87-4.18-.18-7.58,2.73-9.88l-1.72-5.34ZM84.91,175.51c1.08,9.31,9.7,14.65,18.55,13.24s15.48-7.55,14.19-16.94-9-13.19-17.81-12.68-16,7-14.93,16.38m4.53-.73C88.68,168,94,165,100,164.36s12.36,1.47,13.22,8.14-4.89,9.9-10.85,10.81-12.17-1.84-12.93-8.53m26.52-19,.22-5-23.82-2.15L117,142.49l.45-4.51L94.68,124.41l24.59,4.76,1.26-4.89L88.86,118l-1.49,7.36,23,13.68v.08L84.47,144.9l-.37,8.42L116,155.81Zm6.11-35.43L124,115.2,93.87,104,92,109.2Zm-21.88-19.5L104.86,92l22.9,14.24,2.59-4.87-22.8-14.22,4.91-8.93-4-2.46L95.76,98.87ZM136,91.78l14.61-17.22-3.31-3.42L136.14,84.52l-7.23-6.38L138.82,66l-3.12-3.12L125.39,75l-6.29-5.7,11.1-12.66-3.4-3.59L112.07,70.55,136,91.78ZM167.68,61l4.67-2.91-16.88-27.2-4.65,2.91L167.68,61Zm9-5.42,4.61-2.22L172,32.07l.14-.07,21.26,16.33,5.52-1.63-9.73-30.46-5.23,1.53,7,22.7h-.26L169.12,23.63l-5.32,2.69,12.88,29.26ZM194,20.05l9.38-1.57,4.13,26,5.44-.87-4.13-26,9.77-1.74-.51-5-25.4,4.32L194,20.05ZM223.79,42.6l22.93.84.08-4.75L229.37,38l.3-9.63,15.84.36.06-4.48-15.82-.37.13-8.57,17,.84.09-4.76-22.47-.93-.69,32.19Zm38.66-23.84,8.69,2.37c2.76.73,4.72,2.7,3.62,6.53-.92,3.18-2.9,4.27-6.23,3.35l-9-2.48ZM249.77,44l5,1.13,3.57-12.58,8.11,2.23c4.87,1.34,5,4.17,3.39,9.72a9,9,0,0,0-.47,4.8L275,51.58c-.81-1.56-.25-5.71.75-9.23,1.37-4.78-.58-6.89-2.35-7.66l0-.09c1.06,0,5.2-.37,6.85-6.18,1.48-5.12-.71-9.62-7.34-11.46l-14.53-4L249.77,44Zm27.41,8.56L282,54.82l10.8-20.33.13.07,1.71,27.91,4.54,3.36,17.18-26.92L312,35.46,299.23,55.38,297.59,26.9l-5.35-2.64L277.18,52.55Zm52.63,5,.07.06h0l-6.4,13.64-6.71-7,13-6.74Zm-29.34,9.23,4.45,3.72,7.95-4.17,8.84,9L317.85,84l3.66,4.54,14.23-32.81-4.28-4.11-31,15.13Zm39.66,1.48,5.2,7.56L323,90.8l3,4.6,22.37-15L354,88.7l4.09-2.35-14.18-21-3.77,2.94Zm-8.5,36.61,2.32,5,29-13.72-2.34-5-29,13.71Zm39.64,13c-2.55-9-11.34-12.74-19.93-9.87s-14.25,10.35-11.77,19.41c2.42,8.86,11,11.93,19.65,9.6s14.59-10.18,12-19.14m-4.34,1.41c1.8,6.34-3.37,11.17-9.21,12.67s-12.14.53-13.87-5.84S347.2,115,353,113.24s12.13-.45,14,6M343.34,144l.29,5.23,23.29-1.28v.14l-23.27,15.38-.28,5.83L375.06,172l.55-5.94-23.79-1.59v-.33l24-15.54-.41-6.21L343.34,144Zm22.1,49.54,0,.08,0,.06-15,.35,2.73-9.23,12.34,8.74ZM343,171.81l-.83,5.64,7.37,4.77-3.57,12.05-8.7.55-2,5.47,34.54-2.35,1.63-5.61L343,171.81Zm-8.75,31-10.41,18.77,4.16,2.31,7.74-14,24,13.36,2.66-4.79-28.12-15.68" fill="#231f20"/><path id="path103012" d="M301.59,284l18.63-12.76-2.66-4L303.47,277l-5.29-7.83L311,260.13l-2.53-3.75-12.8,9-4.73-7.34,13.95-9.62-2.69-4-18.47,12.6L301.59,284Z" fill="#231f20"/><path id="path103016" d="M277.62,294.78l5.72-2.07-1.9-34.55-5,2.25,1.83,27.1-.09.05-16.7-21.69-5.35,1.58,21.5,27.33Z" fill="#231f20"/><path id="path103020" d="M236.89,302.32l22.43-2.69-1-4.6-16.8,1.91-1.18-9.64,14.72-1.77-.89-4.41-14.55,1.74-1-8.68,16.27-1.66L254,267.8l-20.82,2.51,3.67,32Z" fill="#231f20"/><path id="path103024" d="M167.84,288.5l21.26,7.93,1.22-4.57L174.58,286l3.18-9.06,14.17,5.44,1.14-4.31-13.85-5.34,2.89-8.35,15.15,6.13,1.22-4.5-19.71-7.77L167.84,288.5Z" fill="#231f20"/><path id="path103028" d="M168.28,269.89l-11.2-7.09-2.35,3.41,7.28,4.64c-3.07,4.29-7.9,5.33-12.57,2-5.54-3.93-4.49-10.59-1.11-15.52s8.9-7.91,14.48-4c3.28,2.27,5.1,6.1,3.22,9.77l4.69,2.67c3.26-6.26.3-12.16-5.4-16.1-7.82-5.47-16.55-2.81-21.56,4.52s-4.62,16.92,3.17,22.35c3.2,2.23,6.14,2.65,10.46,1.63l-.75,4.49,2.94,1.72,8.7-14.5" fill="#231f20"/><path id="path103032" d="M198,298.81l5.28,1.11,4.17-23.4.13,0L220.19,302l5.9.31,1.5-32.07-4.94-.14-1,23.53-.09,0L209,268.35l-5.58-1.15L198,298.81Z" fill="#231f20"/><path id="path103036" d="M230,50.63c58.23,0,105.76,47.52,105.76,105.74S288.23,262.11,230,262.11a105.74,105.74,0,0,1,0-211.48Z" fill="none" stroke="#231f20" stroke-miterlimit="2.61" stroke-width="4.61"/><path id="path103040" d="M207.58,134V80.08h44.84V134h53.85v44.86H252.42v53.84H207.58V178.81H153.72V134Z" fill="#ed1c24"/><path id="path103042" d="M0,391H19.29V536.15H0V391Z" fill="#231f20"/><path id="path103046" d="M153.68,434.73c-4.06-20.51-20.51-30.88-40.61-30.88-34.5,0-49.12,28.44-49.12,58.73,0,33.13,14.62,60.78,49.32,60.78,25.38,0,40-17.89,41.83-41.87h19.27c-3.64,36.18-26.17,58.13-62.71,58.13-45.07,0-67-33.34-67-75.61,0-42.08,24-76.42,68.6-76.42,30.26,0,55.23,16.26,59.69,47.14H153.68" fill="#231f20"/><path id="path103050" d="M217.62,457.91V407.3h47.91c18.06,0,25.78,10.56,25.78,24.79,0,21.14-15.43,25.82-33.49,25.82Zm-19.3,78.25h19.3v-62h47.1c18.67,0,22.12,12,24.15,26.22,2.84,14.22-.2,29.88,5.28,35.77h21.53c-8.13-10-7.32-25.81-8.54-40-1.41-14.24-4.87-26.64-21.71-29.88v-.42c17.45-4.86,25.16-19.29,25.16-36.79,0-23.16-16.85-38-44-38H198.32V536.16" fill="#231f20"/><path id="path103054" d="M439.3,434.73c-4.05-20.51-20.51-30.88-40.6-30.88-34.52,0-49.14,28.44-49.14,58.73,0,33.13,14.62,60.78,49.34,60.78,25.37,0,40-17.89,41.81-41.87H460c-3.66,36.18-26.18,58.13-62.73,58.13-45.06,0-67-33.34-67-75.61,0-42.08,23.95-76.42,68.61-76.42,30.25,0,55.22,16.26,59.69,47.14H439.3" fill="#231f20"/></svg>