<?xml version="1.0" encoding="UTF-8"?>
<!DOCTYPE svg PUBLIC "-//W3C//DTD SVG 1.1//EN" "http://www.w3.org/Graphics/SVG/1.1/DTD/svg11.dtd">
<svg version="1.1" xmlns="http://www.w3.org/2000/svg" xmlns:xlink="http://www.w3.org/1999/xlink" x="0" y="0" width="64" height="64" viewBox="0, 0, 64, 64">
  <g id="Layer_1">
    <path d="M10.972,13.16 L10.972,2.228 L20.331,2.228 L20.331,13.16 L20.331,13.16 L31.263,13.16 L31.263,22.519 L20.331,22.519 L20.331,22.519 L20.331,33.436 L10.972,33.436 L10.972,22.519 L10.972,22.519 L0.04,22.519 L0.04,13.16 L10.972,13.16 L10.972,13.16 z" fill="#F5333F"/>
    <path d="M45.738,17.704 C45.738,10.427 51.637,4.529 58.913,4.529 C60.484,4.521 62.044,4.802 63.514,5.357 C57.003,0.219 47.627,0.988 42.041,7.119 C36.454,13.25 36.558,22.657 42.279,28.663 C47.999,34.669 57.39,35.231 63.786,29.95 C59.727,31.558 55.135,31.053 51.522,28.602 C47.909,26.15 45.743,22.07 45.738,17.704" fill="#F5333F"/>
    <path d="M56.169,62.073 C57.69,62.089 59.198,61.792 60.599,61.201 C61.898,60.654 63.041,59.795 63.929,58.7 L61.071,56.128 C59.918,57.555 58.175,58.376 56.341,58.357 C55.248,58.377 54.17,58.111 53.211,57.586 C52.313,57.094 51.574,56.355 51.082,55.457 C50.053,53.502 50.053,51.166 51.082,49.212 C51.57,48.31 52.31,47.571 53.211,47.083 C54.188,46.535 55.293,46.259 56.412,46.283 C58.241,46.259 59.982,47.069 61.142,48.483 L64,45.911 C63.075,44.816 61.898,43.963 60.571,43.425 C59.169,42.836 57.661,42.544 56.141,42.567 C54.324,42.544 52.531,42.977 50.925,43.825 C49.406,44.619 48.139,45.822 47.267,47.297 C46.36,48.806 45.894,50.539 45.924,52.299 C45.899,54.062 46.364,55.799 47.267,57.314 C48.139,58.79 49.406,59.992 50.925,60.787 C52.526,61.635 54.315,62.067 56.126,62.044 M38.765,49.755 C38.804,50.68 38.413,51.571 37.707,52.17 C36.843,52.797 35.786,53.1 34.721,53.027 L31.205,53.027 L31.205,46.468 L34.764,46.468 C35.826,46.399 36.881,46.696 37.75,47.312 C38.445,47.928 38.819,48.828 38.765,49.755 M43.523,61.744 L39.236,55.699 C41.653,54.735 43.203,52.356 43.109,49.755 C43.138,48.473 42.79,47.211 42.108,46.126 C41.409,45.071 40.415,44.247 39.251,43.753 C37.896,43.179 36.435,42.897 34.964,42.925 L26.847,42.925 L26.847,61.744 L31.205,61.744 L31.205,56.5 L35.221,56.5 L38.85,61.744 z M23.089,46.411 L23.089,42.925 L8.871,42.925 L8.871,61.744 L13.229,61.744 L13.229,54.856 L21.989,54.856 L21.989,51.398 L13.229,51.398 L13.229,46.426 L23.089,46.426 z M0.054,61.744 L4.341,61.744 L4.341,42.925 L0.054,42.925 z" fill="#333132"/>
  </g>
</svg>
