<svg id="Layer_1" data-name="Layer 1" xmlns="http://www.w3.org/2000/svg" viewBox="0 0 189.78 178.48"><path d="M0,121.78a1.4,1.4,0,0,1,.46-.16c4.12,0,8.23,0,12.44,0v55.82H0Z"/><path d="M.21,61.09V34.74c0-1.31,0-1.32,1.31-1.32H31c1.42,0,1.42,0,1.42-1.41V2.38c0-1.39,0-1.4,1.37-1.4,8.3,0,16.6,0,24.9,0,1,0,1.28.27,1.27,1.29,0,9.91,0,19.82,0,29.73v1.36c.59,0,1.08.08,1.57.08H90.9c1.32,0,1.32,0,1.32,1.3V61.07H90.88c-9.9,0-19.79,0-29.69,0-1,0-1.28.25-1.28,1.28,0,9.91,0,19.82,0,29.73v1.44H58.82c-8.4,0-16.8,0-25.2,0-1,0-1.22-.29-1.22-1.23,0-9.88,0-19.76,0-29.63,0-.5-.05-1-.08-1.56Z" fill="#ef3340"/><path d="M187.14,9.93C172.08,5,158.62,7.8,147,18.58a36.47,36.47,0,0,0-11.43,21.68c-1.95,12.54,1.33,23.65,9.87,33.05a38.68,38.68,0,0,0,41.44,10.36c.38-.14.77-.21,1.15-.31v0A48.14,48.14,0,0,1,171.24,92,46.83,46.83,0,1,1,148.46,1.19c13.67-3,26.33-.27,37.74,8,.33.23.62.51.92.76Z" fill="#ef3340"/><path d="M116.13,159.6l12.4,17.87h-3.67c-3.12,0-6.24,0-9.37,0a1.43,1.43,0,0,1-1.37-.73c-3.13-4.59-6.32-9.15-9.43-13.76a2.07,2.07,0,0,0-2-1c-3.44.05-6.89,0-10.46,0v15.4H79.34V121.61h1.13c7.93,0,15.87-.06,23.8,0,5.43.06,10.62,1.17,15.2,4.32,6,4.14,8.33,10.07,8,17.18-.37,7.59-4.1,13-10.92,16.23A3.47,3.47,0,0,0,116.13,159.6Zm-23.91-7.82c4.79-.18,9.57.06,14.22-.61,8-1.14,9-8.16,7.4-12.83-1.29-3.92-4.46-5.61-8.24-5.89-4.39-.32-8.81-.17-13.22-.22,0,0-.1.07-.16.12Z"/><path d="M188.8,130.6l-8.23,7.63c-7.5-9.31-21.53-7.69-27.44-.9-6.09,7-5.77,18.78.86,25.33,5.93,5.87,18.76,7.45,26.55-1.85l8.34,7.73c-1.15,1.12-2.19,2.27-3.35,3.28a27.45,27.45,0,0,1-14.79,6.33,33.43,33.43,0,0,1-18.86-2.66c-11-5.16-17.16-16.1-16.07-28.83,1.2-13.82,11.86-24.15,25.61-25.71,7.59-.86,14.83.16,21.41,4.33A24.2,24.2,0,0,1,188.8,130.6Z"/><path d="M26.19,121.66H68.12V132h-29v14.75H64.68v10.44H39.08v20.29H26.19Z"/><path d="M188,83.36l0-.06,0,0Z"/><path d="M187.12,9.9h0l0,0Z"/></svg>