<svg id="Layer_1" data-name="Layer 1" xmlns="http://www.w3.org/2000/svg" viewBox="0 0 600 106.5"><polygon points="36.8 69.4 0 69.4 0 37.9 36.8 37.9 36.8 37.9 36.8 1.1 68.3 1.1 68.3 37.9 68.3 37.9 105.1 37.9 105.1 69.4 68.3 69.4 68.3 69.4 68.3 106.2 36.8 106.2 36.8 69.4" fill="#f5333f"/><path d="M153.8,53.1a44.3,44.3,0,0,1,59.8-41.5,53.15,53.15,0,1,0,1,82.7,44.48,44.48,0,0,1-60.8-41.2" fill="#f5333f"/><path d="M557.5,106.5a61.57,61.57,0,0,0,24.3-4.7A46.7,46.7,0,0,0,600,88.1L584.7,74c-7,8.1-15.6,12.2-25.9,12.2A34.39,34.39,0,0,1,541.7,82,29.92,29.92,0,0,1,530,70.3a34.39,34.39,0,0,1-4.2-17.1A34.39,34.39,0,0,1,530,36.1a29.92,29.92,0,0,1,11.7-11.7,34.39,34.39,0,0,1,17.1-4.2c10.3,0,18.9,4,25.9,12.1L600,18.2A48,48,0,0,0,581.8,4.7,60.73,60.73,0,0,0,557.6,0,60.1,60.1,0,0,0,529,6.8a50.83,50.83,0,0,0-20,19,52.7,52.7,0,0,0-7.3,27.4A51.77,51.77,0,0,0,509,80.6a50.83,50.83,0,0,0,20,19,58.9,58.9,0,0,0,28.5,6.9M462.4,39.2c0,5.7-1.9,10.1-5.6,13.2s-9.2,4.7-16.3,4.7H421.1V21.3h19.4c7.2,0,12.6,1.5,16.3,4.6s5.6,7.5,5.6,13.3m26,65.6L465.3,71.7A35,35,0,0,0,481,59c3.7-5.5,5.5-12.1,5.5-19.8s-1.8-14.3-5.4-19.9A34.77,34.77,0,0,0,465.6,6.4c-6.7-3-14.6-4.6-23.8-4.6H397.2V104.7H421V76h21.9l19.9,28.7h25.6ZM376.6,20.9V1.8H298.8V104.7h23.8V67.3h47.6V48.2H322.6V21l54-.1Zm-126,83.9h23.8V1.8H250.6Z" fill="#333132"/></svg>