<svg id="Layer_1" data-name="Layer 1" xmlns="http://www.w3.org/2000/svg" viewBox="0 0 720.42 162.72"><polygon points="54.24 0 54.24 54.24 0 54.24 0 108.48 54.24 108.48 54.24 162.72 108.48 162.72 108.48 108.48 162.72 108.48 162.72 54.24 108.48 54.24 108.48 0 54.24 0" fill="#d52d27"/><path d="M682.37,93.74a33,33,0,0,0,14.57,4.11c5.11,0,7.23-1.78,7.23-4.56s-1.67-4.23-8-6.22c-11.27-3.76-15.46-9.9-15.46-16.36,0-10.1,8.56-17.78,22.14-17.78A36.32,36.32,0,0,1,718.05,56l-3,11.69a26.46,26.46,0,0,0-11.76-3.2c-4.11,0-6.44,1.67-6.44,4.45s2.1,4,8.79,6.22C716,78.77,720.31,84,720.42,92c0,10.13-8,17.68-23.57,17.68a38.6,38.6,0,0,1-17.58-3.82ZM640.26,72.05c0-8-.22-13.15-.45-17.9h14.56l.56,10h.45a16,16,0,0,1,14.67-11.27,17.8,17.8,0,0,1,3.57.22V69a26.22,26.22,0,0,0-4.68-.45c-6.23,0-10.46,3.33-11.57,8.57a19.58,19.58,0,0,0-.32,3.75v27.63h-16.9Zm-39.14,37.69c-15.91,0-28.17-10.44-28.17-28s11.57-28.79,29-28.79c16.67,0,27.79,11.45,27.79,27.79,0,19.91-14.12,29-28.56,29Zm.34-12.11c6.55,0,10.78-6.56,10.78-16.34,0-8.12-3.12-16.34-10.78-16.34-8.13,0-11.12,8.32-11.12,16.34,0,9.39,3.89,16.34,11,16.34Zm-90.85-64H527.4V66.71h.34c1.67-2.89,3.33-5.63,5.11-8.22l17-24.91h20.79L545.87,65.51l26.12,43h-19.8L533.85,76.18l-6.45,7.9V108.5H510.61ZM442,86.62c.54,7,7.51,10.35,15.34,10.35a47.88,47.88,0,0,0,15-2.24l2.21,11.46a53.69,53.69,0,0,1-19.76,3.42c-18.44,0-29-10.78-29-27.8,0-13.78,8.56-29,27.46-29,17.57,0,24.24,13.68,24.24,27.14a41.54,41.54,0,0,1-.56,6.78Zm19.89-11.57c0-4.11-1.77-11-9.56-11-7.12,0-10,6.56-10.45,11ZM415.33,29.58V92.29c0,6.11.21,12.57.44,16.23h-15l-.77-8h-.22a19,19,0,0,1-17,9.22c-12.9,0-23.23-11-23.23-27.91,0-18.33,11.27-28.9,24.41-28.9,6.69,0,11.91,2.33,14.35,6.12h.23V29.58Zm-16.9,47.59a27.33,27.33,0,0,0-.22-3,10.15,10.15,0,0,0-9.9-8.34c-7.67,0-11.68,6.89-11.68,15.46,0,9.22,4.56,15,11.56,15A9.89,9.89,0,0,0,398,88.2a14.18,14.18,0,0,0,.45-3.89ZM323.94,52.93a28.08,28.08,0,0,1,13.15,2.89l5.22-7.66,5.9,4.11-5,7.51a27.41,27.41,0,0,1,9.11,21.47c0,19.34-14.23,28.57-28.34,28.57a27.36,27.36,0,0,1-12.9-2.9l-5.45,7.91L300,110.38l4.88-7.23c-5.9-4.79-9.39-12.12-9.39-21.68,0-17.12,11.57-28.47,28.36-28.47Zm6,14a9.72,9.72,0,0,0-6-2c-8.79,0-12.13,8.77-12.13,16.34a17.46,17.46,0,0,0,2,8.67h.23Zm-11.66,28.7a8.19,8.19,0,0,0,5.64,2c7.51,0,12.11-6.45,12.11-16a20.47,20.47,0,0,0-1.67-8.45l-.34-.11ZM233.21,34.58A149.11,149.11,0,0,1,255.75,33c11.12,0,18.89,1.67,24.23,5.9a19.05,19.05,0,0,1,6.89,15.68,19.91,19.91,0,0,1-13.15,18.46v.32c5.22,2.12,8.12,7.12,10,14,2.33,8.45,4.66,18.24,6.11,21.13H272.5c-1.22-2.1-3.12-8.23-5.24-17.45s-5.22-12-12.11-12H250v29.47H233.25ZM250,66.82h6.67c8.45,0,13.45-4.22,13.45-10.78,0-6.89-4.66-10.34-12.46-10.46a41,41,0,0,0-7.66.57Z" fill="#282929"/></svg>