<svg id="Layer_1" data-name="Layer 1" xmlns="http://www.w3.org/2000/svg" viewBox="0 0 1277.97 170.05"><defs><style>.cls-1{fill:#1d1d1b;}.cls-2{fill:#f5333f;}</style></defs><path class="cls-1" d="M227.92,113.4V35.09h11l25.1,39.62a212.7,212.7,0,0,1,14.05,25.44l.24-.11c-.93-10.46-1.17-20-1.17-32.18V35.09h9.53V113.4H276.49L251.62,73.66A248.38,248.38,0,0,1,237,47.52l-.34.12c.58,9.87.81,19.29.81,32.3V113.4Z"/><path class="cls-1" d="M326.91,114.68c-15.22,0-27-11.16-27-28.93,0-18.82,12.31-29.86,27.88-29.86,16.15,0,27.07,11.73,27.07,28.93,0,20.79-14.41,29.86-27.88,29.86Zm.35-7.67c9.76,0,17.08-9.18,17.08-21.84,0-9.53-4.77-21.61-16.85-21.61S310.18,74.71,310.18,85.4c0,12.31,7.09,21.61,17,21.61Z"/><path class="cls-1" d="M367.92,74.71c0-6.62-.11-12.32-.46-17.54h8.94l.35,11h.47c2.55-7.55,8.71-12.31,15.57-12.31a10.72,10.72,0,0,1,2.9.35v9.64a17.38,17.38,0,0,0-3.6-.35c-7.2,0-12.32,5.46-13.71,13.13a29,29,0,0,0-.46,4.76v30H367.81Z"/><path class="cls-1" d="M409.87,57.17l7.43,28.58c1.74,6.27,3.14,12.08,4.18,17.89h.35c1.28-5.69,3-11.73,5-17.78L436,57.17h8.59l8.72,28.11c2.09,6.63,3.72,12.67,5,18.36h.35A169,169,0,0,1,463,85.4l8-28.23h10.11L463,113.4h-9.29l-8.6-26.84a187.5,187.5,0,0,1-5-18.47h-.23a166.43,166.43,0,0,1-5.11,18.59l-9.06,26.72h-9.3l-17-56.23Z"/><path class="cls-1" d="M497,87c.24,13.82,9.07,19.51,19.29,19.51,7.32,0,11.74-1.27,15.57-2.9L533.6,111c-3.6,1.63-9.76,3.6-18.7,3.6-17.32,0-27.66-11.5-27.66-28.35,0-17.08,10-30.32,26.38-30.32,18.36,0,23.24,16,23.24,26.37a24.77,24.77,0,0,1-.47,4.88Zm30-7.32c.12-6.39-2.67-16.5-14.18-16.5-10.34,0-14.87,9.41-15.68,16.5Z"/><path class="cls-1" d="M597.5,105.27c0,12.89-2.55,20.79-8,25.67-5.46,5.12-13.36,6.74-20.45,6.74-6.74,0-14.18-1.62-18.71-4.64l2.56-7.79a31.76,31.76,0,0,0,16.5,4.42c10.45,0,18.12-5.47,18.12-19.64v-6.27h-.23c-3.14,5.22-9.18,9.41-17.89,9.41-13.95,0-23.94-11.85-23.94-27.42,0-19.06,12.43-29.86,25.33-29.86,9.76,0,15.1,5.11,17.54,9.76h.24l.46-8.48h9c-.23,4.06-.47,8.59-.47,15.45ZM587.39,79.36a14.39,14.39,0,0,0-.58-4.65C585,68.79,580,63.9,572.52,63.9c-9.76,0-16.73,8.25-16.73,21.27,0,11,5.58,20.21,16.62,20.21a15,15,0,0,0,14.17-10.45,17.85,17.85,0,0,0,.81-5.46Z"/><path class="cls-1" d="M619.35,46.83a6.57,6.57,0,0,1,.23-13.13,6.28,6.28,0,0,1,6.5,6.5,6.28,6.28,0,0,1-6.62,6.63Zm-4.88,66.57V57.17h10.22V113.4Z"/><path class="cls-1" d="M681.15,99.92a79.91,79.91,0,0,0,.93,13.48h-9.29l-.81-7.09h-.35a20.94,20.94,0,0,1-17.2,8.37c-11.38,0-17.19-8-17.19-16.15,0-13.6,12.08-21,33.81-20.92V76.45c0-4.64-1.28-13-12.78-13a28.07,28.07,0,0,0-14.64,4.18l-2.33-6.74c4.65-3,11.39-5,18.48-5,17.19,0,21.37,11.73,21.37,23ZM671.28,84.7c-11.15-.23-23.82,1.74-23.82,12.67,0,6.62,4.42,9.76,9.64,9.76a13.89,13.89,0,0,0,13.6-9.42,8.07,8.07,0,0,0,.58-3.25Z"/><path class="cls-1" d="M697.65,72.39c0-5.81-.11-10.58-.46-15.22h9.06l.58,9.29h.23c2.79-5.34,9.3-10.57,18.59-10.57,7.79,0,19.87,4.65,19.87,23.93V113.4H735.3V81c0-9.06-3.37-16.73-13-16.73-6.74,0-11.85,4.88-13.71,10.58a14.8,14.8,0,0,0-.69,4.76V113.4H697.65Z"/><path class="cls-1" d="M784.79,36.14a155.51,155.51,0,0,1,23.59-1.63c11.61,0,19.75,1.74,25.32,6.16,4.65,3.72,7.21,9.18,7.21,16.38,0,10-7.09,16.85-13.83,19.29v.35c5.46,2.2,8.48,7.43,10.46,14.63,2.44,8.83,4.88,19.06,6.39,22.08H825.8c-1.28-2.21-3.25-8.6-5.46-18.24s-5.46-12.55-12.66-12.55h-5.35V113.4H784.79Zm17.54,33.69h7c8.83,0,14.05-4.42,14.05-11.27,0-7.2-4.88-10.8-13-10.92a44.53,44.53,0,0,0-8,.58Z"/><path class="cls-1" d="M866.7,90.51c.58,7.32,7.78,10.81,16,10.81A50.07,50.07,0,0,0,898.42,99l2.32,12a56.11,56.11,0,0,1-20.56,3.6c-19.29,0-30.33-11.27-30.33-29,0-14.41,8.95-30.33,28.7-30.33,18.36,0,25.33,14.29,25.33,28.35a44,44,0,0,1-.58,7.09Zm20.8-12.08c0-4.3-1.86-11.5-10-11.5-7.43,0-10.45,6.85-10.92,11.5Z"/><path class="cls-1" d="M970,30.91V96.44c0,6.39.23,13.13.46,17H954.75l-.82-8.37h-.23c-3.6,6.39-10.46,9.65-17.77,9.65-13.48,0-24.29-11.5-24.29-29.16,0-19.18,11.85-30.21,25.45-30.21,7,0,12.43,2.44,15,6.39h.24V30.91ZM952.31,80.64a27.65,27.65,0,0,0-.24-3.14c-1-4.77-4.87-8.71-10.34-8.71-8,0-12.19,7.2-12.19,16.14,0,9.65,4.76,15.69,12.08,15.69a10.34,10.34,0,0,0,10.22-8.48,15,15,0,0,0,.47-4.07Z"/><path class="cls-1" d="M1065.7,111.19c-3.25,1.63-10.57,3.49-20.1,3.49-27.07,0-41-17-41-39.27,0-26.73,19-41.48,42.76-41.48,9.17,0,16.15,1.74,19.28,3.37L1063,51.36a38.24,38.24,0,0,0-14.87-2.91c-14.06,0-25,8.48-25,25.91,0,15.69,9.3,25.56,25.1,25.56,5.34,0,11.27-1,14.75-2.55Z"/><path class="cls-1" d="M1076.86,75.29c0-8.36-.24-13.82-.47-18.7h15.22l.58,10.45h.47c2.9-8.25,9.87-11.73,15.33-11.73a18.4,18.4,0,0,1,3.72.23V72.15a28,28,0,0,0-4.88-.46c-6.5,0-10.92,3.48-12.08,9a21,21,0,0,0-.35,4V113.4h-17.66Z"/><path class="cls-1" d="M1147,114.68c-16.61,0-29.39-10.92-29.39-29.28s12.08-30.09,30.32-30.09c17.43,0,29,12,29,29,0,20.8-14.76,30.33-29.86,30.33Zm.35-12.67c6.85,0,11.27-6.85,11.27-17.08,0-8.48-3.25-17.07-11.27-17.07-8.48,0-11.62,8.71-11.62,17.07,0,9.76,4.07,17.08,11.5,17.08Z"/><path class="cls-1" d="M1187.69,98a34.65,34.65,0,0,0,15.22,4.3c5.35,0,7.56-1.86,7.56-4.77s-1.75-4.41-8.37-6.5C1190.37,87,1186,80.64,1186,73.9c0-10.58,9-18.59,23.12-18.59a38.1,38.1,0,0,1,16,3.25L1222,70.76a28,28,0,0,0-12.32-3.25c-4.3,0-6.74,1.74-6.74,4.64,0,2.68,2.21,4.19,9.18,6.51,10.81,3.72,15.34,9.18,15.46,17.54,0,10.58-8.37,18.48-24.64,18.48-7.43,0-14.05-1.75-18.35-4.07Z"/><path class="cls-1" d="M1238.12,98a34.57,34.57,0,0,0,15.22,4.3c5.34,0,7.55-1.86,7.55-4.77s-1.74-4.41-8.37-6.5c-11.73-4-16.15-10.34-16.15-17.08,0-10.58,9-18.59,23.13-18.59a38.17,38.17,0,0,1,16,3.25l-3.14,12.2a27.89,27.89,0,0,0-12.31-3.25c-4.3,0-6.74,1.74-6.74,4.64,0,2.68,2.2,4.19,9.18,6.51,10.8,3.72,15.33,9.18,15.45,17.54,0,10.58-8.37,18.48-24.63,18.48-7.44,0-14.06-1.75-18.36-4.07Z"/><polygon class="cls-2" points="170.05 56.68 113.37 56.68 113.37 0 56.68 0 56.68 56.68 0 56.68 0 113.37 56.68 113.37 56.68 170.05 113.37 170.05 113.37 113.37 170.05 113.37 170.05 56.68"/></svg>