<svg id="Layer_1" data-name="Layer 1" xmlns="http://www.w3.org/2000/svg" viewBox="0 0 990 250"><defs><style>.cls-1{fill:#ef3340;}.cls-2{fill:none;stroke:#000;stroke-miterlimit:10;stroke-width:3.46px;}</style></defs><path d="M372.27,85.51c1.87,7.13,7.23,11.3,16.13,11.3,9.52,0,13.22-4,13.22-9.86,0-6-3.12-8.79-15.63-11.83C365.78,70.19,361.76,64,361.76,54.58c0-9.82,7.15-19.65,25.45-19.65s25.59,10.5,26.43,20H400.85c-.9-4.08-4-10-14.22-10-9,0-11.7,4.27-11.7,8.52,0,4.8,2.69,7.18,15,10.12,21.28,5,25.28,12.17,25.28,22.37,0,11.94-9.39,21-27.28,21-18.43,0-27.15-9.22-28.86-21.52Z"/><path d="M490.34,70.85c0,20-11.58,36.18-32.78,36.18-20,0-32.07-15.26-32.07-35.93,0-20.5,11.91-36.17,32.87-36.17C477.7,34.93,490.34,49.24,490.34,70.85ZM439.11,71c0,14.74,7.18,25.14,18.93,25.14,12,0,18.68-9.94,18.68-25.08s-6.7-25.2-19-25.2C445.67,45.84,439.11,55.49,439.11,71Z"/><path d="M505.28,105.41V6.23h13.28v99.18Z"/><path d="M541.82,105.41V47.15H530.93V36.56h10.89V28.74c0-13,5.27-23.87,20.42-23.87a32.25,32.25,0,0,1,7.86.89v11a28.1,28.1,0,0,0-5.65-.57c-6.81,0-9.35,3.84-9.35,13.39v6.94h13.45V47.15H555.1v58.26Z"/><path d="M587,73.51c.08,13,6.59,22.61,17.85,22.61,10.32,0,13.6-5.14,15.73-10h13.35C631.27,94.86,623.85,107,604.45,107c-21.85,0-30.87-17.47-30.87-35.26,0-20.69,10.46-36.84,31.62-36.84,22.49,0,29.91,17.68,29.91,32.85a55.17,55.17,0,0,1-.19,5.73Zm34.7-9c-.14-10.68-5.35-19.33-16.64-19.33-11.53,0-16.53,8-17.65,19.33Z"/><path d="M650,55.26c0-9.09-.08-14.63-.14-18.7h13c.19,1.85.39,7.53.39,13.67,3.49-9,11.53-15,23-15.3V48c-14.06.27-23,6.94-23,24.63v32.77H650Z"/><path d="M697.87,6.23h13.28V21.5H697.87Zm0,30.33h13.28v68.85H697.87Z"/><path d="M730.93,53.9c0-5.95,0-12.06-.13-17.34h12.89c.34,2,.53,8.74.52,10.82,2.67-5.61,8.27-12.45,21.34-12.45s23,8.18,23,26.29v44.19H775.24V62.86c0-9.89-3.77-16.63-13.88-16.63-12,0-17.15,8.84-17.15,22.35v36.83H730.93Z"/><path d="M868.22,70.85c0,20-11.58,36.18-32.78,36.18-20,0-32.07-15.26-32.07-35.93,0-20.5,11.91-36.17,32.87-36.17C855.58,34.93,868.22,49.24,868.22,70.85ZM817,71c0,14.74,7.18,25.14,18.93,25.14,12,0,18.68-9.94,18.68-25.08s-6.7-25.2-19-25.2S817,55.49,817,71Z"/><path d="M507.79,201.3a114.27,114.27,0,0,0,.95,15.55H496a35.93,35.93,0,0,1-1.1-8.57c-2.42,4.45-7.76,10.19-20.89,10.19-16.3,0-23.25-10.63-23.25-21.14,0-15.43,12.18-22.5,32.59-22.5h11.37v-5.55c0-5.84-1.91-12.75-14-12.75-10.83,0-12.73,5.27-13.91,10.56H454.05c.94-10,7.13-20.77,27.15-20.71,17.13.06,26.59,7,26.59,22.78Zm-13-17.58H484.34c-13.29,0-20,3.73-20,12.84,0,6.74,4.55,11.76,12.73,11.76,15.71,0,17.8-10.64,17.8-22.48Z"/><path d="M582.83,195.56C580,207.33,572,218.47,553.89,218.47c-19.43,0-31-13.87-31-35.65,0-19.64,11.28-36.44,31.9-36.44S582,161,582.83,169.68H569.72c-1.59-6.74-5.75-12.4-15.22-12.4-11.51,0-18,9.9-18,25.08,0,15.48,6.4,25.27,17.65,25.27,8.22,0,12.94-4.45,15.53-12.07Z"/><path d="M649.4,201.3a116.44,116.44,0,0,0,.94,15.55h-12.7a36.05,36.05,0,0,1-1.09-8.57c-2.42,4.45-7.76,10.19-20.89,10.19-16.3,0-23.25-10.63-23.25-21.14,0-15.43,12.17-22.5,32.58-22.5h11.38v-5.55c0-5.84-1.91-12.75-14-12.75-10.83,0-12.74,5.27-13.92,10.56H595.66c.93-10,7.13-20.77,27.14-20.71,17.14.06,26.6,7,26.6,22.78Zm-13-17.58H626c-13.29,0-20,3.73-20,12.84,0,6.74,4.55,11.76,12.72,11.76,15.72,0,17.81-10.64,17.81-22.48Z"/><path d="M727.48,117.67V197.5c0,6.43,0,12.77.14,19.35H714.86a92.54,92.54,0,0,1-.65-9.27c-3.38,6.84-10.16,10.89-21.25,10.89-17.64,0-28.56-14.27-28.56-35.36s11.74-36.73,30.87-36.73c11.75,0,17.15,4.64,18.94,8.36V117.67Zm-49.33,65.05c0,16,7.39,24.66,17.91,24.66,15.52,0,18.66-11.69,18.66-25.78,0-14.62-2.9-24.13-17.81-24.13C685.18,157.47,678.15,166.74,678.15,182.72Z"/><path d="M755.79,185c.08,13,6.59,22.61,17.86,22.61,10.31,0,13.59-5.14,15.72-10h13.35c-2.65,8.74-10.07,20.91-29.47,20.91-21.84,0-30.87-17.47-30.87-35.26,0-20.69,10.46-36.83,31.62-36.83,22.49,0,29.91,17.68,29.91,32.85a55.17,55.17,0,0,1-.19,5.73Zm34.7-9c-.14-10.68-5.35-19.32-16.64-19.32-11.53,0-16.53,8-17.65,19.32Z"/><path d="M818.79,165.75c0-5.93,0-12.11-.13-17.75h12.77c.2,2,.53,6.83.52,10.13,3.21-6,9.12-11.75,19.85-11.75,9.78,0,16.23,5,18.81,12,3.75-6.35,10.15-12,21.8-12,11.34,0,21.73,6.75,21.73,25.24v45.23h-13V173.23c0-7.65-2.76-15.62-12.94-15.62-10.6,0-15.13,7.85-15.13,19.74v39.5H860V173.67c0-8.52-2.36-16-12.65-16S832,165.8,832,178.68v38.17H818.79Z"/><path d="M938.82,148c10.34,31.18,16.48,50,18.16,56.9h.14c2.09-7.63,6.82-23.32,17.48-56.9H988l-24.44,71.79c-6.92,20.07-12.16,25.34-26.73,25.34a69,69,0,0,1-7.69-.47V233.35a46.26,46.26,0,0,0,5.53.34c8.39,0,11.74-3.56,15.52-14.3L924.5,148Z"/><polygon class="cls-1" points="40.88 45.03 40.88 6.17 74.18 6.17 74.18 45.03 74.17 45.05 113.03 45.05 113.03 78.34 74.17 78.34 74.18 78.33 74.18 117.18 40.88 117.18 40.88 78.33 40.88 78.35 2.04 78.35 2.04 45.05 40.88 45.05 40.88 45.03"/><path class="cls-1" d="M164.54,61.09a46.86,46.86,0,0,1,63.22-43.9,56.21,56.21,0,1,0,1,87.44,46.86,46.86,0,0,1-64.18-43.54"/><path d="M201.6,219a39.55,39.55,0,0,0,15.78-3.05,31.09,31.09,0,0,0,11.86-8.9l-9.94-9.17a21.29,21.29,0,0,1-16.83,7.93,22.45,22.45,0,0,1-11.1-2.72,19.51,19.51,0,0,1-7.6-7.61,24,24,0,0,1,0-22.18,19.51,19.51,0,0,1,7.6-7.61,22.45,22.45,0,0,1,11.1-2.72,21.38,21.38,0,0,1,16.83,7.84l9.94-9.18a31.74,31.74,0,0,0-11.81-8.8,39.25,39.25,0,0,0-15.74-3.05,38.63,38.63,0,0,0-18.59,4.44,33.24,33.24,0,0,0-13,12.34,36,36,0,0,0,0,35.66,33.24,33.24,0,0,0,13,12.34A38.47,38.47,0,0,0,201.6,219m-61.87-43.79q0,5.55-3.63,8.61t-10.62,3.06H112.86V163.51h12.62c4.66,0,8.19,1,10.62,3s3.63,4.9,3.63,8.66m16.93,42.64-15-21.51a21.81,21.81,0,0,0,13.76-21.14,23.17,23.17,0,0,0-3.54-12.91,22.88,22.88,0,0,0-10.09-8.42,37.24,37.24,0,0,0-15.44-3h-29v66.94h15.49V199.17H127.1L140,217.82ZM84,163.32V150.89H33.4v66.94H48.89V193.45h31V181h-31V163.33H84ZM2,217.82H17.53V150.88H2Z"/><line class="cls-2" x1="295.45" y1="6.26" x2="295.45" y2="218"/></svg>