<svg id="Layer_1" data-name="Layer 1" xmlns="http://www.w3.org/2000/svg" viewBox="0 0 625.22 152.33"><g id="OtNFHJ.tif"><path d="M589.77,152.33l-1.91-.33v-7c1.46,0,2.87,0,4.28,0a7.42,7.42,0,0,0,6.9-4.19c.75-1.43,1.35-2.94,2-4.44a1.51,1.51,0,0,0-.07-1l-14.11-39.3q-.84-2.32-1.66-4.65c-.07-.2-.13-.42-.21-.68l.65,0c2.59,0,5.18,0,7.76,0,.46,0,.71.09.87.59q5.55,17.43,11.15,34.85c0,.13.08.27.19.61.45-1.53.82-2.86,1.23-4.18q4.82-15.59,9.64-31.18a.82.82,0,0,1,.95-.7c2.61,0,5.22,0,7.83,0v.15a3.31,3.31,0,0,0-.22.47q-3.25,9.53-6.49,19c-3.18,9.34-6.35,18.68-9.58,28a32.56,32.56,0,0,1-4.66,9.34,10.91,10.91,0,0,1-6.67,4.18l-2.2.44Z"/><path d="M0,92.68a1.32,1.32,0,0,1,.35-.12h9.5V135H0Z"/><path d="M.16,46.56v-20c0-1,0-1,1-1H23.67c1.08,0,1.09,0,1.09-1.07V2c0-1.06,0-1.07,1-1.07,6.34,0,12.68,0,19,0,.76,0,1,.2,1,1,0,7.53,0,15.06,0,22.59v1c.45,0,.83.06,1.2.06H69.41c1,0,1,0,1,1v20h-1c-7.55,0-15.11,0-22.67,0-.76,0-1,.19-1,1,0,7.53,0,15.06,0,22.59v1.09h-.86c-6.41,0-12.83,0-19.24,0-.75,0-.93-.22-.93-.94,0-7.5,0-15,0-22.52,0-.37,0-.74-.05-1.18Z" fill="#ef3340"/><path d="M142.9,7.68c-11.51-3.77-21.78-1.62-30.68,6.58a27.72,27.72,0,0,0-8.73,16.47A29,29,0,0,0,111,55.85a29.67,29.67,0,0,0,31.65,7.87c.28-.1.58-.16.87-.24v0a37,37,0,0,1-12.8,6.61,35.6,35.6,0,1,1-17.4-69,34.81,34.81,0,0,1,28.82,6c.25.18.47.39.7.58Z" fill="#ef3340"/><path d="M526.29,134.37h-8.4V90.73h.73c2.16,0,4.32,0,6.47,0,.67,0,.93.15.94.87,0,1.47.13,2.93.22,4.4,0,.24,0,.48.08.76.77-1,1.43-2,2.23-2.84,3.07-3.31,7-4.42,11.37-4.15a11.8,11.8,0,0,1,9.26,4.63,30.72,30.72,0,0,1,1.62,2.68c.52-.7,1.05-1.46,1.65-2.17a14.28,14.28,0,0,1,10.1-5.09,16.11,16.11,0,0,1,7.41.82c4.33,1.67,6.76,5,7.74,9.36a29,29,0,0,1,.64,6c.07,9.26,0,18.51,0,27.77,0,.17,0,.35,0,.57h-8.29v-1c0-9,0-17.9,0-26.85a15.19,15.19,0,0,0-.44-3.68c-1.05-4.17-4.1-6.29-8.39-6-4.58.37-7.42,2.9-8.38,7.61a22.19,22.19,0,0,0-.47,4.45c-.05,8.16,0,16.32,0,24.49v.93H544v-1c0-8.6,0-17.19,0-25.79a25.14,25.14,0,0,0-.53-5.12c-.77-3.5-3.19-5.39-6.76-5.54-5.32-.23-8.75,2.54-9.93,8.14a23.62,23.62,0,0,0-.49,4.59c0,7.92,0,15.83,0,23.74Z"/><path d="M460,134.4c-2.56,0-5.12,0-7.68,0-.15,0-.41-.38-.43-.6-.16-1.61-.26-3.23-.39-4.87,0,0-.11,0-.13.08a12.07,12.07,0,0,1-8.84,6.06,19.61,19.61,0,0,1-10.86-.73,16.34,16.34,0,0,1-9.7-10.1c-3.06-8.45-3-16.91,1.3-24.94,3.72-6.94,9.86-9.89,17.66-9.53a16.82,16.82,0,0,1,6.82,1.62,10.53,10.53,0,0,1,3.76,3.18v-23H460Zm-8.12-22.2a33.41,33.41,0,0,0-.78-8c-.86-3.39-2.73-5.94-6.25-6.87a18,18,0,0,0-4.13-.53,10.32,10.32,0,0,0-9.78,5.65,17.39,17.39,0,0,0-2,6.42,25.88,25.88,0,0,0,1,11.85c1.8,5.11,5.47,7.72,10.7,7.65s8.65-2.64,10.17-7.61A30.08,30.08,0,0,0,451.92,112.2Z"/><path d="M88.67,121.43,98.14,135h-2.8c-2.38,0-4.77,0-7.15,0a1.12,1.12,0,0,1-1-.55c-2.39-3.49-4.83-7-7.2-10.46a1.6,1.6,0,0,0-1.54-.79c-2.63,0-5.27,0-8,0v11.7H60.59V92.55h.85c6.06,0,12.12,0,18.18,0a20.25,20.25,0,0,1,11.6,3.28c4.59,3.15,6.37,7.66,6.1,13.06-.29,5.77-3.14,9.86-8.34,12.33A2.62,2.62,0,0,0,88.67,121.43Zm-18.25-6A102.77,102.77,0,0,0,81.28,115c6.09-.87,6.83-6.2,5.65-9.76-1-3-3.41-4.26-6.3-4.47-3.35-.24-6.72-.13-10.09-.17,0,0-.08.06-.12.09Z"/><path d="M411,134.4h-3.35c-1.34,0-2.69,0-4,0-.48,0-.7-.14-.75-.62-.15-1.3-.32-2.61-.48-3.91a1.25,1.25,0,0,0-.22-.63,2.33,2.33,0,0,1-.11.28,11.38,11.38,0,0,1-6.85,5.1,20.54,20.54,0,0,1-10.89.24,12.57,12.57,0,0,1-9.93-12.09c-.36-6.47,2.88-11.2,9.12-13.38A33.21,33.21,0,0,1,394,107.75c2.71,0,5.42,0,8.25,0,0-1.42,0-2.81,0-4.18a11.48,11.48,0,0,0-.43-2.61,6.32,6.32,0,0,0-5.06-4.42,15.52,15.52,0,0,0-6.11-.13,6.58,6.58,0,0,0-5.77,5.47c-.18.85-.53,1-1.35,1-2.08-.07-4.16,0-6.24,0h-.81a14.2,14.2,0,0,1,2.73-7.52,13.4,13.4,0,0,1,8.13-5,27.46,27.46,0,0,1,14.85.58c5,1.68,7.59,5.33,8.22,10.46a28.4,28.4,0,0,1,.16,3.19c0,7.3,0,14.6.05,21.9C410.59,129.11,410.85,131.69,411,134.4Zm-8.73-21c-2.76,0-5.4-.08-8,0a28.1,28.1,0,0,0-5.25.71c-3.17.76-5.41,2.54-5.95,6a7.17,7.17,0,0,0,6,8.6,13.82,13.82,0,0,0,6.39-.37,8.18,8.18,0,0,0,5.5-4.76C402.31,120.39,402.29,116.94,402.27,113.43Z"/><path d="M312.57,107.74a60.41,60.41,0,0,0-.42-6.13,6,6,0,0,0-4.77-5,15.14,15.14,0,0,0-6.63-.23,6.54,6.54,0,0,0-5.69,5.44c-.19.84-.52,1.06-1.35,1-2.32-.07-4.65,0-7.06,0a14.89,14.89,0,0,1,1.63-5.78,12.57,12.57,0,0,1,7.9-6.34,27,27,0,0,1,15.95.14c5.13,1.62,7.84,5.33,8.46,10.6a27,27,0,0,1,.15,3.11c0,7.38,0,14.76.06,22.14,0,2.52.27,5,.43,7.65H319.1c-1.75,0-3.5,0-5.25,0-.47,0-.71-.13-.76-.61-.15-1.31-.32-2.61-.48-3.92,0-.17,0-.34-.07-.54-.69.82-1.29,1.66-2,2.37a13.09,13.09,0,0,1-7.68,3.49,19.28,19.28,0,0,1-10.6-1.1,12.19,12.19,0,0,1-7.56-10.49,12.91,12.91,0,0,1,2.51-9.82,14.43,14.43,0,0,1,7.4-4.67,33.34,33.34,0,0,1,9.67-1.37C307,107.72,309.64,107.74,312.57,107.74Zm-.06,5.71c-2.85,0-5.56,0-8.26,0a17.79,17.79,0,0,0-6.68,1.24,6.72,6.72,0,0,0-4.3,5.44c-.65,4.09,1.47,7.6,5.4,8.49a15.07,15.07,0,0,0,4.45.22c3.51-.27,6.39-1.7,7.94-5.09S312.5,117,312.51,113.45Z"/><path d="M478,114.19c.11,4.25.95,8.1,3.86,11.21,2.31,2.48,5.27,3.25,8.57,3.06,4-.23,6.88-2,8.54-5.68.11-.25.42-.58.65-.58,2.66,0,5.32,0,8,0a3.23,3.23,0,0,1-.1.61,17.71,17.71,0,0,1-15.78,12.53,22,22,0,0,1-11-1.45A17.38,17.38,0,0,1,471.13,123,29.82,29.82,0,0,1,472,100.5c3-6.68,8.37-10.15,15.63-10.72a22,22,0,0,1,8.35.83A16,16,0,0,1,505.35,98c2.93,5,3.43,10.46,3,16.17Zm22-5.81c-.12-1-.17-2-.33-2.9a11.06,11.06,0,0,0-3.29-6.68c-3.42-3-7.37-3.21-11.46-1.74-3.83,1.39-6.29,5.77-6.58,11.32Z"/><path d="M370.94,43.49c.16,4.27.95,8.16,3.91,11.28,2.41,2.55,5.48,3.3,8.88,3A9.17,9.17,0,0,0,392,52c.1-.23.39-.53.59-.53,2.66,0,5.32,0,8.1,0a7,7,0,0,1-.19.76c-2.51,7.11-7.44,11.27-14.95,12.32a22.48,22.48,0,0,1-9.92-.67,16.62,16.62,0,0,1-10.75-9.72,29.19,29.19,0,0,1,.76-25.56c2.95-5.82,8-8.79,14.49-9.44a21.77,21.77,0,0,1,9.45,1C394.85,22,398.15,25.8,400,31a30.22,30.22,0,0,1,1.35,12.53ZM393,37.73c-.15-1.19-.23-2.32-.44-3.43-.94-5-3.93-8-8.69-8.63a10.15,10.15,0,0,0-8.64,2.43c-2.76,2.57-3.55,6-4,9.63Z"/><path d="M549.29,41.17c-.07,5.7-1,10.49-3.81,14.78a18.75,18.75,0,0,1-14.74,8.73,21.12,21.12,0,0,1-10.43-1.44A18.5,18.5,0,0,1,509.7,51.58a28,28,0,0,1,.8-21.11c3.1-6.86,8.61-10.54,16.07-11.3a20.65,20.65,0,0,1,12.16,2.19c5,2.7,8,7.05,9.49,12.44a27.22,27.22,0,0,1,.73,3.57C549.15,38.85,549.22,40.34,549.29,41.17Zm-8.69.77a24.34,24.34,0,0,0-1.2-7.87,11.61,11.61,0,0,0-5.4-6.79,11.08,11.08,0,0,0-15.88,6.23,24.71,24.71,0,0,0-1.28,10,18.94,18.94,0,0,0,2.22,8.44c2.23,4,5.62,6.11,10.25,5.92s7.59-2.51,9.47-6.52A22.28,22.28,0,0,0,540.6,41.94Z"/><path d="M288.91,64.82c-5.27-.07-10-1.57-13.84-5.3a20.77,20.77,0,0,1-5.8-10.82c-1.33-6.28-1.06-12.47,1.7-18.35,3.17-6.77,8.61-10.42,16-11.18A21,21,0,0,1,298.39,21a18.45,18.45,0,0,1,9.69,11.08,28.43,28.43,0,0,1-.16,19.81c-3.08,8.11-9.13,12.36-17.8,12.9ZM301,41.16a21.6,21.6,0,0,0-1.42-7.72c-2-5.23-6.28-7.91-11.87-7.38-4.57.44-7.51,3.08-9.08,7.26a24.71,24.71,0,0,0-.85,14,13.93,13.93,0,0,0,4,7.62A10.82,10.82,0,0,0,299,51.81C300.52,48.73,301,45.42,301,41.16Z"/><path d="M470.63,63.74h-8.44V20.13h8.2c.1,2.12.19,4.24.3,6.53l.41-.68a13.18,13.18,0,0,1,10.7-6.81,16.88,16.88,0,0,1,8.86,1.16A12.73,12.73,0,0,1,498,29.5a27.65,27.65,0,0,1,.76,6.08c.08,9.05,0,18.1,0,27.15v1h-8.47v-.86c0-8.59,0-17.19,0-25.78a20.51,20.51,0,0,0-.59-5,7.3,7.3,0,0,0-7.54-5.83,15.5,15.5,0,0,0-4.13.47c-3.48.94-5.39,3.5-6.43,6.8a23.18,23.18,0,0,0-.93,7.13q0,11,0,22.05Z"/><path d="M253,31.74c-.19-.54-.36-1.1-.59-1.63a7.22,7.22,0,0,0-4.83-4.18,12.81,12.81,0,0,0-7.13,0,5,5,0,0,0-3.82,5.82,3.61,3.61,0,0,0,2.07,2.91,33.5,33.5,0,0,0,4.71,1.88c3,.93,6.06,1.65,9,2.64a22.6,22.6,0,0,1,4.43,2.14A10.06,10.06,0,0,1,262,49.14c.5,4.45-.44,8.42-3.92,11.51a15.21,15.21,0,0,1-7.16,3.48A26,26,0,0,1,235.06,63a14.23,14.23,0,0,1-8.58-11.83l.67,0c2.34,0,4.67,0,7,0,.46,0,.71.07.87.58,1.25,3.94,4.07,6,8.08,6.46a15.14,15.14,0,0,0,5.73-.32c4.26-1.12,5.15-4.58,4.26-7.91A4.83,4.83,0,0,0,250,46.75a50.33,50.33,0,0,0-5.81-2c-3.77-1-7.55-2-11-4A9.29,9.29,0,0,1,228.54,35c-1.41-5.8.62-11.7,6.75-14.23A22,22,0,0,1,254,21.2c4.28,2.08,6.51,5.76,7.07,10.54Z"/><path d="M144.16,99.38l-6.28,5.8c-5.73-7.07-16.44-5.84-20.95-.68-4.65,5.33-4.41,14.27.65,19.25a14.16,14.16,0,0,0,20.28-1.41l6.36,5.87c-.87.86-1.67,1.73-2.56,2.5a21,21,0,0,1-11.29,4.81,25.65,25.65,0,0,1-14.4-2c-8.38-3.93-13.1-12.24-12.27-21.91.91-10.5,9-18.35,19.56-19.54,5.79-.65,11.32.12,16.35,3.3A18.42,18.42,0,0,1,144.16,99.38Z"/><path d="M20,92.59H52v7.85H29.88v11.2H49.39v7.94H29.84V135H20Z"/><path d="M368.37,104.52c-2.78,0-5.41,0-8.05,0-.16,0-.4-.32-.46-.54A10.41,10.41,0,0,0,357,99a9.6,9.6,0,0,0-7.72-2.24c-4.55.44-7.31,3.17-8.9,7.25a25.26,25.26,0,0,0-1.28,11.6,18.92,18.92,0,0,0,2.29,7.89c3.09,5.38,8.75,5.88,12.77,4.35,2.78-1.06,4.38-3.28,5.4-5.94a1.32,1.32,0,0,1,1.52-1c2.37.07,4.75,0,7.17,0a2,2,0,0,1,0,.35c-1.57,6.12-4.77,11-11,13s-12.66,1.77-18.44-2a17.56,17.56,0,0,1-7.28-10.43c-2-7.19-1.89-14.32,1.4-21.13,3.46-7.16,9.3-10.8,17.27-11a18.87,18.87,0,0,1,10.42,2.48C365.2,95,367.6,99.16,368.37,104.52Z"/><path d="M350.62,20.08h8.61v6.73h-8.44v36.9H342.3V26.86h-6.86V20.1h6.79c0-.41,0-.73,0-1,.13-2.81.08-5.64.43-8.41A12,12,0,0,1,347,2.53,12.44,12.44,0,0,1,355.51,0c1.42,0,2.82.25,4.23.42.2,0,.52.31.52.47,0,2.2,0,4.4,0,6.58-1.26-.08-2.44-.21-3.62-.22-3.3,0-5.14,1.39-5.58,4.67C350.73,14.58,350.76,17.27,350.62,20.08Z"/><path d="M327.56.9V63.73h-8.41V.9Z"/><path d="M433.84,19v8.26c-1.32.16-2.62.24-3.87.49-6,1.18-9.43,4.82-10.29,10.85a35.57,35.57,0,0,0-.34,4.84c0,6.44,0,12.88,0,19.32v.94h-8.43V20.14h8.24c.08,2.68.16,5.36.25,8.25C422.25,22.13,427.21,19.36,433.84,19Z"/><path d="M449.61,63.74H441.3V20.12h8.31Z"/><path d="M187.16,135.11h-2.08V.9h2.08Z"/><path d="M441.26,10.49V.91h8.34v9.58Z"/><path d="M143.55,63.48l0,0h0Z"/><path d="M142.88,7.66h0Z"/></g></svg>