<svg xmlns="http://www.w3.org/2000/svg" viewBox="0 0 2074.17 963.06"><defs><style>.cls-1{opacity:0.4;}</style></defs><g id="Layer_2" data-name="Layer 2"><g id="Layer_1-2" data-name="Layer 1"><g id="Group_789" data-name="Group 789" class="cls-1"><g id="Group_784" data-name="Group 784"><path id="Path_1643" data-name="Path 1643" d="M125.67,778.43h31.09v31.09Z"/><path id="Path_1644" data-name="Path 1644" d="M125.67,826.43h31.09v31.1Z"/><path id="Path_1645" data-name="Path 1645" d="M125.67,874.44h31.09v31.1Z"/><path id="Path_1646" data-name="Path 1646" d="M169.15,778.43h31.09v31.09Z"/><path id="Path_1647" data-name="Path 1647" d="M169.15,826.43h31.09v31.1Z"/><path id="Path_1648" data-name="Path 1648" d="M169.15,874.44h31.09v31.1Z"/><path id="Path_1649" data-name="Path 1649" d="M212.63,778.43h31.09v31.09Z"/><path id="Path_1650" data-name="Path 1650" d="M212.63,826.43h31.09v31.1Z"/><path id="Path_1651" data-name="Path 1651" d="M212.63,874.44h31.09v31.1Z"/></g><g id="Group_785" data-name="Group 785"><circle id="Ellipse_42" data-name="Ellipse 42" cx="121.85" cy="487.08" r="3.35"/><circle id="Ellipse_43" data-name="Ellipse 43" cx="92" cy="487.08" r="3.35"/><circle id="Ellipse_44" data-name="Ellipse 44" cx="62.6" cy="487.08" r="3.35"/><circle id="Ellipse_45" data-name="Ellipse 45" cx="121.85" cy="459.82" r="3.35"/><circle id="Ellipse_46" data-name="Ellipse 46" cx="92" cy="459.82" r="3.35"/><circle id="Ellipse_47" data-name="Ellipse 47" cx="62.6" cy="459.82" r="3.35"/><circle id="Ellipse_48" data-name="Ellipse 48" cx="121.85" cy="432.55" r="3.35"/><circle id="Ellipse_49" data-name="Ellipse 49" cx="92" cy="432.55" r="3.35"/><circle id="Ellipse_50" data-name="Ellipse 50" cx="62.6" cy="432.55" r="3.35"/><circle id="Ellipse_51" data-name="Ellipse 51" cx="32.75" cy="487.08" r="3.35"/><circle id="Ellipse_52" data-name="Ellipse 52" cx="3.35" cy="487.08" r="3.35"/><circle id="Ellipse_53" data-name="Ellipse 53" cx="32.75" cy="459.82" r="3.35"/><circle id="Ellipse_54" data-name="Ellipse 54" cx="3.35" cy="459.82" r="3.35"/><circle id="Ellipse_55" data-name="Ellipse 55" cx="32.75" cy="432.55" r="3.35"/><circle id="Ellipse_56" data-name="Ellipse 56" cx="3.35" cy="432.55" r="3.35"/><circle id="Ellipse_57" data-name="Ellipse 57" cx="121.85" cy="405.29" r="3.35"/><circle id="Ellipse_58" data-name="Ellipse 58" cx="92" cy="405.29" r="3.35"/><circle id="Ellipse_59" data-name="Ellipse 59" cx="62.6" cy="405.29" r="3.35"/><circle id="Ellipse_60" data-name="Ellipse 60" cx="121.85" cy="378.02" r="3.35"/><circle id="Ellipse_61" data-name="Ellipse 61" cx="92" cy="378.02" r="3.35"/><circle id="Ellipse_62" data-name="Ellipse 62" cx="62.6" cy="378.02" r="3.35"/><circle id="Ellipse_63" data-name="Ellipse 63" cx="32.75" cy="405.29" r="3.35"/><circle id="Ellipse_64" data-name="Ellipse 64" cx="3.35" cy="405.29" r="3.35"/><circle id="Ellipse_65" data-name="Ellipse 65" cx="32.75" cy="378.02" r="3.35"/><circle id="Ellipse_66" data-name="Ellipse 66" cx="3.35" cy="378.02" r="3.35"/></g><g id="Group_786" data-name="Group 786"><path id="Path_1652" data-name="Path 1652" d="M1800.69,79.81h72v72Z"/><path id="Path_1653" data-name="Path 1653" d="M1800.69,191h72v72Z"/><path id="Path_1654" data-name="Path 1654" d="M1800.69,302.26h72v72Z"/><path id="Path_1655" data-name="Path 1655" d="M1901.42,79.81h72v72Z"/><path id="Path_1656" data-name="Path 1656" d="M1901.42,191h72v72Z"/><path id="Path_1657" data-name="Path 1657" d="M1901.42,302.26h72v72Z"/><path id="Path_1658" data-name="Path 1658" d="M2002.14,79.81h72v72Z"/><path id="Path_1659" data-name="Path 1659" d="M2002.14,191h72v72Z"/><path id="Path_1660" data-name="Path 1660" d="M2002.14,302.26h72v72Z"/></g><g id="Group_787" data-name="Group 787"><circle id="Ellipse_67" data-name="Ellipse 67" cx="1753.26" cy="959.71" r="3.35"/><circle id="Ellipse_68" data-name="Ellipse 68" cx="1723.69" cy="959.71" r="3.35"/><circle id="Ellipse_69" data-name="Ellipse 69" cx="1694.58" cy="959.71" r="3.35"/><circle id="Ellipse_70" data-name="Ellipse 70" cx="1753.26" cy="932.45" r="3.35"/><circle id="Ellipse_71" data-name="Ellipse 71" cx="1723.69" cy="932.45" r="3.35"/><circle id="Ellipse_72" data-name="Ellipse 72" cx="1694.58" cy="932.45" r="3.35"/><circle id="Ellipse_73" data-name="Ellipse 73" cx="1753.26" cy="905.18" r="3.35"/><circle id="Ellipse_74" data-name="Ellipse 74" cx="1723.69" cy="905.18" r="3.35"/><circle id="Ellipse_75" data-name="Ellipse 75" cx="1694.58" cy="905.18" r="3.35"/><circle id="Ellipse_76" data-name="Ellipse 76" cx="1665.01" cy="959.71" r="3.35"/><circle id="Ellipse_77" data-name="Ellipse 77" cx="1635.9" cy="959.71" r="3.35"/><circle id="Ellipse_78" data-name="Ellipse 78" cx="1665.01" cy="932.45" r="3.35"/><circle id="Ellipse_79" data-name="Ellipse 79" cx="1635.9" cy="932.45" r="3.35"/><circle id="Ellipse_80" data-name="Ellipse 80" cx="1665.01" cy="905.18" r="3.35"/><circle id="Ellipse_81" data-name="Ellipse 81" cx="1635.9" cy="905.18" r="3.35"/><circle id="Ellipse_82" data-name="Ellipse 82" cx="1753.26" cy="877.92" r="3.35"/><circle id="Ellipse_83" data-name="Ellipse 83" cx="1723.69" cy="877.92" r="3.35"/><circle id="Ellipse_84" data-name="Ellipse 84" cx="1694.58" cy="877.92" r="3.35"/><circle id="Ellipse_85" data-name="Ellipse 85" cx="1753.26" cy="850.65" r="3.35"/><circle id="Ellipse_86" data-name="Ellipse 86" cx="1723.69" cy="850.65" r="3.35"/><circle id="Ellipse_87" data-name="Ellipse 87" cx="1694.58" cy="850.65" r="3.35"/><circle id="Ellipse_88" data-name="Ellipse 88" cx="1665.01" cy="877.92" r="3.35"/><circle id="Ellipse_89" data-name="Ellipse 89" cx="1635.9" cy="877.92" r="3.35"/><circle id="Ellipse_90" data-name="Ellipse 90" cx="1665.01" cy="850.65" r="3.35"/><circle id="Ellipse_91" data-name="Ellipse 91" cx="1635.9" cy="850.65" r="3.35"/></g><g id="Group_788" data-name="Group 788"><circle id="Ellipse_67-2" data-name="Ellipse 67-2" cx="1296.55" cy="112.41" r="3.35"/><circle id="Ellipse_68-2" data-name="Ellipse 68-2" cx="1266.98" cy="112.41" r="3.35"/><circle id="Ellipse_69-2" data-name="Ellipse 69-2" cx="1237.87" cy="112.41" r="3.35"/><circle id="Ellipse_70-2" data-name="Ellipse 70-2" cx="1296.55" cy="85.14" r="3.35"/><circle id="Ellipse_71-2" data-name="Ellipse 71-2" cx="1266.98" cy="85.14" r="3.35"/><circle id="Ellipse_72-2" data-name="Ellipse 72-2" cx="1237.87" cy="85.14" r="3.35"/><circle id="Ellipse_73-2" data-name="Ellipse 73-2" cx="1296.55" cy="57.88" r="3.35"/><circle id="Ellipse_74-2" data-name="Ellipse 74-2" cx="1266.98" cy="57.88" r="3.35"/><circle id="Ellipse_75-2" data-name="Ellipse 75-2" cx="1237.87" cy="57.88" r="3.35"/><circle id="Ellipse_76-2" data-name="Ellipse 76-2" cx="1208.3" cy="112.41" r="3.35"/><circle id="Ellipse_77-2" data-name="Ellipse 77-2" cx="1179.19" cy="112.41" r="3.35"/><circle id="Ellipse_78-2" data-name="Ellipse 78-2" cx="1208.3" cy="85.14" r="3.35"/><circle id="Ellipse_79-2" data-name="Ellipse 79-2" cx="1179.19" cy="85.14" r="3.35"/><circle id="Ellipse_80-2" data-name="Ellipse 80-2" cx="1208.3" cy="57.88" r="3.35"/><circle id="Ellipse_81-2" data-name="Ellipse 81-2" cx="1179.19" cy="57.88" r="3.35"/><circle id="Ellipse_82-2" data-name="Ellipse 82-2" cx="1296.55" cy="30.61" r="3.35"/><circle id="Ellipse_83-2" data-name="Ellipse 83-2" cx="1266.98" cy="30.61" r="3.35"/><circle id="Ellipse_84-2" data-name="Ellipse 84-2" cx="1237.87" cy="30.61" r="3.35"/><circle id="Ellipse_85-2" data-name="Ellipse 85-2" cx="1296.55" cy="3.35" r="3.35"/><circle id="Ellipse_86-2" data-name="Ellipse 86-2" cx="1266.98" cy="3.35" r="3.35"/><circle id="Ellipse_87-2" data-name="Ellipse 87-2" cx="1237.87" cy="3.35" r="3.35"/><circle id="Ellipse_88-2" data-name="Ellipse 88-2" cx="1208.3" cy="30.61" r="3.35"/><circle id="Ellipse_89-2" data-name="Ellipse 89-2" cx="1179.19" cy="30.61" r="3.35"/><circle id="Ellipse_90-2" data-name="Ellipse 90-2" cx="1208.3" cy="3.35" r="3.35"/><circle id="Ellipse_91-2" data-name="Ellipse 91-2" cx="1179.19" cy="3.35" r="3.35"/></g></g></g></g></svg>