<svg id="Layer_1" data-name="Layer 1" xmlns="http://www.w3.org/2000/svg" viewBox="0 0 5398.94 709.84"><path d="M-1999.2-143.64c-20.61,89.29-97.68,171-248.11,171-179.89,0-261.44-115.59-261.44-252.64,0-131.63,92.46-252.36,262-252.36,180.77,0,237.76,117.12,244.93,173.45h-132c-11.36-31.87-39.14-72.9-112.43-72.9-85.51,0-127.91,63.41-127.91,150.59,0,84.58,40.26,152.65,127.53,152.65,61.82,0,94.54-24.88,115.43-69.82Z" transform="translate(2508.75 682.45)" fill="#1d1d1b"/><path d="M-1891.06,14.33V-682.45h132V14.33Z" transform="translate(2508.75 682.45)" fill="#1d1d1b"/><path d="M-1619-682.45h132v116.92h-132Zm0,217.89h132V14.33h-132Z" transform="translate(2508.75 682.45)" fill="#1d1d1b"/><path d="M-1348.18-340.94c0-41.42,0-82.19-.93-123.62h126.53c2.51,18.94,3.44,41.61,3.82,61.37,24.63-36.66,70.34-74.42,148.6-74.42,82.86,0,125.76,37.32,145.26,82.63,25.19-37.31,69.69-82.63,162.32-82.63,98.45,0,176.71,58.22,176.71,200.59V14.33H-715.93v-287.9c0-46.15-15.67-102.28-85.6-102.28-61.26,0-99.47,39.71-99.47,126.34V14.33h-130.72V-275.24c0-50.45-17.92-100.61-85.89-100.61-70.47,0-99.84,52.57-99.84,128.75V14.33h-130.73Z" transform="translate(2508.75 682.45)" fill="#1d1d1b"/><path d="M-3.44-114.91c0,57.31,2.81,118.7,4,129.24H-124.36c-3.73-13.33-4.94-44.94-5.59-59.12C-155.52-.77-210.38,27.39-304,27.39c-132.38,0-184.26-80.51-184.26-155.53,0-124.73,110.46-159.35,250.23-159.35h105.48v-18.36c0-43.08-18.65-80-98.91-80-73.76,0-90.44,29.54-97.72,62.17h-132c4.57-60.45,46.55-153.94,228.06-153.94C-35.88-477.61-3.44-383.74-3.44-304Zm-129.13-86.87c-12.22-.66-45-.66-103-.66-87.37,0-124.36,21.54-124.36,67.58,0,36.36,28.34,66.27,91,66.27,96.94,0,136.33-49.47,136.33-121.56Z" transform="translate(2508.75 682.45)" fill="#1d1d1b"/><path d="M75.71-464.56h88.8V-609.79H297.19v145.23H412.48v97.67H297.19v220.81c0,45.22,10.27,65.73,58.48,65.73,13.34,0,29.57-.28,42.91-3.36v92C374,15.72,342.3,18.34,309.44,18.34c-112,0-144.93-49-144.93-142.66V-366.89H75.71Z" transform="translate(2508.75 682.45)" fill="#1d1d1b"/><path d="M610.71-193.31C615-124.71,663.29-72.51,743-72.51c62.75,0,94.26-21.62,114.31-56.38h132C961.44-48.36,890.82,27.39,740.41,27.39c-188.32,0-261.36-128.57-261.36-251.61,0-138,92.45-253.39,259.86-253.39,184.92,0,256.6,129.85,256.6,252.08,0,10.83,0,18.77-.66,32.22ZM860.77-277c-3.37-43-26.38-106-122.13-106-85.43,0-120.38,49-126.06,106Z" transform="translate(2508.75 682.45)" fill="#1d1d1b"/><path d="M1107.42-298.9V-466.23h137.82V-298.9Zm0,313.23V-152.35h137.82V14.33Z" transform="translate(2508.75 682.45)" fill="#1d1d1b"/><path d="M1391.26-334.41c0-43.29,0-86.86-.94-130.15h128.87c2.24,16.06,4.11,68.21,4.11,99.53,28.06-66.31,90-113.89,187.49-111.93v121.47c-108.86-1.58-187.49,49-187.49,187V14.33h-132Z" transform="translate(2508.75 682.45)" fill="#f5333f"/><path d="M1894.28-193.31c4.29,68.6,52.58,120.8,132.31,120.8,62.74,0,94.26-21.62,114.3-56.38h132C2245-48.36,2174.39,27.39,2024,27.39c-188.32,0-261.36-128.57-261.36-251.61,0-138,92.45-253.39,259.87-253.39,184.91,0,256.59,129.85,256.59,252.08,0,10.83,0,18.77-.66,32.22ZM2144.34-277c-3.36-43-26.38-106-122.13-106-85.43,0-120.38,49-126.06,106Z" transform="translate(2508.75 682.45)" fill="#f5333f"/><path d="M2889.25-682.45v560.67c0,45.06,0,91.05.94,136.11H2760.3c-2.15-16.13-3.08-40.65-3.74-60.89-25.65,38.06-61.65,74-164.63,74-134.8,0-232.31-100.28-232.31-248.44,0-160.29,125.13-256.56,245.56-256.56,99.42,0,137.67,37.75,151.38,57.05V-682.45Zm-393.77,458.5c0,79.56,46.73,146.58,132.88,146.58,89.69,0,131.94-58.45,131.94-148.25,0-89.52-34-147.89-130.54-147.89C2539.22-373.51,2495.48-300.88,2495.48-223.95Z" transform="translate(2508.75 682.45)" fill="#f5333f"/></svg>