<?xml version="1.0" encoding="UTF-8"?>
<!DOCTYPE svg PUBLIC "-//W3C//DTD SVG 1.1//EN" "http://www.w3.org/Graphics/SVG/1.1/DTD/svg11.dtd">
<svg version="1.1" xmlns="http://www.w3.org/2000/svg" xmlns:xlink="http://www.w3.org/1999/xlink" x="0" y="0" width="462.404" height="100" viewBox="0, 0, 462.404, 100">
  <g id="Layer_1">
    <path d="M11.607,36.002 C13.25,37.316 15.304,38.005 17.406,37.949 C24.536,37.871 30.252,32.028 30.173,24.899 C30.173,24.718 30.173,24.536 30.173,24.355 C30.557,17.248 25.117,11.172 18.011,10.77 L17.457,10.77 C15.348,10.749 13.298,11.462 11.658,12.787 L11.658,11.164 L3.782,11.164 L3.782,47.247 L11.9,47.247 z M11.607,20.26 C12.614,18.803 14.295,17.959 16.065,18.021 C17.637,17.97 19.165,18.546 20.311,19.622 C21.458,20.699 22.129,22.188 22.176,23.76 C22.191,23.958 22.191,24.157 22.176,24.355 C22.29,25.923 21.774,27.472 20.742,28.658 C19.711,29.845 18.249,30.572 16.68,30.678 C16.432,30.693 16.182,30.693 15.934,30.678 C14.178,30.767 12.493,29.972 11.446,28.56 z" fill="#000000" id="Path_1"/>
    <path d="M34.984,0.081 L42.941,0.081 L42.941,37.535 L34.984,37.535 z" fill="#000000" id="Rectangle_2"/>
    <path d="M66.307,36.002 L66.307,37.545 L74.425,37.545 L74.425,11.164 L66.307,11.164 L66.307,12.747 C64.668,11.448 62.64,10.737 60.549,10.73 C53.419,10.763 47.667,16.57 47.701,23.699 C47.701,23.911 47.701,24.113 47.701,24.324 C47.508,27.751 48.688,31.113 50.98,33.667 C53.271,36.222 56.486,37.759 59.913,37.939 L60.549,37.939 C62.636,37.98 64.673,37.292 66.307,35.992 z M55.758,24.355 C55.533,21.088 57.998,18.258 61.265,18.031 L61.799,18.031 C63.582,17.974 65.275,18.815 66.307,20.27 L66.307,28.338 C65.272,29.789 63.581,30.629 61.799,30.577 C58.528,30.644 55.82,28.049 55.748,24.778 C55.748,24.607 55.748,24.526 55.758,24.355 z" fill="#000000" id="Path_2"/>
    <path d="M106.041,37.545 L106.041,22.812 C106.429,19.594 105.364,16.371 103.136,14.019 C100.908,11.666 97.747,10.427 94.514,10.639 C92.325,10.597 90.188,11.309 88.463,12.656 L88.463,11.043 L80.395,11.043 L80.395,37.424 L88.513,37.424 L88.513,20.28 C89.708,18.896 91.426,18.074 93.253,18.011 C96.753,18.011 98.084,20.694 98.084,24.223 L98.084,37.535 z" fill="#000000" id="Path_3"/>
    <path d="M123.901,37.949 C128.715,38.051 133.235,35.64 135.831,31.585 L129.538,27.33 C128.473,29.447 126.269,30.748 123.901,30.658 C120.984,30.803 118.459,28.65 118.142,25.746 L136.688,25.746 C136.728,24.977 136.728,24.206 136.688,23.437 C136.836,20.21 135.694,17.058 133.515,14.674 C131.335,12.29 128.297,10.871 125.071,10.73 C124.694,10.71 124.317,10.71 123.941,10.73 C116.738,10.526 110.72,16.174 110.468,23.376 C110.468,23.689 110.468,24.012 110.468,24.324 C110.378,31.743 116.32,37.83 123.739,37.919 z M123.618,17.134 C126.179,16.858 128.51,18.628 128.933,21.168 L118.173,21.168 C118.773,18.683 121.066,16.984 123.618,17.134 z" fill="#000000" id="Path_4"/>
    <path d="M150.807,3.247 L142.689,7.281 L142.689,11.315 L137.646,11.315 L139.391,18.294 L142.799,18.294 L142.799,29.629 C142.504,33.767 145.602,37.369 149.738,37.697 C150.13,37.727 150.525,37.727 150.918,37.697 L158.189,37.697 L158.189,30.274 L153.883,30.274 C151.694,30.274 150.797,29.347 150.797,27.158 L150.797,18.152 L157.422,18.152 L159.197,11.174 L150.827,11.174 z" fill="#000000" id="Path_5"/>
    <path d="M168.747,37.949 C171.89,37.949 174.437,35.4 174.435,32.258 C174.433,29.115 171.883,26.569 168.741,26.573 C165.598,26.577 163.054,29.128 163.06,32.271 C163.06,33.779 163.659,35.224 164.726,36.289 C165.793,37.354 167.24,37.951 168.747,37.949 z" fill="#000000" id="Path_6"/>
    <path d="M168.747,22.126 C171.05,22.126 173.125,20.738 174.004,18.61 C174.883,16.482 174.393,14.034 172.762,12.409 C171.131,10.784 168.681,10.302 166.557,11.189 C164.432,12.076 163.051,14.156 163.06,16.458 C163.06,19.6 165.606,22.146 168.747,22.146 z" fill="#000000" id="Path_7"/>
    <path d="M10.75,56.01 L0,66.801 L7.745,66.801 L7.745,90.298 L18.263,90.298 L18.263,87.374 L10.75,87.374 L10.75,66.801 L18.263,66.801 L18.263,63.917 L10.75,63.917 z" fill="#000000" id="Path_8"/>
    <path d="M37.535,63.513 C34.019,63.217 30.595,64.739 28.459,67.547 L28.459,52.763 L25.434,52.763 L25.434,90.218 L28.459,90.218 L28.459,72.771 C29.224,68.919 32.651,66.177 36.577,66.277 C38.426,66.076 40.278,66.62 41.726,67.787 C43.173,68.954 44.097,70.65 44.292,72.499 C44.353,73.022 44.353,73.55 44.292,74.072 L44.292,90.298 L47.317,90.298 L47.317,73.618 C47.748,68.484 43.939,63.972 38.806,63.534 C38.383,63.502 37.959,63.495 37.535,63.513 z" fill="#000000" id="Path_9"/>
    <path d="M67.043,63.514 C59.524,63.625 53.519,69.811 53.63,77.33 C53.742,84.849 59.928,90.854 67.447,90.742 L67.557,90.742 C71.335,90.768 74.974,89.321 77.703,86.708 L75.797,84.601 C73.63,86.69 70.738,87.857 67.729,87.858 C61.992,87.858 57.342,83.207 57.342,77.471 L57.342,77.188 L79.528,77.188 C79.336,67.89 73.941,63.514 67.043,63.514 z M67.043,66.277 C71.826,65.97 75.966,69.566 76.331,74.344 L57.503,74.344 C58.293,69.74 62.25,66.35 66.922,66.277 z" fill="#000000" id="Path_10"/>
    <path d="M113.06,63.514 C109.366,63.364 105.792,64.838 103.277,67.547 L103.277,63.856 L100.252,63.856 L100.252,99.96 L103.277,99.96 L103.277,86.648 C105.79,89.36 109.366,90.834 113.06,90.682 C120.579,90.682 126.674,84.586 126.674,77.067 C126.674,69.548 120.579,63.453 113.06,63.453 z M113.06,87.868 C109.069,88.032 105.312,85.99 103.277,82.553 L103.277,71.642 C105.864,66.972 111.431,64.836 116.478,66.576 C121.524,68.317 124.591,73.432 123.748,78.703 C122.905,83.974 118.397,87.878 113.06,87.959 z" fill="#000000" id="Path_11"/>
    <path d="M145.482,63.514 C137.983,63.575 131.948,69.692 131.989,77.191 C132.03,84.69 138.131,90.742 145.63,90.722 C153.129,90.701 159.197,84.617 159.197,77.118 C159.332,69.741 153.463,63.651 146.087,63.514 z M145.482,87.868 C139.5,88.022 134.527,83.297 134.375,77.315 C134.224,71.334 138.951,66.362 144.933,66.213 C150.914,66.064 155.884,70.793 156.031,76.775 L156.031,77.047 C156.287,82.797 151.837,87.667 146.087,87.929 L145.482,87.929 z" fill="#000000" id="Path_12"/>
    <path d="M187.697,85.034 L180.022,63.524 L172.358,85.034 L165.702,63.937 L162.586,63.937 L171.027,90.309 L173.316,90.309 L180.052,71.359 L186.95,90.309 L189.098,90.309 L197.519,63.927 L194.403,63.927 z" fill="#000000" id="Path_13"/>
    <path d="M213.544,63.514 C206.025,63.628 200.022,69.816 200.136,77.335 C200.25,84.854 206.438,90.856 213.957,90.742 L214.068,90.742 C217.846,90.768 221.485,89.321 224.213,86.708 L222.307,84.601 C220.141,86.69 217.249,87.857 214.24,87.858 C208.503,87.858 203.852,83.207 203.852,77.471 L203.852,77.188 L226.039,77.188 C225.847,67.89 220.442,63.514 213.544,63.514 z M213.544,66.277 C218.328,65.97 222.471,69.565 222.842,74.344 L204.135,74.344 C204.912,69.785 208.799,66.408 213.423,66.277 z" fill="#000000" id="Path_14"/>
    <path d="M236.355,67.89 L236.355,63.856 L233.33,63.856 L233.33,90.238 L236.355,90.238 L236.355,72.247 C237.475,68.999 240.514,66.803 243.949,66.761 C244.65,66.78 245.346,66.874 246.026,67.043 L246.026,63.927 C245.446,63.877 244.862,63.877 244.282,63.927 C241.126,63.825 238.138,65.348 236.365,67.961 z" fill="#000000" id="Path_15"/>
    <path d="M277.057,63.513 C269.553,63.552 263.498,69.66 263.524,77.165 C263.55,84.669 269.647,90.735 277.151,90.722 C284.655,90.709 290.732,84.622 290.732,77.118 C290.867,69.741 284.998,63.651 277.622,63.513 z M277.057,87.868 C271.067,87.913 266.177,83.091 266.136,77.101 C266.095,71.111 270.92,66.224 276.909,66.186 C282.899,66.149 287.784,70.977 287.818,76.966 L287.818,77.118 C288.039,82.874 283.559,87.724 277.803,87.959 C277.551,87.959 277.309,87.959 277.057,87.959 z" fill="#000000" id="Path_16"/>
    <path d="M297.358,59.177 C297.335,60.994 298.109,62.73 299.475,63.927 L294.635,63.927 L294.635,66.801 L299.99,66.801 L299.99,90.298 L303.015,90.298 L303.015,66.801 L310.68,66.801 L310.68,63.927 L304.881,63.927 C303.806,64.002 302.745,63.643 301.936,62.93 C301.127,62.218 300.637,61.211 300.575,60.135 C300.565,59.954 300.565,59.772 300.575,59.591 C300.635,57.313 302.522,55.512 304.8,55.557 L305.204,55.557 L310.68,55.557 L310.68,52.763 L305.365,52.763 C300.434,52.763 297.358,55.486 297.358,59.177 z" fill="#000000" id="Path_17"/>
    <path d="M350.595,85.186 L350.595,63.927 L347.569,63.927 L333.451,85.186 L333.451,63.927 L330.425,63.927 L330.425,90.298 L333.451,90.298 L347.569,69.04 L347.569,90.298 L350.595,90.298 L364.804,69.04 L364.804,90.298 L367.83,90.298 L367.83,63.927 L364.804,63.927 z" fill="#000000" id="Path_18"/>
    <path d="M398.447,67.578 C395.953,64.887 392.412,63.415 388.745,63.544 C381.226,63.544 375.131,69.639 375.131,77.158 C375.131,84.677 381.226,90.772 388.745,90.772 L388.745,90.772 C392.406,90.872 395.936,89.404 398.447,86.739 L398.447,90.309 L401.472,90.309 L401.472,63.856 L398.447,63.856 z M398.447,82.634 C396.454,86.073 392.716,88.12 388.745,87.949 C383.566,87.75 379.251,83.912 378.45,78.791 C377.649,73.67 380.585,68.698 385.457,66.927 C390.328,65.156 395.772,67.081 398.447,71.521 z" fill="#000000" id="Path_19"/>
    <path d="M423.235,63.514 C419.718,63.216 416.294,64.738 414.159,67.547 L414.159,63.756 L411.133,63.756 L411.133,90.137 L414.159,90.137 L414.159,72.771 C414.939,68.949 418.326,66.222 422.227,66.277 C426.078,65.98 429.453,68.833 429.8,72.68 C429.846,73.143 429.846,73.609 429.8,74.072 L429.8,90.298 L432.826,90.298 L432.826,73.618 C433.035,71.151 432.254,68.701 430.656,66.809 C429.057,64.917 426.772,63.739 424.304,63.534 C423.945,63.514 423.584,63.514 423.225,63.534 z" fill="#000000" id="Path_20"/>
    <path d="M459.026,63.927 L449.485,84.459 L439.955,63.927 L436.577,63.927 L447.862,87.384 L441.811,100 L445.018,100 L462.404,63.927 z" fill="#000000" id="Path_21"/>
    <path d="M196.995,37.545 L207.079,37.545 L194.877,21.672 C199.883,19.759 202.824,14.559 201.882,9.283 C200.941,4.007 196.383,0.144 191.025,0.081 L181,0.081 L181,7.795 L190.077,7.795 C192.069,7.683 193.799,9.153 194.009,11.137 C194.219,13.121 192.835,14.921 190.863,15.228 C190.601,15.248 190.338,15.248 190.077,15.228 L181,15.228 L181,22.368 L185.417,22.368 z" fill="#EF3340" id="Path_22"/>
    <path d="M220.038,10.76 C212.804,10.574 206.788,16.284 206.595,23.518 C206.595,23.81 206.595,24.092 206.595,24.385 C206.539,27.938 207.897,31.367 210.372,33.917 C212.846,36.467 216.233,37.929 219.786,37.979 L220.028,37.979 C224.864,38.087 229.406,35.663 232.009,31.585 L225.676,27.319 C224.611,29.437 222.407,30.738 220.038,30.647 C217.12,30.798 214.592,28.642 214.28,25.736 L232.816,25.736 C232.862,24.997 232.862,24.256 232.816,23.518 C233.106,16.8 227.904,11.116 221.188,10.811 C220.815,10.791 220.441,10.791 220.068,10.811 z M214.119,21.148 C214.718,18.667 217.006,16.969 219.554,17.114 C222.121,16.847 224.458,18.607 224.909,21.148 z" fill="#EF3340" id="Path_23"/>
    <path d="M254.538,12.747 C252.886,11.437 250.838,10.726 248.729,10.73 C241.604,10.791 235.876,16.614 235.932,23.739 C235.932,23.931 235.932,24.133 235.932,24.324 C235.739,27.751 236.919,31.113 239.211,33.667 C241.503,36.222 244.717,37.759 248.144,37.939 L248.729,37.939 C250.833,37.983 252.886,37.295 254.538,35.992 L254.538,37.535 L262.656,37.535 L262.656,-0 L254.538,-0 z M254.538,28.54 C253.498,29.953 251.824,30.758 250.07,30.688 C246.818,30.756 244.119,28.191 244.02,24.939 C244.005,24.745 244.005,24.549 244.02,24.355 C243.909,22.788 244.426,21.242 245.457,20.057 C246.489,18.873 247.949,18.148 249.516,18.042 C249.711,18.032 249.906,18.032 250.101,18.042 C251.872,17.988 253.551,18.83 254.568,20.28 z" fill="#EF3340" id="Path_24"/>
  </g>
</svg>
