<?xml version="1.0" encoding="UTF-8"?>
<!DOCTYPE svg PUBLIC "-//W3C//DTD SVG 1.1//EN" "http://www.w3.org/Graphics/SVG/1.1/DTD/svg11.dtd">
<svg version="1.1" xmlns="http://www.w3.org/2000/svg" xmlns:xlink="http://www.w3.org/1999/xlink" x="0" y="0" width="1190" height="186" viewBox="0, 0, 1190, 186">
  <g id="Layer_1">
    <path d="M186.4,93 C186.4,144.362 144.673,186 93.2,186 C41.727,186 0,144.362 0,93 C0,41.638 41.727,0 93.2,0 C144.673,0 186.4,41.638 186.4,93 z" fill="#FFFFFF" id="Ellipse_1"/>
    <path d="M351.588,66.965 C354.643,69.407 358.463,70.689 362.373,70.585 C375.632,70.44 386.264,59.573 386.118,46.312 C386.118,45.975 386.118,45.637 386.118,45.3 C386.832,32.081 376.714,20.779 363.498,20.033 L362.467,20.033 C358.545,19.993 354.732,21.319 351.682,23.785 L351.682,20.765 L337.034,20.765 L337.034,87.879 L352.132,87.879 z M351.588,37.684 C353.461,34.973 356.586,33.403 359.878,33.52 C362.802,33.424 365.643,34.495 367.776,36.498 C369.908,38.5 371.156,41.269 371.244,44.193 C371.273,44.561 371.273,44.931 371.244,45.3 C371.456,48.216 370.496,51.097 368.577,53.305 C366.659,55.512 363.94,56.864 361.022,57.061 C360.56,57.089 360.097,57.089 359.634,57.061 C356.369,57.227 353.236,55.748 351.288,53.121 z" fill="#000000" id="Path_1"/>
    <path d="M395.065,0.15 L409.863,0.15 L409.863,69.816 L395.065,69.816 z" fill="#000000" id="Rectangle_2"/>
    <path d="M453.321,66.965 L453.321,69.834 L468.419,69.834 L468.419,20.765 L453.321,20.765 L453.321,23.71 C450.273,21.293 446.501,19.971 442.611,19.958 C429.352,20.02 418.654,30.82 418.716,44.08 C418.716,44.474 418.716,44.849 418.716,45.243 C418.358,51.616 420.553,57.87 424.815,62.622 C429.077,67.373 435.055,70.232 441.429,70.566 L442.611,70.566 C446.493,70.643 450.281,69.363 453.321,66.946 z M433.702,45.3 C433.283,39.224 437.868,33.959 443.943,33.539 L444.937,33.539 C448.253,33.431 451.402,34.995 453.321,37.703 L453.321,52.709 C451.395,55.408 448.251,56.97 444.937,56.873 C438.853,56.999 433.816,52.172 433.683,46.087 C433.683,45.768 433.683,45.618 433.702,45.3 z" fill="#000000" id="Path_2"/>
    <path d="M527.219,69.834 L527.219,42.43 C527.941,36.446 525.961,30.451 521.817,26.074 C517.673,21.698 511.795,19.394 505.781,19.789 C501.711,19.71 497.737,21.035 494.528,23.541 L494.528,20.54 L479.523,20.54 L479.523,69.609 L494.621,69.609 L494.621,37.721 C496.843,35.147 500.038,33.617 503.437,33.501 C509.945,33.501 512.421,38.491 512.421,45.056 L512.421,69.816 z" fill="#000000" id="Path_3"/>
    <path d="M560.436,70.585 C569.389,70.776 577.796,66.291 582.625,58.749 L570.921,50.833 C568.94,54.772 564.842,57.192 560.436,57.023 C555.011,57.293 550.316,53.288 549.727,47.888 L584.219,47.888 C584.294,46.457 584.294,45.023 584.219,43.593 C584.494,37.591 582.37,31.727 578.317,27.294 C574.263,22.86 568.613,20.221 562.612,19.958 C561.912,19.921 561.211,19.921 560.511,19.958 C547.114,19.579 535.922,30.084 535.453,43.48 C535.453,44.062 535.453,44.662 535.453,45.243 C535.286,59.043 546.338,70.364 560.136,70.528 z M559.911,31.869 C564.673,31.357 569.008,34.647 569.795,39.372 L549.783,39.372 C550.9,34.75 555.165,31.591 559.911,31.869 z" fill="#000000" id="Path_4"/>
    <path d="M610.477,6.04 L595.379,13.543 L595.379,21.046 L586.001,21.046 L589.245,34.026 L595.585,34.026 L595.585,55.11 C595.036,62.807 600.797,69.507 608.489,70.116 C609.219,70.172 609.953,70.172 610.684,70.116 L624.207,70.116 L624.207,56.31 L616.198,56.31 C612.128,56.31 610.458,54.585 610.458,50.514 L610.458,33.764 L622.781,33.764 L626.082,20.783 L610.515,20.783 z" fill="#000000" id="Path_5"/>
    <path d="M643.844,70.585 C649.689,70.585 654.426,65.844 654.422,59.999 C654.419,54.154 649.676,49.419 643.832,49.426 C637.987,49.433 633.255,54.179 633.266,60.024 C633.266,62.828 634.381,65.517 636.365,67.498 C638.35,69.479 641.04,70.59 643.844,70.585 z" fill="#000000" id="Path_6"/>
    <path d="M643.844,41.154 C648.126,41.154 651.986,38.572 653.621,34.615 C655.256,30.657 654.344,26.104 651.311,23.081 C648.278,20.058 643.722,19.162 639.77,20.812 C635.818,22.461 633.251,26.33 633.266,30.612 C633.266,36.455 638.002,41.192 643.844,41.192 z" fill="#000000" id="Path_7"/>
    <path d="M349.994,104.18 L330,124.25 L344.405,124.25 L344.405,167.955 L363.967,167.955 L363.967,162.516 L349.994,162.516 L349.994,124.25 L363.967,124.25 L363.967,118.885 L349.994,118.885 z" fill="#000000" id="Path_8"/>
    <path d="M399.81,118.135 C393.27,117.585 386.903,120.415 382.929,125.638 L382.929,98.14 L377.303,98.14 L377.303,167.805 L382.929,167.805 L382.929,135.355 C384.351,128.189 390.726,123.089 398.028,123.275 C401.466,122.902 404.912,123.912 407.604,126.084 C410.296,128.255 412.013,131.409 412.376,134.848 C412.489,135.82 412.489,136.802 412.376,137.774 L412.376,167.955 L418.003,167.955 L418.003,136.93 C418.804,127.381 411.72,118.988 402.173,118.173 C401.387,118.113 400.598,118.101 399.81,118.135 z" fill="#000000" id="Path_9"/>
    <path d="M454.69,118.135 C440.706,118.342 429.537,129.848 429.744,143.833 C429.952,157.818 441.456,168.988 455.44,168.781 L455.646,168.781 C462.672,168.829 469.441,166.138 474.515,161.278 L470.97,157.357 C466.941,161.243 461.562,163.414 455.965,163.416 C445.296,163.416 436.647,154.766 436.647,144.096 L436.647,143.57 L477.91,143.57 C477.553,126.276 467.519,118.135 454.69,118.135 z M454.69,123.275 C463.585,122.704 471.284,129.393 471.964,138.281 L436.947,138.281 C438.416,129.716 445.776,123.411 454.465,123.275 z" fill="#000000" id="Path_10"/>
    <path d="M540.274,118.135 C533.404,117.857 526.757,120.598 522.08,125.638 L522.08,118.773 L516.453,118.773 L516.453,185.925 L522.08,185.925 L522.08,161.165 C526.754,166.209 533.403,168.952 540.274,168.668 C554.258,168.668 565.594,157.331 565.594,143.345 C565.594,129.36 554.258,118.023 540.274,118.023 z M540.274,163.435 C532.852,163.739 525.864,159.942 522.08,153.549 L522.08,133.254 C526.891,124.568 537.245,120.594 546.631,123.832 C556.016,127.07 561.719,136.583 560.152,146.388 C558.585,156.192 550.201,163.453 540.274,163.603 z" fill="#000000" id="Path_11"/>
    <path d="M600.574,118.135 C586.628,118.249 575.403,129.628 575.479,143.576 C575.555,157.523 586.902,168.78 600.849,168.742 C614.795,168.704 626.082,157.387 626.082,143.439 C626.333,129.719 615.418,118.392 601.699,118.135 z M600.574,163.435 C589.449,163.721 580.2,154.932 579.917,143.807 C579.635,132.681 588.427,123.434 599.552,123.156 C610.677,122.879 619.92,131.675 620.193,142.801 L620.193,143.308 C620.67,154.002 612.393,163.061 601.699,163.547 L600.574,163.547 z" fill="#000000" id="Path_12"/>
    <path d="M679.087,158.164 L664.813,118.154 L650.559,158.164 L638.18,118.923 L632.384,118.923 L648.083,167.974 L652.341,167.974 L664.87,132.729 L677.699,167.974 L681.694,167.974 L697.355,118.904 L691.559,118.904 z" fill="#000000" id="Path_13"/>
    <path d="M727.158,118.135 C713.174,118.347 702.01,129.857 702.222,143.842 C702.435,157.828 713.943,168.993 727.927,168.781 L728.134,168.781 C735.16,168.829 741.928,166.138 747.002,161.278 L743.457,157.357 C739.428,161.243 734.05,163.414 728.452,163.416 C717.783,163.416 709.134,154.766 709.134,144.096 L709.134,143.57 L750.397,143.57 C750.041,126.276 739.987,118.135 727.158,118.135 z M727.158,123.275 C736.057,122.704 743.762,129.39 744.451,138.281 L709.659,138.281 C711.104,129.8 718.335,123.519 726.933,123.275 z" fill="#000000" id="Path_14"/>
    <path d="M769.584,126.276 L769.584,118.773 L763.958,118.773 L763.958,167.843 L769.584,167.843 L769.584,134.379 C771.666,128.337 777.318,124.254 783.708,124.175 C785.011,124.21 786.306,124.386 787.571,124.7 L787.571,118.904 C786.492,118.81 785.406,118.81 784.327,118.904 C778.457,118.715 772.9,121.547 769.603,126.407 z" fill="#000000" id="Path_15"/>
    <path d="M845.284,118.135 C831.327,118.208 820.065,129.568 820.113,143.526 C820.161,157.484 831.502,168.767 845.458,168.743 C859.415,168.719 870.717,157.397 870.717,143.439 C870.968,129.719 860.053,118.392 846.334,118.135 z M845.284,163.435 C834.144,163.517 825.048,154.549 824.972,143.408 C824.896,132.267 833.869,123.176 845.009,123.107 C856.149,123.038 865.234,132.017 865.296,143.158 L865.296,143.439 C865.709,154.146 857.377,163.167 846.672,163.603 C846.203,163.603 845.753,163.603 845.284,163.603 z" fill="#000000" id="Path_16"/>
    <path d="M883.039,110.069 C882.997,113.449 884.437,116.677 886.978,118.904 L877.975,118.904 L877.975,124.25 L887.935,124.25 L887.935,167.955 L893.562,167.955 L893.562,124.25 L907.816,124.25 L907.816,118.904 L897.031,118.904 C895.031,119.043 893.059,118.375 891.555,117.05 C890.05,115.725 889.138,113.853 889.023,111.851 C889.004,111.514 889.004,111.176 889.023,110.838 C889.135,106.602 892.645,103.251 896.881,103.335 L897.632,103.335 L907.816,103.335 L907.816,98.14 L897.932,98.14 C888.76,98.14 883.039,103.204 883.039,110.069 z" fill="#000000" id="Path_17"/>
    <path d="M982.052,158.445 L982.052,118.904 L976.426,118.904 L950.167,158.445 L950.167,118.904 L944.54,118.904 L944.54,167.955 L950.167,167.955 L976.426,128.414 L976.426,167.955 L982.052,167.955 L1008.48,128.414 L1008.48,167.955 L1014.106,167.955 L1014.106,118.904 L1008.48,118.904 z" fill="#000000" id="Path_18"/>
    <path d="M1071.05,125.694 C1066.411,120.691 1059.825,117.952 1053.006,118.191 C1039.022,118.191 1027.686,129.529 1027.686,143.514 C1027.686,157.499 1039.022,168.837 1053.006,168.837 L1053.006,168.837 C1059.815,169.022 1066.379,166.292 1071.05,161.334 L1071.05,167.974 L1076.676,167.974 L1076.676,118.773 L1071.05,118.773 z M1071.05,153.699 C1067.343,160.096 1060.391,163.904 1053.006,163.585 C1043.373,163.215 1035.349,156.077 1033.859,146.552 C1032.369,137.027 1037.83,127.779 1046.89,124.485 C1055.95,121.19 1066.074,124.771 1071.05,133.029 z" fill="#000000" id="Path_19"/>
    <path d="M1117.152,118.135 C1110.612,117.581 1104.243,120.412 1100.271,125.638 L1100.271,118.585 L1094.645,118.585 L1094.645,167.655 L1100.271,167.655 L1100.271,135.355 C1101.722,128.246 1108.022,123.173 1115.276,123.275 C1122.439,122.722 1128.716,128.03 1129.362,135.186 C1129.446,136.047 1129.446,136.914 1129.362,137.774 L1129.362,167.955 L1134.989,167.955 L1134.989,136.93 C1135.378,132.34 1133.926,127.784 1130.953,124.265 C1127.98,120.746 1123.73,118.555 1119.14,118.173 C1118.471,118.135 1117.801,118.135 1117.133,118.173 z" fill="#000000" id="Path_20"/>
    <path d="M1183.717,118.904 L1165.974,157.095 L1148.249,118.904 L1141.966,118.904 L1162.954,162.534 L1151.7,186 L1157.665,186 L1190,118.904 z" fill="#000000" id="Path_21"/>
    <path d="M696.38,69.834 L715.136,69.834 L692.441,40.31 C701.752,36.752 707.221,27.079 705.47,17.266 C703.719,7.453 695.243,0.268 685.276,0.15 L666.633,0.15 L666.633,14.5 L683.513,14.5 C687.218,14.29 690.436,17.024 690.827,20.715 C691.217,24.406 688.643,27.754 684.976,28.324 C684.489,28.361 684,28.361 683.513,28.324 L666.633,28.324 L666.633,41.604 L674.848,41.604 z" fill="#EF3340" id="Path_22"/>
    <path d="M739.237,20.014 C725.783,19.668 714.593,30.288 714.235,43.743 C714.235,44.287 714.235,44.812 714.235,45.356 C714.13,51.964 716.657,58.343 721.259,63.086 C725.861,67.829 732.16,70.547 738.768,70.641 L739.218,70.641 C748.213,70.842 756.66,66.333 761.5,58.749 L749.722,50.814 C747.741,54.753 743.643,57.173 739.237,57.004 C733.809,57.284 729.108,53.274 728.527,47.869 L763.001,47.869 C763.087,46.495 763.087,45.117 763.001,43.743 C763.541,31.249 753.867,20.676 741.375,20.108 C740.682,20.071 739.987,20.071 739.293,20.108 z M728.227,39.335 C729.343,34.72 733.597,31.563 738.337,31.832 C743.11,31.335 747.457,34.609 748.296,39.335 z" fill="#EF3340" id="Path_23"/>
    <path d="M803.401,23.71 C800.328,21.273 796.52,19.95 792.598,19.958 C779.346,20.072 768.693,30.902 768.797,44.155 C768.797,44.512 768.797,44.887 768.797,45.243 C768.439,51.616 770.633,57.87 774.896,62.622 C779.158,67.373 785.136,70.232 791.51,70.566 L792.598,70.566 C796.51,70.648 800.329,69.368 803.401,66.946 L803.401,69.816 L818.5,69.816 L818.5,0 L803.401,0 z M803.401,53.084 C801.467,55.713 798.354,57.21 795.093,57.079 C789.044,57.206 784.023,52.435 783.839,46.387 C783.811,46.025 783.811,45.662 783.839,45.3 C783.633,42.386 784.595,39.51 786.513,37.307 C788.431,35.103 791.147,33.754 794.061,33.557 C794.423,33.539 794.786,33.539 795.149,33.557 C798.443,33.458 801.565,35.023 803.458,37.721 z" fill="#EF3340" id="Path_24"/>
    <path d="M50,99.48 L64.79,99.48 L64.79,114.29 L77.47,114.29 L77.47,99.48 L92.24,99.48 L92.24,86.8 L77.47,86.8 L77.47,72 L64.79,72 L64.79,86.8 L50,86.8 z" fill="#EF3340" id="Path_25"/>
    <path d="M136.26,109.49 C128.864,112.427 120.417,110.108 115.558,103.807 C110.699,97.505 110.604,88.746 115.326,82.34 C120.048,75.934 128.442,73.433 135.9,76.21 C132.141,73.207 127.471,71.574 122.66,71.58 C113.214,71.561 104.872,77.734 102.129,86.773 C99.386,95.811 102.891,105.579 110.754,110.813 C118.617,116.047 128.981,115.509 136.26,109.49 z" fill="#EF3340" id="Path_26"/>
    <path d="M10.732,92.757 L10.748,91.267 L26.527,91.441 L26.511,92.931 z" fill="#6E7C7C" id="Rectangle_3"/>
    <path d="M26.72,85.88 L13.59,83.5 L13.59,83.5 L28.32,76.82 L28.64,75.17 L13.12,72.36 L12.88,73.8 L26,76.18 L26,76.18 L11.23,82.9 L11,84.55 L26.49,87.33 z" fill="#6E7C7C" id="Path_27"/>
    <path d="M17.67,63.3 L31.05,68.73 L31.62,67.37 L18.23,61.93 L20.29,56.82 L19.08,56.34 L14.41,67.93 L15.58,68.41 z" fill="#6E7C7C" id="Path_28"/>
    <path d="M40.4,51.83 L39.32,51.15 L34.17,59.15 L29,55.73 L33.75,48.37 L32.67,47.65 L27.89,55 L23.09,52 L28.16,44.12 L27.07,43.43 L21.21,52.57 L34.45,61.14 z" fill="#6E7C7C" id="Path_29"/>
    <path d="M43.7,48.09 L38.83,43.09 L42.83,39.09 C44.83,36.99 46.61,38.64 48.26,40.09 C48.818,40.718 49.498,41.226 50.26,41.58 L51.43,40.41 C50.43,40.41 48.89,38.76 48.08,38.04 C46.935,36.816 45.094,36.55 43.65,37.4 L43.65,37.4 C44.769,35.567 44.283,33.18 42.537,31.93 C40.79,30.68 38.375,30.989 37,32.64 L31.65,37.83 L42.65,49.14 z M33.64,37.71 L37.64,33.71 C38.681,32.442 40.548,32.246 41.83,33.27 C41.991,33.401 42.139,33.549 42.27,33.71 C42.838,34.303 43.145,35.097 43.125,35.918 C43.104,36.738 42.757,37.517 42.16,38.08 L41.95,38.26 L37.95,42.26 z" fill="#6E7C7C" id="Path_30"/>
    <path d="M55.37,37.87 L48.65,26.35 L48.7,26.35 L63.34,33.23 L64.79,32.38 L56.79,18.79 L55.5,19.56 L62.25,31 L62.25,31 L47.57,24.19 L46.12,25 L54.12,38.6 z" fill="#6E7C7C" id="Path_31"/>
    <path d="M68.61,25.67 L75.49,23.59 L78.75,27.59 L80.28,27.1 L69.78,14 L68.17,14.49 L66.72,31.39 L68.25,30.91 z M69.22,15.67 L74.5,22.51 L68.58,24.3 z" fill="#6E7C7C" id="Path_32"/>
    <path d="M83.06,12.48 L84.75,26.89 L86.24,26.73 L84.55,12.31 L90,11.67 L89.84,10.42 L77.44,11.87 L77.56,13.12 z" fill="#6E7C7C" id="Path_33"/>
    <path d="M94.109,26.339 L94.486,10.563 L95.975,10.599 L95.598,26.374 z" fill="#6E7C7C" id="Rectangle_4"/>
    <path d="M105.62,27.84 C109.659,28.609 113.558,25.966 114.34,21.93 C114.391,21.679 114.428,21.425 114.45,21.17 C115.69,17.227 113.498,13.025 109.555,11.785 C105.612,10.545 101.41,12.737 100.17,16.68 C99.991,17.234 99.88,17.809 99.84,18.39 C98.669,22.327 100.905,26.47 104.84,27.65 C105.096,27.728 105.357,27.791 105.62,27.84 z M101.41,18.67 C101.501,15.356 104.261,12.744 107.575,12.835 C110.889,12.926 113.501,15.686 113.41,19 C113.391,19.645 113.269,20.283 113.05,20.89 C112.959,24.204 110.199,26.816 106.885,26.725 C103.571,26.634 100.959,23.874 101.05,20.56 C101.069,19.915 101.191,19.277 101.41,18.67 z" fill="#6E7C7C" id="Path_34"/>
    <path d="M121.61,18.07 L121.61,18.07 L124.51,33.97 L126.04,34.69 L132.48,20.27 L131.16,19.68 L125.68,31.83 L125.68,31.83 L122.74,15.9 L121.21,15.21 L114.77,29.58 L116.14,30.18 z" fill="#6E7C7C" id="Path_35"/>
    <path d="M129.26,36.66 L133.6,34 L139.32,38.35 L137.87,43.42 L139.16,44.42 L143.82,28.32 L142.46,27.27 L128,35.73 z M142.26,28.66 L139.76,36.9 L134.85,33.12 z" fill="#6E7C7C" id="Path_36"/>
    <path d="M147.69,54.17 L148.69,53.36 L142.94,46.64 L153.94,37.22 L152.94,36.05 L141,46.32 z" fill="#6E7C7C" id="Path_37"/>
    <path d="M152.64,62.22 L165.23,57.1 L165.28,57.1 L154.65,67.29 L155.22,68.57 L169.86,68.45 L169.86,68.45 L157.23,73.6 L157.79,75.01 L172.4,69.09 L171.59,67 L156.74,67.16 L167.49,56.9 L166.68,54.9 L152.07,60.82 z" fill="#6E7C7C" id="Path_38"/>
    <path d="M166.12,76 C162.676,76.792 160.256,79.888 160.318,83.421 C160.381,86.955 162.908,89.963 166.378,90.634 C169.848,91.304 173.314,89.455 174.688,86.199 C176.063,82.943 174.971,79.169 172.07,77.15 C170.338,75.944 168.177,75.527 166.12,76 z M173.85,82.48 C174.41,86.48 171.15,88.8 167.77,89.24 C164.573,89.171 161.991,86.607 161.901,83.41 C161.811,80.213 164.244,77.508 167.433,77.259 C170.621,77.011 173.444,79.308 173.85,82.48 z" fill="#6E7C7C" id="Path_39"/>
    <path d="M159.52,99.44 L174.73,106.6 L174.89,104.99 L161.25,98.75 L161.25,98.75 L175.74,94.85 L175.86,93.24 L159.64,97.75 z" fill="#6E7C7C" id="Path_40"/>
    <path d="M155.66,116.9 L156.91,117.27 L159.48,108.13 L165.48,109.82 L163.1,118.27 L164.31,118.63 L166.73,110.18 L172.19,111.7 L169.61,120.76 L170.86,121.08 L173.8,110.61 L158.68,106.32 z" fill="#6E7C7C" id="Path_41"/>
    <path d="M153.89,121.17 L165.64,128 L165.64,128 L151.15,125.83 L150.43,127.04 L159.43,138.54 L159.43,138.54 L147.64,131.69 L146.87,132.98 L160.57,141 L161.7,139.11 L152.48,127.44 L167.16,129.69 L168.24,127.76 L154.65,119.87 z" fill="#6E7C7C" id="Path_42"/>
    <path d="M137.15,143.43 L138.07,144.31 L144.63,137.43 L149.14,141.73 L143.06,148.09 L143.98,148.98 L150.06,142.62 L154.16,146.56 L147.69,153.33 L148.61,154.21 L156.14,146.36 L144.75,135.46 z" fill="#6E7C7C" id="Path_43"/>
    <path d="M133.56,146.2 L140.89,157.35 L140.89,157.35 L125.89,151.23 L124.48,152.11 L133.09,165.31 L134.34,164.5 L127,153.4 L127,153.4 L142,159.52 L143.4,158.59 L134.79,145.44 z" fill="#6E7C7C" id="Path_44"/>
    <path d="M123.58,168.21 L118.32,154.73 L116.91,155.3 L122.18,168.78 L117.07,170.78 L117.56,171.99 L129.19,167.4 L128.7,166.23 z" fill="#6E7C7C" id="Path_45"/>
    <path d="M93.08,168.17 C56.645,168.242 25.429,142.118 19.08,106.24 L19.08,105.72 L17.83,105.93 L17.83,106.44 C25.057,146.862 62.914,174.363 103.59,168.74 L103.59,167.49 C100.105,167.941 96.594,168.168 93.08,168.17 z" fill="#6E7C7C" id="Path_46"/>
    <path d="M249.38,-0 L251.38,-0 L251.38,186 L249.38,186 z" fill="#6E7C7C" id="Rectangle_5"/>
  </g>
</svg>
