<svg xmlns="http://www.w3.org/2000/svg" width="269.961" height="47.667" viewBox="0 0 269.961 47.667"><g transform="translate(1179.088 3499.398)"><g transform="translate(-1175.045 -3464.205)"><path d="M-1159.585-3328.163h2.984l2.934,7.78h.033l2.984-7.78h2.8l-4.9,11.87h-2.1Z" transform="translate(1159.585 3328.465)" fill="#ff6f61"/><path d="M-1097.144-3328.163h2.616v11.87h-2.616Z" transform="translate(1110.087 3328.465)" fill="#ff6f61"/><path d="M-1073.042-3328.163h4.594a8.121,8.121,0,0,1,1.719.176,4.087,4.087,0,0,1,1.425.587,2.931,2.931,0,0,1,.972,1.107,3.75,3.75,0,0,1,.36,1.735,3.484,3.484,0,0,1-.654,2.138,2.943,2.943,0,0,1-1.911,1.115l3.018,5.013h-3.135l-2.481-4.745h-1.291v4.745h-2.616Zm2.616,4.912h1.542q.352,0,.746-.025a2.338,2.338,0,0,0,.713-.151,1.237,1.237,0,0,0,.528-.394,1.2,1.2,0,0,0,.21-.754,1.252,1.252,0,0,0-.185-.721,1.234,1.234,0,0,0-.469-.411,2.09,2.09,0,0,0-.654-.193,5.351,5.351,0,0,0-.721-.05h-1.71Z" transform="translate(1090.981 3328.465)" fill="#ff6f61"/><path d="M-1023.956-3325.849h-3.386v-2.314h9.389v2.314h-3.387v9.557h-2.616Z" transform="translate(1054.755 3328.465)" fill="#ff6f61"/><path d="M-965.65-3320.87a5.727,5.727,0,0,1-.319,1.945,4.284,4.284,0,0,1-.947,1.543,4.34,4.34,0,0,1-1.568,1.022,5.887,5.887,0,0,1-2.163.369,5.936,5.936,0,0,1-2.18-.369,4.338,4.338,0,0,1-1.568-1.022,4.28,4.28,0,0,1-.947-1.543,5.721,5.721,0,0,1-.318-1.945v-7.293h2.615v7.193a2.89,2.89,0,0,0,.176,1.023,2.435,2.435,0,0,0,.495.813,2.238,2.238,0,0,0,.763.537,2.4,2.4,0,0,0,.964.193,2.34,2.34,0,0,0,.956-.193,2.27,2.27,0,0,0,.755-.537,2.445,2.445,0,0,0,.495-.813,2.89,2.89,0,0,0,.176-1.023v-7.193h2.616Z" transform="translate(1013.785 3328.465)" fill="#ff6f61"/><path d="M-916.5-3328.163h2.163l5.164,11.87h-2.951l-1.023-2.515h-4.61l-.989,2.515h-2.884Zm1.006,3.454-1.442,3.688h2.9Z" transform="translate(970.955 3328.465)" fill="#ff6f61"/><path d="M-855.306-3328.163h2.615v9.456h4.845v2.414h-7.461Z" transform="translate(918.38 3328.465)" fill="#ff6f61"/><path d="M-785.948-3326.417a1.863,1.863,0,0,0-.863-.595,3.093,3.093,0,0,0-1.031-.193,2.716,2.716,0,0,0-.587.067,2.268,2.268,0,0,0-.57.21,1.241,1.241,0,0,0-.436.377.954.954,0,0,0-.168.57.945.945,0,0,0,.4.822,3.811,3.811,0,0,0,1.014.486q.612.2,1.316.4a5.441,5.441,0,0,1,1.316.57,3.124,3.124,0,0,1,1.014.989,3.016,3.016,0,0,1,.4,1.66,3.817,3.817,0,0,1-.369,1.727,3.5,3.5,0,0,1-1,1.224,4.235,4.235,0,0,1-1.459.721,6.409,6.409,0,0,1-1.752.235,6.352,6.352,0,0,1-2.146-.352,5.371,5.371,0,0,1-1.844-1.14l1.861-2.045a2.717,2.717,0,0,0,1.014.83,2.9,2.9,0,0,0,1.266.293,2.866,2.866,0,0,0,.646-.075,2.118,2.118,0,0,0,.587-.226,1.265,1.265,0,0,0,.419-.386.962.962,0,0,0,.159-.553,1,1,0,0,0-.411-.847,3.8,3.8,0,0,0-1.031-.528q-.621-.218-1.341-.436a6,6,0,0,1-1.341-.587,3.231,3.231,0,0,1-1.031-.972,2.781,2.781,0,0,1-.411-1.593,3.567,3.567,0,0,1,.377-1.677,3.634,3.634,0,0,1,1.006-1.207,4.367,4.367,0,0,1,1.45-.73,5.944,5.944,0,0,1,1.694-.243,6.662,6.662,0,0,1,1.945.285,4.493,4.493,0,0,1,1.693.956Z" transform="translate(868.755 3329.619)" fill="#ff6f61"/><path d="M-731.984-3320.87a5.731,5.731,0,0,1-.318,1.945,4.282,4.282,0,0,1-.948,1.543,4.34,4.34,0,0,1-1.568,1.022,5.887,5.887,0,0,1-2.163.369,5.938,5.938,0,0,1-2.18-.369,4.337,4.337,0,0,1-1.567-1.022,4.277,4.277,0,0,1-.947-1.543,5.728,5.728,0,0,1-.319-1.945v-7.293h2.616v7.193a2.89,2.89,0,0,0,.176,1.023,2.437,2.437,0,0,0,.495.813,2.238,2.238,0,0,0,.763.537,2.4,2.4,0,0,0,.964.193,2.34,2.34,0,0,0,.956-.193,2.268,2.268,0,0,0,.754-.537,2.439,2.439,0,0,0,.495-.813,2.885,2.885,0,0,0,.176-1.023v-7.193h2.616Z" transform="translate(828.555 3328.465)" fill="#ff6f61"/><path d="M-682.059-3328.163h3.957l2.733,7.746h.034l2.75-7.746h3.94v11.87h-2.616v-9.1h-.033l-3.118,9.1h-2l-3-9.1h-.033v9.1h-2.616Z" transform="translate(781.045 3328.465)" fill="#ff6f61"/><path d="M-605.707-3328.163h3.957l2.733,7.746h.033l2.75-7.746h3.94v11.87h-2.616v-9.1h-.033l-3.118,9.1h-2l-3-9.1h-.033v9.1h-2.616Z" transform="translate(720.52 3328.465)" fill="#ff6f61"/><path d="M-529.517-3328.163h2.616v11.87h-2.616Z" transform="translate(660.123 3328.465)" fill="#ff6f61"/><path d="M-507.284-3325.849h-3.386v-2.314h9.389v2.314h-3.387v9.557h-2.616Z" transform="translate(645.183 3328.465)" fill="#ff6f61"/><path d="M-436.908-3319.727l4.611-4.141a8.62,8.62,0,0,0,.7-.721,1.381,1.381,0,0,0,.352-.939,1.14,1.14,0,0,0-.436-.947,1.6,1.6,0,0,0-1.023-.344,1.4,1.4,0,0,0-1.1.436,1.759,1.759,0,0,0-.444,1.073l-2.515-.185a4.089,4.089,0,0,1,.386-1.6,3.36,3.36,0,0,1,.889-1.132,3.739,3.739,0,0,1,1.3-.679,5.549,5.549,0,0,1,1.618-.226,4.905,4.905,0,0,1,1.509.226,3.515,3.515,0,0,1,1.224.671,3.054,3.054,0,0,1,.813,1.115,3.867,3.867,0,0,1,.294,1.559,4.189,4.189,0,0,1-.118,1.031,3.49,3.49,0,0,1-.327.838,3.819,3.819,0,0,1-.495.7,8.039,8.039,0,0,1-.62.62l-3.6,3.1h5.264v2.213h-8.282Z" transform="translate(586.711 3329.234)" fill="#ff6f61"/><path d="M-390.32-3323a12.29,12.29,0,0,1,.193-2.146,6.284,6.284,0,0,1,.687-1.978,4.1,4.1,0,0,1,1.35-1.45,3.9,3.9,0,0,1,2.18-.562,3.9,3.9,0,0,1,2.18.562,4.1,4.1,0,0,1,1.35,1.45,6.306,6.306,0,0,1,.687,1.978A12.326,12.326,0,0,1-381.5-3323a12.322,12.322,0,0,1-.193,2.146,6.3,6.3,0,0,1-.687,1.979,4.094,4.094,0,0,1-1.35,1.45,3.9,3.9,0,0,1-2.18.562,3.9,3.9,0,0,1-2.18-.562,4.09,4.09,0,0,1-1.35-1.45,6.279,6.279,0,0,1-.687-1.979A12.286,12.286,0,0,1-390.32-3323Zm2.515,0q0,.47.042,1.124a5.469,5.469,0,0,0,.226,1.257,2.666,2.666,0,0,0,.562,1.023,1.359,1.359,0,0,0,1.065.419,1.364,1.364,0,0,0,1.056-.419,2.615,2.615,0,0,0,.57-1.023,5.5,5.5,0,0,0,.226-1.257q.042-.654.042-1.124t-.042-1.123a5.508,5.508,0,0,0-.226-1.258,2.62,2.62,0,0,0-.57-1.023,1.364,1.364,0,0,0-1.056-.419,1.359,1.359,0,0,0-1.065.419,2.671,2.671,0,0,0-.562,1.023,5.476,5.476,0,0,0-.226,1.258Q-387.805-3323.466-387.805-3323Z" transform="translate(549.78 3329.234)" fill="#ff6f61"/><path d="M-341.144-3319.727l4.611-4.141a8.624,8.624,0,0,0,.7-.721,1.381,1.381,0,0,0,.352-.939,1.14,1.14,0,0,0-.436-.947,1.6,1.6,0,0,0-1.023-.344,1.405,1.405,0,0,0-1.1.436,1.758,1.758,0,0,0-.444,1.073l-2.515-.185a4.09,4.09,0,0,1,.386-1.6,3.365,3.365,0,0,1,.889-1.132,3.741,3.741,0,0,1,1.3-.679,5.548,5.548,0,0,1,1.618-.226,4.9,4.9,0,0,1,1.509.226,3.515,3.515,0,0,1,1.224.671,3.051,3.051,0,0,1,.813,1.115,3.864,3.864,0,0,1,.294,1.559,4.188,4.188,0,0,1-.117,1.031,3.5,3.5,0,0,1-.327.838,3.813,3.813,0,0,1-.495.7,8.009,8.009,0,0,1-.62.62l-3.6,3.1h5.265v2.213h-8.282Z" transform="translate(510.798 3329.234)" fill="#ff6f61"/><path d="M-294.556-3323a12.285,12.285,0,0,1,.193-2.146,6.287,6.287,0,0,1,.687-1.978,4.1,4.1,0,0,1,1.35-1.45,3.9,3.9,0,0,1,2.18-.562,3.9,3.9,0,0,1,2.179.562,4.1,4.1,0,0,1,1.35,1.45,6.3,6.3,0,0,1,.688,1.978,12.343,12.343,0,0,1,.193,2.146,12.339,12.339,0,0,1-.193,2.146,6.293,6.293,0,0,1-.688,1.979,4.091,4.091,0,0,1-1.35,1.45,3.9,3.9,0,0,1-2.179.562,3.9,3.9,0,0,1-2.18-.562,4.092,4.092,0,0,1-1.35-1.45,6.282,6.282,0,0,1-.687-1.979A12.281,12.281,0,0,1-294.556-3323Zm2.515,0q0,.47.042,1.124a5.483,5.483,0,0,0,.226,1.257,2.667,2.667,0,0,0,.562,1.023,1.358,1.358,0,0,0,1.065.419,1.364,1.364,0,0,0,1.056-.419,2.614,2.614,0,0,0,.57-1.023,5.5,5.5,0,0,0,.226-1.257q.042-.654.042-1.124t-.042-1.123a5.512,5.512,0,0,0-.226-1.258,2.62,2.62,0,0,0-.57-1.023,1.365,1.365,0,0,0-1.056-.419,1.359,1.359,0,0,0-1.065.419,2.672,2.672,0,0,0-.562,1.023,5.49,5.49,0,0,0-.226,1.258Q-292.041-3323.466-292.041-3323Z" transform="translate(473.867 3329.234)" fill="#ff6f61"/></g><g transform="translate(-1179.088 -3499.398)"><path d="M-1158.617-3491.145a6.263,6.263,0,0,0-2.309-1.757,7.688,7.688,0,0,0-3.167-.613,7.971,7.971,0,0,0-3.33.694,7.979,7.979,0,0,0-2.656,1.941,9.034,9.034,0,0,0-1.757,2.962,10.651,10.651,0,0,0-.634,3.718,10.6,10.6,0,0,0,.634,3.739,9.284,9.284,0,0,0,1.736,2.942,7.857,7.857,0,0,0,2.595,1.941,7.5,7.5,0,0,0,3.208.694,7.186,7.186,0,0,0,3.473-.817,6.915,6.915,0,0,0,2.492-2.288l5.312,3.964a11.059,11.059,0,0,1-4.658,3.8,14.41,14.41,0,0,1-5.8,1.226,17.823,17.823,0,0,1-6.251-1.063,14.3,14.3,0,0,1-4.944-3.044,13.8,13.8,0,0,1-3.249-4.8,16.339,16.339,0,0,1-1.164-6.292,16.34,16.34,0,0,1,1.164-6.292,13.8,13.8,0,0,1,3.249-4.8,14.318,14.318,0,0,1,4.944-3.044,17.823,17.823,0,0,1,6.251-1.062,15.355,15.355,0,0,1,2.554.225,13.818,13.818,0,0,1,2.615.715,11.684,11.684,0,0,1,2.472,1.307,9.866,9.866,0,0,1,2.125,2Z" transform="translate(1179.088 3499.398)"/><path d="M-1035.391-3495.851h6.374v23.045h11.809v5.884h-18.183Z" transform="translate(1065.178 3496.586)"/><path d="M-931.119-3495.851h6.374v28.929h-6.374Z" transform="translate(982.52 3496.586)"/><path d="M-872.38-3495.851h9.643l6.66,18.877H-856l6.7-18.877h9.6v28.929h-6.374v-22.187h-.082l-7.6,22.187h-4.862l-7.314-22.187h-.082v22.187h-6.374Z" transform="translate(935.957 3496.586)"/><path d="M-688.192-3495.851h5.271l12.585,28.929h-7.191l-2.492-6.129h-11.237l-2.411,6.129h-7.028Zm2.452,8.417-3.514,8.99h7.069Z" transform="translate(799.86 3496.586)"/><path d="M-562.937-3490.212h-8.254v-5.639h22.882v5.639h-8.254v23.29h-6.374Z" transform="translate(697.201 3496.586)"/><path d="M-444.053-3495.851H-424.4v5.884h-13.279v5.394h12.544v5.884h-12.544v5.884h14.015v5.884h-20.389Z" transform="translate(596.417 3496.586)"/><path d="M-324.208-3450.7a3.828,3.828,0,0,1,.286-1.471,3.64,3.64,0,0,1,.8-1.205,3.649,3.649,0,0,1,1.205-.8,3.838,3.838,0,0,1,1.471-.286,3.842,3.842,0,0,1,1.471.286,3.662,3.662,0,0,1,1.205.8,3.659,3.659,0,0,1,.8,1.205,3.837,3.837,0,0,1,.286,1.471,3.832,3.832,0,0,1-.286,1.471,3.653,3.653,0,0,1-.8,1.206,3.645,3.645,0,0,1-1.205.8,3.824,3.824,0,0,1-1.471.286,3.82,3.82,0,0,1-1.471-.286,3.632,3.632,0,0,1-1.205-.8,3.633,3.633,0,0,1-.8-1.206A3.823,3.823,0,0,1-324.208-3450.7Zm0,13.075a3.829,3.829,0,0,1,.286-1.471,3.643,3.643,0,0,1,.8-1.205,3.647,3.647,0,0,1,1.205-.8,3.829,3.829,0,0,1,1.471-.286,3.833,3.833,0,0,1,1.471.286,3.66,3.66,0,0,1,1.205.8,3.663,3.663,0,0,1,.8,1.205,3.838,3.838,0,0,1,.286,1.471,3.831,3.831,0,0,1-.286,1.471,3.645,3.645,0,0,1-.8,1.205,3.642,3.642,0,0,1-1.205.8,3.837,3.837,0,0,1-1.471.286,3.834,3.834,0,0,1-1.471-.286,3.629,3.629,0,0,1-1.205-.8,3.626,3.626,0,0,1-.8-1.205A3.822,3.822,0,0,1-324.208-3437.622Z" transform="translate(501.415 3463.772)"/></g><g transform="translate(-985.624 -3496.588)"><path d="M-245.78-3485.841h10.855a19.12,19.12,0,0,1,4.06.417,9.63,9.63,0,0,1,3.367,1.386,6.919,6.919,0,0,1,2.3,2.615,8.857,8.857,0,0,1,.852,4.1,8.232,8.232,0,0,1-1.545,5.051,6.953,6.953,0,0,1-4.516,2.634l7.131,11.845h-7.408L-236.55-3469h-3.05v11.211h-6.18Zm6.18,11.607h3.645q.832,0,1.763-.06a5.517,5.517,0,0,0,1.684-.356,2.914,2.914,0,0,0,1.248-.931,2.835,2.835,0,0,0,.5-1.783,2.963,2.963,0,0,0-.436-1.7,2.916,2.916,0,0,0-1.109-.971,4.961,4.961,0,0,0-1.545-.456,12.628,12.628,0,0,0-1.7-.119H-239.6Z" transform="translate(245.78 3485.841)" fill="#e50354"/><path d="M-120.794-3485.841h19.055v5.7h-12.875v5.229h12.162v5.7h-12.162v5.7h13.588v5.7h-19.768Z" transform="translate(146.702 3485.841)" fill="#e50354"/><path d="M-1.54-3485.841H7.73a26.476,26.476,0,0,1,6.4.753,14.641,14.641,0,0,1,5.289,2.437A11.942,11.942,0,0,1,23-3478.274a14.683,14.683,0,0,1,1.327,6.537,13.342,13.342,0,0,1-1.287,6,12.9,12.9,0,0,1-3.466,4.357,15.317,15.317,0,0,1-5.031,2.674,19.527,19.527,0,0,1-5.982.911H-1.54ZM4.64-3463.5H7.849a17.244,17.244,0,0,0,3.981-.436,8.5,8.5,0,0,0,3.189-1.446,6.935,6.935,0,0,0,2.12-2.654,9.41,9.41,0,0,0,.773-4.021,7.842,7.842,0,0,0-.773-3.585,7.173,7.173,0,0,0-2.08-2.516,9.127,9.127,0,0,0-3.07-1.485,13.638,13.638,0,0,0-3.7-.5H4.64Z" transform="translate(52.168 3485.841)" fill="#e50354"/></g></g></svg>