<svg id="Layer_1" data-name="Layer 1" xmlns="http://www.w3.org/2000/svg" viewBox="0 0 608.71 112.72"><path d="M0,1.76H12.41c6.39,0,10.69,3.56,10.69,9.49,0,6.39-4.63,9.72-10.92,9.72H4.77v13H0ZM4.77,17h7.08c4.17,0,6.39-2,6.39-5.65S15.6,5.74,12,5.74H4.77Z" fill="#fff"/><path d="M47.87,22.08c0,6.9-3.93,12.41-11.2,12.41-6.85,0-11-5.23-11-12.31S29.77,9.81,37,9.81C43.57,9.81,47.87,14.72,47.87,22.08Zm-17.5.05c0,5.05,2.46,8.61,6.49,8.61s6.38-3.38,6.38-8.56-2.31-8.62-6.48-8.62S30.37,16.85,30.37,22.13Z" fill="#fff"/><path d="M55.28,10.37c2.78,10.74,4.36,16.85,4.77,19.4h.05c.46-2.27,1.9-7.73,5.19-19.4h4.39c3.48,13,4.49,16.76,4.91,19h0c.55-2.5,1.43-6,5-19h4.58L77,33.94H72c-2.22-8.66-4.25-16-4.76-18.66h0c-.42,2.64-2.36,9.49-4.91,18.66h-5L50.47,10.37Z" fill="#fff"/><path d="M91.07,23c.05,4.44,2.27,7.73,6.12,7.73,3.51,0,4.67-1.76,5.37-3.43h4.58c-.93,3-3.43,7.18-10.09,7.18-7.46,0-10.56-6-10.56-12.08,0-7.09,3.57-12.6,10.83-12.6,7.69,0,10.24,6.07,10.24,11.25a12.11,12.11,0,0,1-.1,2Zm11.9-3.1c0-3.66-1.85-6.58-5.69-6.58s-5.7,2.73-6.07,6.58Z" fill="#fff"/><path d="M112.6,16.76c0-3.1,0-5,0-6.39H117c.09.65.14,2.59.14,4.68A8.16,8.16,0,0,1,125,9.81v4.5c-4.81.09-7.87,2.36-7.87,8.42V33.94H112.6Z" fill="#fff"/><path d="M131.86,23c0,4.44,2.27,7.73,6.12,7.73,3.51,0,4.67-1.76,5.37-3.43h4.58c-.93,3-3.43,7.18-10.09,7.18-7.46,0-10.56-6-10.56-12.08,0-7.09,3.57-12.6,10.84-12.6,7.68,0,10.23,6.07,10.23,11.25a12.11,12.11,0,0,1-.1,2Zm11.9-3.1c0-3.66-1.85-6.58-5.69-6.58s-5.7,2.73-6.07,6.58Z" fill="#fff"/><path d="M173.72,0V27.31c0,2.18,0,4.36,0,6.63h-4.39a30.13,30.13,0,0,1-.19-3.2c-1.16,2.36-3.47,3.75-7.27,3.75-6.06,0-9.81-4.91-9.81-12.08s4-12.6,10.6-12.6c4,0,5.83,1.58,6.48,2.88V0ZM162.93,30.69c5.32,0,6.39-4,6.39-8.84s-1-8.24-6.06-8.24c-4,0-6.44,3.15-6.44,8.66S159.37,30.69,162.93,30.69Z" fill="#fff"/><path d="M192.06,0h4.53V13.56c1.07-1.89,3.2-3.75,7.36-3.75,6,0,9.63,5,9.63,11.86,0,7.08-3.56,12.82-10.23,12.82-3.75,0-5.6-1.34-6.8-3.52a23.76,23.76,0,0,1-.19,3H192c.05-2.64.05-5.28.05-7.87ZM202.8,13.61c-4.73,0-6.44,3.2-6.44,8.61,0,4.72,1.48,8.47,6.3,8.47,4,0,6.29-3.42,6.29-8.93C209,16.9,206.78,13.61,202.8,13.61Z" fill="#fff"/><path d="M220.85,10.37C224.42,21,226.5,27.5,227.1,29.86h.05c.69-2.64,2.32-8,6-19.49h4.59L229.33,35c-2.36,6.86-4.17,8.66-9.17,8.66-.69,0-1.67,0-2.64-.14V39.58a12.15,12.15,0,0,0,1.9.14c2.87,0,4-1.25,5.32-4.9L216,10.37Z" fill="#fff"/><path d="M18.82,73.46H2L7.3,61.89h45L47,73.46H30.69L12.55,112.72H.53Z" fill="#fff"/><path d="M57.06,61.78H69.5L64,74.21H74.65c3.43,0,5.87,1.28,7.31,3.92s1.4,5.65-.09,9.12l-11.5,25.4H57.89l11.54-25.4a2.08,2.08,0,0,0-.05-1.7,1.53,1.53,0,0,0-1.46-.75H59.1L46.55,112.65H34.12Z" fill="#fff"/><path d="M92.08,74.14h12.43L87,112.65H74.4Zm5.75-12.36h12.4l-4.26,9H93.57Z" fill="#fff"/><path d="M127.9,112.65H115.54l11.75-25.33a2.13,2.13,0,0,0-.05-1.69,1.44,1.44,0,0,0-1.46-.75h-9.19L103.9,112.65H91.54L109,74.36h15.11v0h8.48c3.35,0,5.76,1.29,7.16,3.92s1.4,5.62-.13,9.08Z" fill="#fff"/><path d="M145,112.65H132.65l23.4-50.87h12.36l-12,25.28,14.19-12.85h13.49L163.21,93.13l3.35,19.52H155.33l-2.87-17.34Z" fill="#fff"/><path d="M205.82,70.29c3.19-5.61,7.29-8.4,12.26-8.4h37l-23.13,50.83h-12l6.41-14,11.46-25.17H217.34a1.66,1.66,0,0,0-.9.34,2.25,2.25,0,0,0-.79.91l-5.59,12.28h18.05l-5.35,11.68h-18l-6.36,14H186.44Z" fill="#fff"/><path d="M275.31,112.65l-21.11-.15c-3.6-.23-6.19-1-7.73-2.45a9.63,9.63,0,0,1-3-5.73q-1.45-7.8,5.13-17.75A28.87,28.87,0,0,1,270.82,74.4h21.85l-4.75,10.48H269.49a13.92,13.92,0,0,0-7.84,2.52,14.41,14.41,0,0,0-4.81,5.43q-4.41,8.76,3.31,8.89h20.12Z" fill="#fff"/><path d="M284.7,108.73c-1.4-2.64-1.36-5.66.09-9.12l17.35-37.83h12.21s-.93,2-2.84,6.06-2.9,6.18-3,6.45h9L312.41,85.4h-9s-.3.68-.93,2-1.29,2.9-2.12,4.67-1.5,3.35-2.19,4.82-1.07,2.34-1.21,2.68a2,2,0,0,0,.09,1.69,1.42,1.42,0,0,0,1.42.76h6.33L300,112.65h-8.22C288.46,112.65,286.07,111.33,284.7,108.73Z" fill="#fff"/><path d="M321.29,74.14h12.43l-17.53,38.51H303.61ZM327,61.78h12.4l-4.26,9H322.79Z" fill="#fff"/><path d="M337.48,101.68H345l18-27.17h13.15L356,105.71a18.9,18.9,0,0,1-5.39,4.64,17.79,17.79,0,0,1-4.66,1.88c-1.3.27-2,.42-2.09.42H320.49L338,74.32h12.13Z" fill="#fff"/><path d="M401.13,112.65l-22.66-.15c-3.6-.23-6.19-1-7.73-2.45a9.63,9.63,0,0,1-3-5.73q-1.45-7.8,5.13-17.75A28.87,28.87,0,0,1,395.09,74.4h12.47c3.79.26,6.08,1.36,6.9,3.35a8.36,8.36,0,0,1-.57,6.75l-.15.38-6.27,13.71H385.08c-1.21-.15-1.65-1.09-1.3-2.75a11.24,11.24,0,0,1,2.61-5A7.76,7.76,0,0,1,391.7,88h8.4l1.46-3.16h-7.8a13.92,13.92,0,0,0-7.84,2.52,14.41,14.41,0,0,0-4.81,5.43c-2.66,5.76-1.56,8.74,3.31,8.89h21.67Z" fill="#fff"/><path d="M444.15,70.29a14.35,14.35,0,0,1,5.29-6.1,13.33,13.33,0,0,1,7.46-2.3h3.58L443.56,99.31a1.34,1.34,0,0,0,.08,1.24,1.17,1.17,0,0,0,1.05.53l29.8,0c-.19.37-.41.86-.69,1.47-.5,1.13-1.08,2.41-1.72,3.84s-1.26,2.75-1.81,3.92-.92,2-1.07,2.37H439c-3.62,0-6.24-1.32-7.9-4s-1.74-5.65-.26-9.08Z" fill="#fff"/><path d="M508.89,112.65l-21.1-.15c-3.61-.23-6.19-1-7.74-2.45a9.68,9.68,0,0,1-3-5.73q-1.44-7.8,5.13-17.75A28.89,28.89,0,0,1,504.4,74.4h21.85Zm-7.25-10.93,5.78-12.81h0l1.8-4h-5.84a13.85,13.85,0,0,0-8.11,2.52,14.41,14.41,0,0,0-4.81,5.43q-4.41,8.76,3.31,8.89Z" fill="#fff"/><path d="M513.45,112.65l4.75-10.48h18.43a14.66,14.66,0,0,0,12.65-8c2.94-5.84,1.84-8.82-3.31-8.89h-7.68l-6.45,13.3h-12l16.95-36.85h12l-5.6,12.73,8.73,0c3.61.23,6.18,1.06,7.73,2.45a9.77,9.77,0,0,1,3,5.73q1.45,7.8-5.13,17.74a28.76,28.76,0,0,1-22.25,12.18Z" fill="#fff"/><path d="M556.78,112.65l4.78-10.4h19.63c2,.18,3.42-.49,4.18-2,.38-1.62-.67-2.34-3.15-2.19h-5.54c-3.79-.07-6.46-1.32-8-3.69s-1.46-5.69.23-9.91c3.73-7.27,10-10.67,18.88-10.14h20.88l-4.58,10H583.82a2.73,2.73,0,0,0-3,1.66c-.31.94-.1,1.54.59,1.84a7,7,0,0,0,3.06.34l5-.15c4.6.15,7.41,1.47,8.39,4s.65,5.76-.9,9.91q-4.7,11.13-17.59,10.74Z" fill="#fff"/></svg>