<?xml version="1.0" encoding="UTF-8"?>
<!DOCTYPE svg PUBLIC "-//W3C//DTD SVG 1.1//EN" "http://www.w3.org/Graphics/SVG/1.1/DTD/svg11.dtd">
<svg version="1.1" xmlns="http://www.w3.org/2000/svg" xmlns:xlink="http://www.w3.org/1999/xlink" x="0" y="0" width="186" height="186" viewBox="0, 0, 186, 186">
  <g id="Layer_1">
    <path d="M186,93 C186,144.362 144.362,186 93,186 C41.638,186 -0,144.362 -0,93 C-0,41.638 41.638,0 93,0 C144.362,0 186,41.638 186,93 z" fill="#FFFFFF" id="Ellipse_1"/>
    <path d="M49.913,99.48 L64.651,99.48 L64.651,114.29 L77.304,114.29 L77.304,99.48 L92.002,99.48 L92.002,86.8 L77.304,86.8 L77.304,72 L64.651,72 L64.651,86.8 L49.913,86.8 z" fill="#EF3340" id="Path_25"/>
    <path d="M135.968,109.49 C128.588,112.427 120.159,110.108 115.31,103.807 C110.462,97.505 110.367,88.746 115.079,82.34 C119.79,75.934 128.167,73.433 135.608,76.21 C131.857,73.207 127.198,71.574 122.397,71.58 C112.971,71.561 104.647,77.734 101.91,86.773 C99.173,95.811 102.67,105.579 110.516,110.813 C118.362,116.047 128.704,115.509 135.968,109.49 z" fill="#EF3340" id="Path_26"/>
    <path d="M10.706,92.757 L10.723,91.267 L26.468,91.441 L26.451,92.931 z" fill="#6E7C7C" id="Rectangle_3"/>
    <path d="M26.663,85.88 L13.561,83.5 L13.561,83.5 L28.259,76.82 L28.579,75.17 L13.092,72.36 L12.852,73.8 L25.954,76.18 L25.954,76.18 L11.176,82.9 L10.887,84.55 L26.353,87.33 z" fill="#6E7C7C" id="Path_27"/>
    <path d="M17.632,63.3 L30.983,68.73 L31.552,67.37 L18.161,61.93 L20.217,56.82 L19.009,56.34 L14.379,67.93 L15.547,68.41 z" fill="#6E7C7C" id="Path_28"/>
    <path d="M40.313,51.83 L39.236,51.15 L34.097,59.15 L28.908,55.76 L33.648,48.4 L32.57,47.68 L27.83,55 L23.04,52 L28.139,44.07 L27.052,43.38 L21.155,52.52 L34.366,61.09 z" fill="#6E7C7C" id="Path_29"/>
    <path d="M43.606,48.09 L38.747,43.09 L42.738,39.09 C44.734,36.99 46.51,38.64 48.156,40.09 C48.713,40.718 49.392,41.226 50.152,41.58 L51.32,40.41 C50.322,40.41 48.785,38.76 47.977,38.04 C46.834,36.816 44.998,36.55 43.556,37.4 L43.556,37.4 C44.787,35.556 44.331,33.065 42.527,31.779 C40.722,30.494 38.225,30.879 36.891,32.65 L31.562,37.84 L42.539,49.15 z M33.568,37.71 L37.559,33.71 C38.598,32.442 40.461,32.246 41.74,33.27 C41.901,33.401 42.048,33.549 42.179,33.71 C43.35,34.93 43.319,36.868 42.109,38.05 L41.9,38.23 L37.908,42.23 z" fill="#6E7C7C" id="Path_30"/>
    <path d="M55.251,37.87 L48.546,26.35 L48.546,26.35 L63.164,33.23 L64.611,32.38 L56.628,18.79 L55.341,19.56 L62.116,31 L62.116,31 L47.468,24.19 L46.021,25 L54.004,38.6 z" fill="#6E7C7C" id="Path_31"/>
    <path d="M68.463,25.67 L75.328,23.59 L78.581,27.59 L80.108,27.1 L69.63,14 L68.054,14.45 L66.577,31.39 L68.104,30.91 z M69.071,15.67 L74.34,22.51 L68.423,24.3 z" fill="#6E7C7C" id="Path_32"/>
    <path d="M82.882,12.48 L84.568,26.89 L86.015,26.73 L84.369,12.31 L89.827,11.67 L89.667,10.42 L77.294,11.87 L77.414,13.12 z" fill="#6E7C7C" id="Path_33"/>
    <path d="M93.912,26.339 L94.288,10.563 L95.775,10.599 L95.398,26.374 z" fill="#6E7C7C" id="Rectangle_4"/>
    <path d="M105.393,27.84 C109.423,28.609 113.315,25.966 114.095,21.93 C114.146,21.679 114.183,21.425 114.204,21.17 C115.166,18.58 114.624,15.67 112.796,13.602 C110.967,11.534 108.15,10.644 105.469,11.288 C102.787,11.933 100.679,14.006 99.985,16.68 C99.806,17.234 99.696,17.809 99.656,18.39 C98.487,22.327 100.719,26.47 104.645,27.65 C104.891,27.728 105.14,27.791 105.393,27.84 z M101.192,18.67 C101.283,15.356 104.038,12.744 107.344,12.835 C110.651,12.926 113.258,15.686 113.167,19 C113.148,19.645 113.026,20.283 112.807,20.89 C112.716,24.204 109.962,26.816 106.656,26.725 C103.349,26.634 100.742,23.874 100.833,20.56 C100.852,19.915 100.973,19.277 101.192,18.67 z" fill="#6E7C7C" id="Path_34"/>
    <path d="M121.349,18.07 L121.349,18.07 L124.243,33.97 L125.77,34.69 L132.186,20.27 L130.918,19.72 L125.45,31.87 L125.45,31.87 L122.517,15.94 L120.94,15.25 L114.514,29.62 L115.881,30.22 z" fill="#6E7C7C" id="Path_35"/>
    <path d="M128.983,36.66 L133.313,34 L139.021,38.35 L137.574,43.42 L138.861,44.42 L143.511,28.32 L142.154,27.27 L127.695,35.8 z M141.955,28.66 L139.46,36.9 L134.561,33.12 z" fill="#6E7C7C" id="Path_36"/>
    <path d="M147.373,54.17 L148.371,53.36 L142.633,46.64 L153.61,37.22 L152.612,36.05 L140.667,46.32 z" fill="#6E7C7C" id="Path_37"/>
    <path d="M152.312,62.22 L164.846,57.1 L164.846,57.1 L154.318,67.29 L154.877,68.57 L169.496,68.45 L169.496,68.45 L156.863,73.6 L157.421,75.01 L172,69.09 L171.222,67 L156.404,67.16 L167.131,56.9 L166.322,54.9 L151.744,60.82 z" fill="#6E7C7C" id="Path_38"/>
    <path d="M165.764,76 C162.336,76.809 159.938,79.909 160.012,83.438 C160.086,86.966 162.611,89.963 166.07,90.627 C169.528,91.291 172.98,89.443 174.35,86.192 C175.721,82.941 174.637,79.172 171.751,77.15 C170.009,75.93 167.832,75.512 165.764,76 z M173.477,82.48 C174.036,86.48 170.783,88.8 167.41,89.24 C164.219,89.172 161.643,86.607 161.553,83.41 C161.464,80.213 163.892,77.508 167.074,77.259 C170.255,77.011 173.072,79.308 173.477,82.48 z" fill="#6E7C7C" id="Path_39"/>
    <path d="M159.178,99.44 L174.355,106.6 L174.515,104.99 L160.904,98.75 L160.904,98.75 L175.363,94.85 L175.483,93.24 L159.297,97.75 z" fill="#6E7C7C" id="Path_40"/>
    <path d="M155.326,116.9 L156.573,117.27 L159.138,108.13 L165.125,109.82 L162.75,118.27 L163.957,118.63 L166.372,110.18 L171.83,111.7 L169.256,120.76 L170.503,121.08 L173.437,110.61 L158.349,106.32 z" fill="#6E7C7C" id="Path_41"/>
    <path d="M153.56,121.17 L165.285,128 L165.285,128 L150.876,125.88 L150.157,127.09 L159.188,138.59 L159.188,138.59 L147.423,131.74 L146.655,133.03 L160.225,141 L161.353,139.11 L152.153,127.44 L166.841,129.7 L167.919,127.77 L154.358,119.88 z" fill="#6E7C7C" id="Path_42"/>
    <path d="M136.846,143.43 L137.774,144.31 L144.32,137.43 L148.82,141.73 L142.753,148.09 L143.671,148.98 L149.738,142.62 L153.829,146.56 L147.373,153.33 L148.291,154.21 L155.805,146.36 L144.439,135.46 z" fill="#6E7C7C" id="Path_43"/>
    <path d="M133.273,146.2 L140.588,157.35 L140.588,157.35 L125.62,151.23 L124.213,152.11 L132.804,165.31 L134.052,164.5 L126.777,153.36 L126.777,153.36 L141.745,159.48 L143.152,158.55 L134.561,145.4 z" fill="#6E7C7C" id="Path_44"/>
    <path d="M123.315,168.21 L118.066,154.73 L116.659,155.3 L121.938,168.78 L116.839,170.78 L117.328,171.99 L128.923,167.37 L128.434,166.2 z" fill="#6E7C7C" id="Path_45"/>
    <path d="M92.88,168.17 C56.524,168.242 25.375,142.118 19.039,106.24 L19.039,105.72 L17.792,105.93 L17.792,106.44 C24.998,146.861 62.771,174.363 103.358,168.74 L103.358,167.49 C99.883,167.941 96.384,168.169 92.88,168.17 z" fill="#6E7C7C" id="Path_46"/>
  </g>
</svg>
