<svg id="Layer_1" data-name="Layer 1" xmlns="http://www.w3.org/2000/svg" viewBox="0 0 240.09 226.03"><defs><style>.cls-1{fill:#f5333f;}.cls-2{fill:#333132;}</style></defs><polygon class="cls-1" points="41.05 42.22 41.05 1.16 76.23 1.16 76.23 42.22 76.23 42.24 117.29 42.24 117.29 77.42 76.23 77.42 76.23 77.41 76.23 118.46 41.05 118.46 41.05 77.41 41.05 77.43 0 77.43 0 42.24 41.05 42.24 41.05 42.22"/><path class="cls-1" d="M171.72,59.19A49.53,49.53,0,0,1,238.53,12.8a59.4,59.4,0,1,0,1,92.4,49.51,49.51,0,0,1-67.82-46"/><path class="cls-2" d="M210.89,226a41.72,41.72,0,0,0,16.67-3.23,32.75,32.75,0,0,0,12.53-9.4l-10.51-9.69a22.48,22.48,0,0,1-17.78,8.38,23.59,23.59,0,0,1-11.72-2.88,20.49,20.49,0,0,1-8-8,25.31,25.31,0,0,1,0-23.45,20.49,20.49,0,0,1,8-8,23.59,23.59,0,0,1,11.72-2.88,22.57,22.57,0,0,1,17.78,8.29l10.51-9.7a33.29,33.29,0,0,0-12.48-9.3A41.35,41.35,0,0,0,211,152.88a40.85,40.85,0,0,0-19.65,4.7,35.1,35.1,0,0,0-13.74,13,38,38,0,0,0,0,37.69,35.1,35.1,0,0,0,13.74,13,40.58,40.58,0,0,0,19.56,4.7m-65.38-46.27c0,3.91-1.29,6.93-3.85,9.09s-6.3,3.23-11.21,3.23H117.11V167.42h13.34q7.38,0,11.21,3.18t3.85,9.16m17.89,45.06-15.87-22.74a23,23,0,0,0,14.54-22.33,24.53,24.53,0,0,0-3.73-13.65,24.26,24.26,0,0,0-10.66-8.89,39.32,39.32,0,0,0-16.33-3.13H100.73v70.74H117.1V205.11h15.06l13.64,19.71Zm-76.8-57.6V154.09H33.14v70.74H49.51V199.06H82.26V185.92H49.51V167.23H86.6ZM0,224.82H16.37V154.08H0Z"/></svg>