<svg id="Layer_1" data-name="Layer 1" xmlns="http://www.w3.org/2000/svg" viewBox="0 0 985.93 240.25"><defs><style>.cls-1{fill:#ef3340;}.cls-2{fill:none;stroke:#000;stroke-miterlimit:10;stroke-width:3.46px;}</style></defs><path d="M370.23,80.64c1.87,7.13,7.23,11.3,16.13,11.3,9.52,0,13.22-4,13.22-9.86,0-6-3.12-8.79-15.62-11.83-20.22-4.93-24.24-11.13-24.24-20.54,0-9.83,7.16-19.65,25.45-19.65s25.6,10.5,26.43,20H398.82c-.91-4.08-4-10-14.23-10-9,0-11.7,4.28-11.7,8.52,0,4.81,2.69,7.18,15,10.12,21.28,5,25.27,12.17,25.27,22.38,0,11.93-9.39,21-27.28,21-18.43,0-27.14-9.22-28.85-21.51Z"/><path d="M488.3,66c0,20-11.58,36.18-32.78,36.18-20,0-32.07-15.25-32.07-35.92,0-20.51,11.91-36.17,32.87-36.17C475.66,30.06,488.3,44.37,488.3,66Zm-51.23.14c0,14.74,7.18,25.14,18.93,25.14,12,0,18.68-10,18.68-25.08C474.68,50.89,468,41,455.73,41S437.07,50.62,437.07,66.11Z"/><path d="M503.25,100.53V1.35h13.27v99.18Z"/><path d="M539.79,100.53V42.28h-10.9V31.68h10.9V23.86c0-13,5.27-23.86,20.42-23.86a32.21,32.21,0,0,1,7.85.88v11a28,28,0,0,0-5.64-.57c-6.81,0-9.36,3.84-9.36,13.39v6.93h13.45v10.6H553.06v58.25Z"/><path d="M585,68.64c.07,13,6.59,22.61,17.85,22.61,10.31,0,13.6-5.14,15.72-10h13.35c-2.65,8.74-10.06,20.91-29.46,20.91-21.85,0-30.88-17.47-30.88-35.26,0-20.69,10.47-36.83,31.62-36.83,22.49,0,29.92,17.68,29.92,32.85a52.42,52.42,0,0,1-.2,5.73Zm34.69-9c-.13-10.69-5.35-19.33-16.63-19.33-11.53,0-16.54,8-17.66,19.33Z"/><path d="M648,50.38c0-9.08-.08-14.63-.14-18.7h13c.2,1.86.4,7.54.4,13.67,3.49-9,11.53-15,23-15.29V43.14c-14.06.27-23,6.93-23,24.63v32.76H648Z"/><path d="M695.84,1.35h13.27V16.62H695.84Zm0,30.33h13.27v68.85H695.84Z"/><path d="M728.9,49c0-6,0-12.06-.14-17.35h12.9c.33,2,.53,8.74.51,10.82,2.67-5.6,8.28-12.44,21.35-12.44s23,8.17,23,26.29v44.18H773.21V58c0-9.88-3.78-16.62-13.88-16.62-12,0-17.16,8.84-17.16,22.35v36.82H728.9Z"/><path d="M866.18,66c0,20-11.58,36.18-32.77,36.18-20,0-32.08-15.25-32.08-35.92,0-20.51,11.91-36.17,32.88-36.17C853.55,30.06,866.18,44.37,866.18,66ZM815,66.11c0,14.74,7.18,25.14,18.94,25.14,12,0,18.67-10,18.67-25.08,0-15.28-6.7-25.21-18.94-25.21S815,50.62,815,66.11Z"/><path d="M505.75,196.42A114.45,114.45,0,0,0,506.7,212H494a35.68,35.68,0,0,1-1.09-8.57c-2.43,4.45-7.76,10.19-20.89,10.19-16.3,0-23.25-10.64-23.25-21.15,0-15.43,12.17-22.5,32.58-22.5h11.37v-5.54c0-5.84-1.9-12.75-14-12.75-10.83,0-12.74,5.26-13.92,10.56H452c.94-10,7.13-20.78,27.15-20.72,17.14.06,26.59,7,26.59,22.78ZM492.8,178.84H482.31c-13.29,0-20,3.74-20,12.85,0,6.74,4.55,11.75,12.72,11.75,15.71,0,17.81-10.63,17.81-22.47Z"/><path d="M580.79,190.68C578,202.46,570,213.6,551.85,213.6c-19.42,0-31-13.87-31-35.66,0-19.63,11.29-36.44,31.91-36.44s27.28,14.63,28.06,23.3h-13.1c-1.6-6.74-5.76-12.39-15.22-12.39-11.51,0-18,9.9-18,25.08,0,15.48,6.41,25.26,17.66,25.26,8.21,0,12.93-4.45,15.53-12.07Z"/><path d="M647.36,196.42a114.45,114.45,0,0,0,.95,15.56h-12.7a36.09,36.09,0,0,1-1.1-8.57c-2.42,4.45-7.76,10.19-20.88,10.19-16.31,0-23.25-10.64-23.25-21.15C590.38,177,602.55,170,623,170h11.37v-5.54c0-5.84-1.91-12.75-14-12.75-10.83,0-12.73,5.26-13.91,10.56H593.62c.94-10,7.13-20.78,27.15-20.72,17.14.06,26.59,7,26.59,22.78Zm-13-17.58H623.91c-13.29,0-20,3.74-20,12.85,0,6.74,4.55,11.75,12.73,11.75,15.71,0,17.8-10.63,17.8-22.47Z"/><path d="M725.45,112.8v79.82c0,6.43,0,12.78.13,19.36H712.82a92.75,92.75,0,0,1-.65-9.28c-3.38,6.84-10.15,10.9-21.24,10.9-17.64,0-28.56-14.28-28.56-35.36s11.74-36.74,30.87-36.74c11.74,0,17.15,4.65,18.93,8.37V112.8Zm-49.34,65.05c0,16,7.39,24.66,17.91,24.66,15.52,0,18.67-11.69,18.67-25.78,0-14.62-2.9-24.14-17.82-24.14C683.14,152.59,676.11,161.86,676.11,177.85Z"/><path d="M753.76,180.08c.07,13,6.59,22.61,17.85,22.61,10.32,0,13.6-5.14,15.72-10h13.35c-2.65,8.74-10.06,20.91-29.46,20.91-21.85,0-30.87-17.47-30.87-35.26,0-20.69,10.46-36.84,31.62-36.84,22.48,0,29.91,17.68,29.91,32.85a52.42,52.42,0,0,1-.2,5.73Zm34.69-9c-.13-10.68-5.34-19.33-16.63-19.33-11.53,0-16.54,8-17.66,19.33Z"/><path d="M816.76,160.88c0-5.94,0-12.11-.14-17.75H829.4c.19,2,.52,6.82.51,10.13,3.21-6,9.12-11.76,19.86-11.76,9.77,0,16.23,5,18.81,12,3.75-6.36,10.14-12,21.8-12,11.33,0,21.72,6.75,21.72,25.24V212h-13V168.36c0-7.65-2.75-15.62-12.93-15.62-10.6,0-15.14,7.85-15.14,19.73V212H858V168.8c0-8.52-2.36-16-12.65-16s-15.42,8.13-15.42,21V212H816.76Z"/><path d="M936.79,143.13c10.34,31.18,16.47,50,18.16,56.9h.13c2.09-7.64,6.83-23.33,17.49-56.9h13.36l-24.44,71.78c-6.93,20.08-12.16,25.34-26.73,25.34a68.8,68.8,0,0,1-7.7-.46V228.48a48.44,48.44,0,0,0,5.53.34c8.39,0,11.75-3.57,15.52-14.3l-25.65-71.39Z"/><polygon class="cls-1" points="38.85 40.15 38.85 1.3 72.14 1.3 72.14 40.15 72.13 40.17 110.99 40.17 110.99 73.47 72.13 73.47 72.14 73.46 72.14 112.31 38.85 112.31 38.85 73.46 38.85 73.48 0 73.48 0 40.17 38.85 40.17 38.85 40.15"/><path class="cls-1" d="M162.5,56.22a46.89,46.89,0,0,1,63.23-43.91,56.22,56.22,0,1,0,1,87.45A46.89,46.89,0,0,1,162.5,56.22"/><path d="M199.57,214.1A39.33,39.33,0,0,0,215.34,211a30.81,30.81,0,0,0,11.86-8.89L217.26,193a21.27,21.27,0,0,1-16.83,7.94,22.31,22.31,0,0,1-11.09-2.73,19.35,19.35,0,0,1-7.6-7.6,23.91,23.91,0,0,1,0-22.19,19.35,19.35,0,0,1,7.6-7.6,22.42,22.42,0,0,1,11.09-2.72,21.38,21.38,0,0,1,16.83,7.84l9.94-9.18a31.37,31.37,0,0,0-11.81-8.8,39.2,39.2,0,0,0-15.73-3.06,38.68,38.68,0,0,0-18.6,4.45,33.14,33.14,0,0,0-13,12.34,35.9,35.9,0,0,0,0,35.66,33.18,33.18,0,0,0,13,12.33,38.4,38.4,0,0,0,18.51,4.45M137.7,170.31a10.66,10.66,0,0,1-3.64,8.61c-2.42,2-6,3.05-10.61,3.05H110.83V158.64h12.62q7,0,10.61,3t3.64,8.66M154.62,213l-15-21.51a21.81,21.81,0,0,0,13.76-21.14,23.31,23.31,0,0,0-3.53-12.92A23,23,0,0,0,139.75,149a37.13,37.13,0,0,0-15.45-3h-29V213h15.5V194.3h14.25L138,213ZM82,158.44V146H31.36V213h15.5V188.57h31V176.15h-31v-17.7H82ZM0,213H15.49V146H0Z"/><line class="cls-2" x1="293.42" y1="1.39" x2="293.42" y2="213.13"/></svg>