<svg id="Layer_1" data-name="Layer 1" xmlns="http://www.w3.org/2000/svg" viewBox="0 0 250 250">
<path fill="currentColor" id="Path_1104" data-name="Path 1104" d="M70,101.58a8.84,8.84,0,1,0,8.79,8.88v0A8.81,8.81,0,0,0,70,101.58Z"/>
<path fill="currentColor" id="Path_1105" data-name="Path 1105" d="M220.76,121.75c-9.64-40.3-19.85-61.7-40.29-67.75a40.76,40.76,0,0,0-11.7-1.82c-12.57,0-21.35,6.69-43.75,6.69s-31.19-6.69-43.75-6.69A40.43,40.43,0,0,0,69.56,54c-20.45,6.06-30.64,27.55-40.3,67.75s-7.88,69.38,3.51,74.79a13.18,13.18,0,0,0,5.69,1.28c9.88,0,20.54-10.84,30.83-23.67,11.7-14.62,14.61-15,50.21-15h11.06c35.56,0,38.55.36,50.22,15C191,187,201.72,197.82,211.6,197.82a13.37,13.37,0,0,0,5.7-1.28C228.63,191.08,230.36,162,220.76,121.75ZM70,128.44a18,18,0,1,1,17.81-18.26v.28A18,18,0,0,1,70,128.44Zm78.72-8.88a9.16,9.16,0,1,1,9.16-9.15h0A9.16,9.16,0,0,1,148.73,119.56Zm20,20a9.14,9.14,0,1,1,9.16-9.11h0a9.15,9.15,0,0,1-9.17,9.1Zm0-40a9.16,9.16,0,1,1,9.16-9.15h0a9.16,9.16,0,0,1-9.17,9.14h0Zm20,20a9.16,9.16,0,1,1,9.16-9.15h0a9.16,9.16,0,0,1-9.17,9.14h0Z"/>
</svg>
