<svg id="Layer_1" data-name="Layer 1" xmlns="http://www.w3.org/2000/svg" viewBox="0 0 250 250">
<path id="Path_1088" data-name="Path 1088" fill="currentColor" d="M192.09,94.19h-87.5a15.06,15.06,0,0,0-15,15v60.92a15,15,0,0,0,15,15h50.07a4.31,4.31,0,0,1,3,1.26l24.88,22.94c1.39,1.34,3.67.79,3.67-1.15v-20c0-2.37,1.5-3.12,3.87-3.12h.4a16.44,16.44,0,0,0,16.62-15V109.24a15,15,0,0,0-14.92-15Z"/>
<path id="Path_1089" data-name="Path 1089" fill="currentColor" d="M94.78,84.53h68.05V58.74A12.84,12.84,0,0,0,150,45.9H55.74A12.84,12.84,0,0,0,42.9,58.74h0V124a12.84,12.84,0,0,0,12.84,12.84H79.87V99.37C79.92,92.27,87.68,84.54,94.78,84.53Z"/>
</svg>
